<svg xmlns="http://www.w3.org/2000/svg" width="30.035" height="36" viewBox="0 0 30.035 36">
  <defs>
    <style>
      .cls-1 {
        fill: #f2f2f2;
      }
    </style>
  </defs>
  <g id="icon" transform="translate(0 0)">
    <path id="Caminho_5" data-name="Caminho 5" class="cls-1" d="M95.7,17.342a8.39,8.39,0,0,0,6.131-2.54,8.391,8.391,0,0,0,2.54-6.131,8.391,8.391,0,0,0-2.54-6.131,8.669,8.669,0,0,0-12.261,0,8.39,8.39,0,0,0-2.54,6.13,8.39,8.39,0,0,0,2.54,6.131A8.393,8.393,0,0,0,95.7,17.342ZM91.064,4.032a6.559,6.559,0,0,1,9.278,0,6.269,6.269,0,0,1,1.922,4.639,6.268,6.268,0,0,1-1.922,4.639,6.558,6.558,0,0,1-9.278,0,6.267,6.267,0,0,1-1.923-4.639,6.268,6.268,0,0,1,1.923-4.639Zm0,0" transform="translate(-80.912 0)"/>
    <path id="Caminho_6" data-name="Caminho 6" class="cls-1" d="M29.962,257.609a21.416,21.416,0,0,0-.292-2.275,17.921,17.921,0,0,0-.559-2.287,11.3,11.3,0,0,0-.94-2.133,8.041,8.041,0,0,0-1.418-1.848,6.251,6.251,0,0,0-2.037-1.28,7.039,7.039,0,0,0-2.6-.47,2.639,2.639,0,0,0-1.409.6c-.422.275-.917.594-1.468.946a8.413,8.413,0,0,1-1.9.837,7.376,7.376,0,0,1-4.647,0,8.387,8.387,0,0,1-1.9-.837c-.546-.349-1.041-.668-1.469-.947a2.636,2.636,0,0,0-1.409-.6,7.03,7.03,0,0,0-2.6.471,6.246,6.246,0,0,0-2.037,1.28,8.042,8.042,0,0,0-1.417,1.847,11.317,11.317,0,0,0-.94,2.133,17.962,17.962,0,0,0-.559,2.287,21.269,21.269,0,0,0-.292,2.276c-.048.687-.072,1.4-.072,2.126a5.978,5.978,0,0,0,1.775,4.523,6.391,6.391,0,0,0,4.575,1.669H23.684a6.391,6.391,0,0,0,4.575-1.669,5.976,5.976,0,0,0,1.776-4.523c0-.725-.025-1.441-.073-2.126ZM26.8,262.73a4.3,4.3,0,0,1-3.12,1.087H6.35a4.3,4.3,0,0,1-3.12-1.087,3.9,3.9,0,0,1-1.12-2.994c0-.675.022-1.341.067-1.98a19.186,19.186,0,0,1,.264-2.049,15.843,15.843,0,0,1,.492-2.016,9.215,9.215,0,0,1,.765-1.734,5.961,5.961,0,0,1,1.042-1.365,4.147,4.147,0,0,1,1.355-.842,4.855,4.855,0,0,1,1.661-.321c.074.039.205.114.419.253.434.283.934.605,1.486.958a10.452,10.452,0,0,0,2.384,1.065,9.484,9.484,0,0,0,5.944,0,10.465,10.465,0,0,0,2.386-1.066c.566-.361,1.051-.675,1.485-.957.213-.139.345-.214.419-.253a4.858,4.858,0,0,1,1.662.321,4.153,4.153,0,0,1,1.355.842,5.944,5.944,0,0,1,1.042,1.366,9.182,9.182,0,0,1,.765,1.734,15.806,15.806,0,0,1,.492,2.016,19.347,19.347,0,0,1,.264,2.049h0c.045.637.067,1.3.068,1.979A3.9,3.9,0,0,1,26.8,262.73Zm0,0" transform="translate(0 -229.927)"/>
  </g>
</svg>
