<svg xmlns="http://www.w3.org/2000/svg" xmlns:xlink="http://www.w3.org/1999/xlink" width="38.889" height="35" viewBox="0 0 38.889 35">
  <defs>
    <style>
      .cls-1 {
        fill: url(#linear-gradient);
      }
    </style>
    <linearGradient id="linear-gradient" x1="0.5" x2="0.5" y2="1" gradientUnits="objectBoundingBox">
      <stop offset="0" stop-color="#3aaee3"/>
      <stop offset="1" stop-color="#025e8f"/>
    </linearGradient>
  </defs>
  <path id="icon" class="cls-1" d="M38.53,26.933,20.229,11.5a.511.511,0,0,0-.1-.075,1.131,1.131,0,0,0-1.464-.023L.361,26.835a.984.984,0,0,0-.088,1.441,1.113,1.113,0,0,0,.808.339,1.118,1.118,0,0,0,.72-.257l3.3-2.784v18a2.648,2.648,0,0,0,2.72,2.565h5.775a2.484,2.484,0,0,0,2.552-2.407V34.583a.382.382,0,0,1,.392-.37h5.831a.382.382,0,0,1,.392.37v9.151a2.484,2.484,0,0,0,2.552,2.407h5.775a2.968,2.968,0,0,0,2.72-3.214V25.673l3.3,2.784a1.134,1.134,0,0,0,1.528-.083A1,1,0,0,0,38.53,26.933Zm-6.895,5.032V42.912c0,.732-.384,1.177-.56,1.177H25.3a.382.382,0,0,1-.392-.37V34.583a2.484,2.484,0,0,0-2.552-2.407H16.526a2.484,2.484,0,0,0-2.552,2.407v9.151a.382.382,0,0,1-.392.37H7.808a.546.546,0,0,1-.56-.528V23.749L19.39,13.519,31.635,23.847v8.118Z" transform="translate(0 -11.141)"/>
</svg>
