<svg id="_027-left-arrow" data-name="027-left-arrow" xmlns="http://www.w3.org/2000/svg" width="68.899" height="57.227" viewBox="0 0 68.899 57.227">
  <defs>
    <style>
      .cls-1 {
        fill: #f2f2f2;
      }
    </style>
  </defs>
  <g id="Grupo_26" data-name="Grupo 26">
    <path id="Caminho_44" data-name="Caminho 44" class="cls-1" d="M65.026,64.885l.108.024h-46.1L33.523,50.383a3.806,3.806,0,0,0,0-5.351l-2.255-2.256a3.772,3.772,0,0,0-5.325,0L1.1,67.615a3.8,3.8,0,0,0,0,5.343L25.943,97.8a3.776,3.776,0,0,0,5.325,0l2.255-2.256a3.732,3.732,0,0,0,1.1-2.662,3.62,3.62,0,0,0-1.1-2.612L18.866,75.666H65.077A3.9,3.9,0,0,0,68.9,71.8V68.61A3.829,3.829,0,0,0,65.026,64.885Z" transform="translate(0 -41.674)"/>
  </g>
</svg>
