<svg id="menu" xmlns="http://www.w3.org/2000/svg" width="8.75" height="35" viewBox="0 0 8.75 35">
  <g id="Grupo_13" data-name="Grupo 13">
    <g id="Grupo_12" data-name="Grupo 12">
      <path id="Caminho_13" data-name="Caminho 13" d="M196.375,192a4.375,4.375,0,1,0,4.375,4.375A4.38,4.38,0,0,0,196.375,192Zm0,7.292a2.917,2.917,0,1,1,2.917-2.917A2.92,2.92,0,0,1,196.375,199.292Z" transform="translate(-192 -178.875)" fill="#f4f4f4"/>
      <path id="Caminho_14" data-name="Caminho 14" d="M196.375,384a4.375,4.375,0,1,0,4.375,4.375A4.38,4.38,0,0,0,196.375,384Zm0,7.292a2.917,2.917,0,1,1,2.917-2.917A2.92,2.92,0,0,1,196.375,391.292Z" transform="translate(-192 -357.75)" fill="#f4f4f4"/>
      <path id="Caminho_15" data-name="Caminho 15" d="M196.375,8.75A4.375,4.375,0,1,0,192,4.375,4.38,4.38,0,0,0,196.375,8.75Zm0-7.292a2.917,2.917,0,1,1-2.917,2.917A2.92,2.92,0,0,1,196.375,1.458Z" transform="translate(-192)" fill="#f4f4f4"/>
    </g>
  </g>
</svg>
