<svg id="icon" xmlns="http://www.w3.org/2000/svg" width="36" height="36" viewBox="0 0 36 36">
  <defs>
    <style>
      .cls-1 {
        fill: #f2f2f2;
      }
    </style>
  </defs>
  <g id="Grupo_5" data-name="Grupo 5" transform="translate(7.598 10.585)">
    <g id="Grupo_4" data-name="Grupo 4">
      <path id="Caminho_2" data-name="Caminho 2" class="cls-1" d="M126.224,165.308a1.636,1.636,0,1,0-2.443,2.178,7.13,7.13,0,1,1-10.649,0,1.636,1.636,0,1,0-2.443-2.178,10.4,10.4,0,1,0,15.535,0Z" transform="translate(-108.054 -164.76)"/>
    </g>
  </g>
  <g id="Grupo_7" data-name="Grupo 7" transform="translate(16.364 8.545)">
    <g id="Grupo_6" data-name="Grupo 6">
      <path id="Caminho_3" data-name="Caminho 3" class="cls-1" d="M234.363,93.091A1.789,1.789,0,0,0,232.727,95v8.182a1.656,1.656,0,1,0,3.273,0V95A1.789,1.789,0,0,0,234.363,93.091Z" transform="translate(-232.727 -93.091)"/>
    </g>
  </g>
  <g id="Grupo_9" data-name="Grupo 9">
    <g id="Grupo_8" data-name="Grupo 8">
      <path id="Caminho_4" data-name="Caminho 4" class="cls-1" d="M18,0A18,18,0,1,0,36,18,18.02,18.02,0,0,0,18,0Zm0,32.727A14.727,14.727,0,1,1,32.727,18,14.744,14.744,0,0,1,18,32.727Z"/>
    </g>
  </g>
</svg>
