<svg width="56" height="34" viewBox="0 0 56 34" fill="none" xmlns="http://www.w3.org/2000/svg">
<path id="Vector" d="M31.837 1.745C32.119 2.026 32.357 2.334 32.564 2.657L54.171 24.266C56.279 26.375 56.28 29.793 54.171 31.903C52.062 34.013 48.644 34.012 46.533 31.903L27.926 13.293L9.218 31.999C7.11 34.106 3.69 34.108 1.58 31.999C0.527 30.942 0 29.561 0 28.18C0 26.799 0.527 25.417 1.582 24.364L23.286 2.659C23.494 2.336 23.732 2.028 24.014 1.746C25.092 0.667998 26.511 0.148998 27.926 0.173998C29.339 0.146998 30.759 0.665998 31.837 1.745Z" fill="black"/>
</svg>
