<?xml version="1.0" encoding="utf-8"?>
<!-- Generator: Adobe Illustrator 23.0.3, SVG Export Plug-In . SVG Version: 6.00 Build 0)  -->
<svg version="1.1" id="Layer_1" xmlns="http://www.w3.org/2000/svg" xmlns:xlink="http://www.w3.org/1999/xlink" x="0px" y="0px"
	 viewBox="0 0 1000 1000" style="enable-background:new 0 0 1000 1000;" xml:space="preserve">
<style type="text/css">
	.st0{fill:url(#SVGID_1_);}
	.st1{fill:url(#SVGID_2_);}
	.st2{fill:url(#SVGID_3_);}
</style>
<g>
	<linearGradient id="SVGID_1_" gradientUnits="userSpaceOnUse" x1="434.6609" y1="66.481" x2="513.6884" y2="673.2515">
		<stop  offset="0" style="stop-color:#035C8E"/>
		<stop  offset="1" style="stop-color:#2EB2ED"/>
	</linearGradient>
	<path class="st0" d="M596.93,237.15c-2.52,21.19-8.14,40.46-18.28,55.8c-2.52,3.83-13.88,20.39-29.03,40.39
		c-35.89,47.41-47.86,54.59-61.83,75.75c-35.67,54.02-29.55,116.46-29.03,121.18c3.8,33.92,22.72,64.67,60.59,126.22
		c8.17,13.24,14.64,23.1,19.91,30.82c-42.53-26.32-69.3-48.37-93.13-73.74c0,0-32.77-34.91-59.31-80.79
		c-26.71-46.14-49.42-126.57-61.45-231.48c0.83-36.88,4.47-75.3,23.77-107.11c19.85-32.64,54.85-51.05,91.89-56.57v-61.1
		c0-7.34,5.93-13.3,13.27-13.3c3.67,0,6.99,1.5,9.41,3.89c2.39,2.42,3.89,5.74,3.89,9.41v59.35c9.7,0.13,19.3,1.12,28.59,2.94
		c27.09,5.3,53.35,17.84,72.24,38.29C584.3,194.36,591.76,215.26,596.93,237.15z"/>
	<linearGradient id="SVGID_2_" gradientUnits="userSpaceOnUse" x1="420.5888" y1="595.4361" x2="231.7265" y2="808.4085">
		<stop  offset="0" style="stop-color:#035C8E"/>
		<stop  offset="1" style="stop-color:#2EB2ED"/>
	</linearGradient>
	<path class="st1" d="M569.81,828.69c-7.15,6.03-14.52,11.81-21.95,17.36c-40.27,30.28-83.4,56.79-128.61,79
		c-11.04,5.46-22.53,10.69-34.81,11.58c-51.72,3.8-52.13-66.97-56.03-103.79c-0.06-0.7-0.13-1.44-0.22-2.11
		c-6.22-54.46-5.87-109.41-5.49-164.13c0.8-115.37,1.6-230.75,2.39-346.12c0.03-6.32,0.1-12.7,0.26-19.18
		c12.03,104.91,34.75,185.34,61.45,231.48c26.55,45.88,59.31,80.79,59.31,80.79c23.83,25.37,50.6,47.41,93.13,73.74
		c15.54,22.69,20.58,26.64,26.8,42.37C575.01,752.4,580.31,784.21,569.81,828.69z"/>
	<linearGradient id="SVGID_3_" gradientUnits="userSpaceOnUse" x1="660.8311" y1="424.5934" x2="508.1338" y2="658.9969">
		<stop  offset="0" style="stop-color:#3AAFE3"/>
		<stop  offset="1" style="stop-color:#015C8D"/>
	</linearGradient>
	<path class="st2" d="M674.34,509.24c-7.08,34.81-18.86,68.63-24.06,103.79c-6.19,42.05-3.06,86.24-15.47,126.41
		c-1.56,5.14-3.41,10.18-5.55,15.16c-12.6,29.42-34.75,53.28-59.44,74.09c10.5-44.48,5.2-76.29-3.76-99
		c-6.22-15.73-11.26-19.69-26.8-42.37c-5.26-7.72-11.74-17.58-19.91-30.82c-37.87-61.55-56.79-92.3-60.59-126.22
		c-0.51-4.72-6.64-67.16,29.03-121.18c13.97-21.15,25.94-28.33,61.83-75.75c15.16-20.01,26.51-36.56,29.03-40.39
		c10.15-15.35,15.76-34.62,18.28-55.8c2.97,12.48,5.2,25.24,7.79,37.81c3.16,15.25,6.8,30.47,13.27,44.67
		c13.72,30.22,39.05,54.11,51.82,84.74C683.49,437.14,681.39,474.43,674.34,509.24z"/>
</g>
</svg>
