<?xml version="1.0" encoding="utf-8"?>
<!-- Generator: Adobe Illustrator 21.0.0, SVG Export Plug-In . SVG Version: 6.00 Build 0)  -->
<svg version="1.1" id="Layer_1" xmlns="http://www.w3.org/2000/svg" xmlns:xlink="http://www.w3.org/1999/xlink" x="0px" y="0px"
	 viewBox="0 0 1000 1000" style="enable-background:new 0 0 1000 1000;" xml:space="preserve">
<style type="text/css">
	.st0{fill:#035C8E;}
	.st1{font-family:'TitilliumWeb-Regular';}
	.st2{font-size:159.1053px;}
	.st3{letter-spacing:9;}
	.st4{fill:url(#SVGID_1_);}
	.st5{fill:url(#SVGID_2_);}
	.st6{fill:url(#SVGID_3_);}
</style>
<text transform="matrix(1 0 0 1 96.7861 789.9541)" class="st0 st1 st2 st3">Metamorff</text>
<g>
	
		<linearGradient id="SVGID_1_" gradientUnits="userSpaceOnUse" x1="468.4214" y1="-52.6918" x2="511.0384" y2="274.5199" gradientTransform="matrix(1 0 0 1 0 208)">
		<stop  offset="0" style="stop-color:#035C8E"/>
		<stop  offset="1" style="stop-color:#2EB2ED"/>
	</linearGradient>
	<path class="st4" d="M556,247.3c-1.4,11.4-4.4,21.8-9.9,30.1c-1.4,2.1-7.5,11-15.7,21.8c-19.4,25.6-25.8,29.4-33.4,40.9
		c-19.2,29.1-15.9,62.8-15.7,65.4c2,18.3,12.3,34.9,32.7,68.1c4.4,7.1,7.9,12.5,10.7,16.6c-22.9-14.2-37.4-26.1-50.2-39.8
		c0,0-17.7-18.8-32-43.6c-14.4-24.9-26.6-68.3-33.1-124.8c0.5-19.9,2.4-40.6,12.8-57.8c10.7-17.6,29.6-27.5,49.5-30.5v-32.9
		c0-4,3.2-7.2,7.2-7.2c2,0,3.8,0.8,5.1,2.1c1.3,1.3,2.1,3.1,2.1,5.1v32c5.2,0.1,10.4,0.6,15.4,1.6c14.6,2.9,28.8,9.6,39,20.6
		C549.2,224.3,553.2,235.5,556,247.3z"/>
	
		<linearGradient id="SVGID_2_" gradientUnits="userSpaceOnUse" x1="460.9297" y1="232.5739" x2="359.0824" y2="347.4231" gradientTransform="matrix(1 0 0 1 0 208)">
		<stop  offset="0" style="stop-color:#035C8E"/>
		<stop  offset="1" style="stop-color:#2EB2ED"/>
	</linearGradient>
	<path class="st5" d="M541.4,566.3c-3.8,3.3-7.8,6.4-11.8,9.4c-21.7,16.3-45,30.6-69.4,42.6c-6,2.9-12.1,5.8-18.8,6.3
		c-27.9,2-28.1-36.1-30.2-56c0-0.4-0.1-0.8-0.1-1.1c-3.4-29.4-3.2-59-3-88.5c0.4-62.2,0.9-124.4,1.3-186.6c0-3.4,0-6.9,0.1-10.3
		c6.5,56.6,18.7,100,33.1,124.8c14.3,24.7,32,43.6,32,43.6c12.9,13.7,27.3,25.6,50.2,39.8c8.4,12.2,11.1,14.4,14.5,22.8
		C544.2,525.2,547,542.3,541.4,566.3z"/>
	
		<linearGradient id="SVGID_3_" gradientUnits="userSpaceOnUse" x1="590.5411" y1="140.4739" x2="508.1965" y2="266.8802" gradientTransform="matrix(1 0 0 1 0 208)">
		<stop  offset="0" style="stop-color:#3AAFE3"/>
		<stop  offset="1" style="stop-color:#015C8D"/>
	</linearGradient>
	<path class="st6" d="M597.7,394.1c-3.8,18.8-10.2,37-13,56c-3.3,22.7-1.7,46.5-8.3,68.2c-0.8,2.8-1.8,5.5-3,8.2
		c-6.8,15.9-18.7,28.7-32,40c5.7-24,2.8-41.1-2-53.4c-3.4-8.5-6.1-10.6-14.5-22.9c-2.8-4.2-6.3-9.5-10.7-16.6
		c-20.4-33.2-30.6-49.8-32.7-68.1c-0.3-2.5-3.6-36.2,15.7-65.4c7.5-11.4,14-15.3,33.4-40.9c8.2-10.8,14.3-19.7,15.7-21.8
		c5.5-8.3,8.5-18.7,9.9-30.1c1.6,6.7,2.8,13.6,4.2,20.4c1.7,8.2,3.7,16.4,7.2,24.1c7.4,16.3,21.1,29.2,27.9,45.7
		C602.7,355.2,601.5,375.3,597.7,394.1z"/>
</g>
</svg>
