<?xml version="1.0" encoding="utf-8"?>
<!-- Generator: Adobe Illustrator 23.0.3, SVG Export Plug-In . SVG Version: 6.00 Build 0)  -->
<svg version="1.1" id="Layer_1" xmlns="http://www.w3.org/2000/svg" xmlns:xlink="http://www.w3.org/1999/xlink" x="0px" y="0px"
	 viewBox="0 0 1000 1000" style="enable-background:new 0 0 1000 1000;" xml:space="preserve">
<style type="text/css">
	.st0{fill:#035C8E;}
	.st1{font-family: 'Titillium Web';}
	.st2{font-size:159.1053px;}
	.st3{letter-spacing:11;}
	.st4{fill:url(#SVGID_1_);}
	.st5{fill:url(#SVGID_2_);}
	.st6{fill:url(#SVGID_3_);}
</style>
<text transform="matrix(1 0 0 1 63.7861 802.9542)" class="st0 st1 st2 st3">Metamorff</text>
<g>
	<linearGradient id="SVGID_1_" gradientUnits="userSpaceOnUse" x1="464.4888" y1="155.2994" x2="507.1058" y2="482.5111">
		<stop  offset="0" style="stop-color:#035C8E"/>
		<stop  offset="1" style="stop-color:#2EB2ED"/>
	</linearGradient>
	<path class="st4" d="M552,247.33c-1.36,11.42-4.39,21.82-9.86,30.09c-1.36,2.06-7.48,10.99-15.66,21.78
		c-19.36,25.57-25.81,29.44-33.35,40.85c-19.24,29.13-15.93,62.8-15.66,65.35c2.05,18.29,12.25,34.88,32.67,68.07
		c4.4,7.14,7.9,12.46,10.74,16.62c-22.94-14.19-37.37-26.08-50.22-39.76c0,0-17.67-18.82-31.99-43.57
		c-14.4-24.88-26.65-68.26-33.14-124.83c0.45-19.89,2.41-40.61,12.82-57.76c10.7-17.6,29.58-27.53,49.55-30.51v-32.95
		c0-3.96,3.2-7.17,7.16-7.17c1.98,0,3.77,0.81,5.08,2.1c1.29,1.31,2.1,3.1,2.1,5.08v32c5.23,0.07,10.41,0.6,15.42,1.58
		c14.61,2.86,28.77,9.62,38.95,20.65C545.18,224.26,549.21,235.53,552,247.33z"/>
	<linearGradient id="SVGID_2_" gradientUnits="userSpaceOnUse" x1="456.9002" y1="440.5478" x2="355.0529" y2="555.3969">
		<stop  offset="0" style="stop-color:#035C8E"/>
		<stop  offset="1" style="stop-color:#2EB2ED"/>
	</linearGradient>
	<path class="st5" d="M537.37,566.33c-3.85,3.25-7.83,6.37-11.84,9.36c-21.71,16.33-44.98,30.63-69.36,42.6
		c-5.95,2.94-12.15,5.76-18.77,6.25c-27.89,2.05-28.11-36.12-30.21-55.97c-0.03-0.38-0.07-0.77-0.12-1.14
		c-3.36-29.37-3.17-59-2.96-88.51c0.43-62.22,0.86-124.43,1.29-186.65c0.02-3.41,0.05-6.85,0.14-10.34
		c6.49,56.57,18.74,99.95,33.14,124.83c14.32,24.74,31.99,43.57,31.99,43.57c12.85,13.68,27.29,25.57,50.22,39.76
		c8.38,12.23,11.1,14.37,14.45,22.85C540.18,525.19,543.03,542.35,537.37,566.33z"/>
	<linearGradient id="SVGID_3_" gradientUnits="userSpaceOnUse" x1="586.4551" y1="348.4178" x2="504.1104" y2="474.8241">
		<stop  offset="0" style="stop-color:#3AAFE3"/>
		<stop  offset="1" style="stop-color:#015C8D"/>
	</linearGradient>
	<path class="st6" d="M593.74,394.07c-3.82,18.77-10.17,37.01-12.97,55.97c-3.34,22.68-1.65,46.51-8.34,68.17
		c-0.84,2.77-1.84,5.49-2.99,8.17c-6.8,15.86-18.74,28.73-32.05,39.95c5.66-23.99,2.8-41.14-2.03-53.39
		c-3.36-8.48-6.07-10.62-14.45-22.85c-2.84-4.16-6.33-9.48-10.74-16.62c-20.42-33.19-30.63-49.78-32.67-68.07
		c-0.28-2.55-3.58-36.22,15.66-65.35c7.54-11.41,13.99-15.28,33.35-40.85c8.17-10.79,14.3-19.72,15.66-21.78
		c5.47-8.28,8.5-18.67,9.86-30.09c1.6,6.73,2.8,13.61,4.2,20.39c1.7,8.22,3.66,16.43,7.16,24.09c7.4,16.29,21.06,29.18,27.94,45.7
		C598.68,355.18,597.54,375.3,593.74,394.07z"/>
</g>
</svg>
