<?xml version="1.0" encoding="iso-8859-1"?>
<!-- Generator: Adobe Illustrator 19.0.0, SVG Export Plug-In . SVG Version: 6.00 Build 0)  -->
<svg version="1.1" id="Layer_1" xmlns="http://www.w3.org/2000/svg" xmlns:xlink="http://www.w3.org/1999/xlink" x="0px" y="0px"
	 viewBox="0 0 512 512" style="enable-background:new 0 0 512 512;" xml:space="preserve">
<g>
	<g>
		<g>
			<path d="M490.667,42.667H380.346C371.562,17.808,347.872,0,320,0s-51.562,17.808-60.346,42.667h-49.974
				C200.895,17.808,177.206,0,149.333,0S97.772,17.808,88.987,42.667H21.333C9.551,42.667,0,52.218,0,64v106.667v320
				C0,502.449,9.551,512,21.333,512h469.333c11.782,0,21.333-9.551,21.333-21.333v-320V64C512,52.218,502.449,42.667,490.667,42.667
				z M42.667,85.333h64C118.449,85.333,128,75.782,128,64c0-11.791,9.542-21.333,21.333-21.333S170.667,52.209,170.667,64
				s-9.542,21.333-21.333,21.333c-11.782,0-21.333,9.551-21.333,21.333c0,11.782,9.551,21.333,21.333,21.333
				c27.872,0,51.562-17.808,60.346-42.667h67.654c11.782,0,21.333-9.551,21.333-21.333c0-11.791,9.542-21.333,21.333-21.333
				S341.333,52.209,341.333,64S331.791,85.333,320,85.333c-11.782,0-21.333,9.551-21.333,21.333
				c0,11.782,9.551,21.333,21.333,21.333c27.872,0,51.562-17.808,60.346-42.667h88.987v64H42.667V85.333z M469.333,469.333H42.667
				V192h426.667V469.333z"/>
			<path d="M128,405.333c-11.782,0-21.333,9.551-21.333,21.333S116.218,448,128,448h85.333c11.782,0,21.333-9.551,21.333-21.333
				s-9.551-21.333-21.333-21.333H192V234.667c0-19.006-22.979-28.524-36.418-15.085l-42.667,42.667
				c-8.331,8.331-8.331,21.839,0,30.17s21.839,8.331,30.17,0l6.248-6.248v119.164H128z"/>
			<path d="M253.967,376.934c0,42.779,34.682,77.461,77.461,77.461s77.461-34.682,77.461-77.461
				c0-22.962-10.001-43.582-25.874-57.767c11.095-12.308,17.855-28.6,17.855-46.47c0-38.342-31.098-69.44-69.44-69.44
				c-38.358,0-69.44,31.092-69.44,69.44c0,17.872,6.756,34.164,17.849,46.471C263.967,333.354,253.967,353.973,253.967,376.934z
				 M331.428,411.729c-19.215,0-34.795-15.579-34.795-34.795c0-19.215,15.579-34.795,34.795-34.795s34.795,15.579,34.795,34.795
				C366.223,396.15,350.644,411.729,331.428,411.729z M331.43,245.924c14.778,0,26.773,11.995,26.773,26.773
				c0,14.778-11.995,26.773-26.773,26.773c-14.79,0-26.773-11.987-26.773-26.773C304.657,257.911,316.64,245.924,331.43,245.924z"/>
		</g>
	</g>
</g>
<g>
</g>
<g>
</g>
<g>
</g>
<g>
</g>
<g>
</g>
<g>
</g>
<g>
</g>
<g>
</g>
<g>
</g>
<g>
</g>
<g>
</g>
<g>
</g>
<g>
</g>
<g>
</g>
<g>
</g>
</svg>
