<?xml version="1.0" encoding="iso-8859-1"?>
<!-- Generator: Adobe Illustrator 19.0.0, SVG Export Plug-In . SVG Version: 6.00 Build 0)  -->
<svg version="1.1" id="Layer_1" xmlns="http://www.w3.org/2000/svg" xmlns:xlink="http://www.w3.org/1999/xlink" x="0px" y="0px"
	 viewBox="0 0 512 512" style="enable-background:new 0 0 512 512;" xml:space="preserve">
<g>
	<g>
		<path d="M448,469.333h-42.667v-64V384c0-54.328-29.007-101.871-72.377-128c43.37-26.129,72.377-73.672,72.377-128V42.667H448
			c11.782,0,21.333-9.551,21.333-21.333C469.333,9.551,459.782,0,448,0h-64H128H64C52.218,0,42.667,9.551,42.667,21.333
			c0,11.782,9.551,21.333,21.333,21.333h42.667V128c0,54.328,29.007,101.871,72.377,128c-43.37,26.129-72.377,73.672-72.377,128
			v21.333v64H64c-11.782,0-21.333,9.551-21.333,21.333S52.218,512,64,512h64h256h64c11.782,0,21.333-9.551,21.333-21.333
			S459.782,469.333,448,469.333z M268.745,233.906c-0.03,0.004-0.06,0.007-0.09,0.01c-0.93,0.111-1.864,0.207-2.8,0.293
			c-0.201,0.018-0.402,0.036-0.603,0.054c-0.775,0.067-1.553,0.124-2.332,0.174c-0.278,0.018-0.555,0.037-0.833,0.053
			c-0.739,0.042-1.481,0.073-2.223,0.1c-0.281,0.01-0.56,0.024-0.842,0.032c-0.995,0.028-1.993,0.044-2.994,0.045
			c-0.009,0-0.017,0-0.026,0c-1.012,0-2.022-0.017-3.029-0.045c-0.265-0.007-0.529-0.021-0.793-0.03
			c-0.762-0.027-1.522-0.059-2.281-0.102c-0.262-0.015-0.523-0.033-0.784-0.05c-0.798-0.051-1.595-0.109-2.389-0.179
			c-0.185-0.016-0.37-0.032-0.554-0.049c-0.956-0.088-1.909-0.186-2.858-0.299c-0.014-0.002-0.027-0.003-0.041-0.005
			c-29.248-3.505-55.28-18.947-72.487-41.908H341.21C323.999,214.958,297.975,230.397,268.745,233.906z M362.667,42.667V128
			c0,7.306-0.736,14.44-2.135,21.333H151.468c-1.399-6.893-2.135-14.027-2.135-21.333V42.667H362.667z M234.667,279.468v61.865
			c0,11.782,9.551,21.333,21.333,21.333c11.782,0,21.333-9.551,21.333-21.333v-61.865c48.691,9.882,85.333,52.921,85.333,104.532
			H149.333C149.333,332.39,185.975,289.35,234.667,279.468z M149.333,469.333v-42.667h213.333v42.667H149.333z"/>
	</g>
</g>
<g>
</g>
<g>
</g>
<g>
</g>
<g>
</g>
<g>
</g>
<g>
</g>
<g>
</g>
<g>
</g>
<g>
</g>
<g>
</g>
<g>
</g>
<g>
</g>
<g>
</g>
<g>
</g>
<g>
</g>
</svg>
