<?xml version="1.0" encoding="iso-8859-1"?>
<!-- Generator: Adobe Illustrator 19.0.0, SVG Export Plug-In . SVG Version: 6.00 Build 0)  -->
<svg version="1.1" id="Layer_1" xmlns="http://www.w3.org/2000/svg" xmlns:xlink="http://www.w3.org/1999/xlink" x="0px" y="0px"
	 viewBox="0 0 512.008 512.008" style="enable-background:new 0 0 512.008 512.008;" xml:space="preserve">
<g>
	<g>
		<path d="M480.767,31.24c-41.654-41.654-109.199-41.654-150.853,0l-87.469,87.49c-24.672,24.672-34.727,58.42-30.171,90.496
			c-32.082-4.559-65.841,5.497-90.516,30.172l-90.517,90.517c-41.654,41.654-41.654,109.199,0,150.853
			c41.68,41.653,109.2,41.653,150.853,0l90.517-90.517c24.67-24.67,34.726-58.422,30.174-90.498
			c32.074,4.556,65.822-5.5,90.494-30.172l87.488-87.488C522.421,140.439,522.421,72.894,480.767,31.24z M242.441,360.081
			l-90.517,90.517c-24.992,24.992-65.505,24.992-90.518-0.005c-24.987-24.987-24.987-65.516,0.005-90.508l90.517-90.517
			c19.701-19.701,49.054-23.859,72.843-12.498l-69.181,69.181c-8.331,8.331-8.331,21.839,0,30.17c8.331,8.331,21.839,8.331,30.17,0
			l69.18-69.18C266.3,311.029,262.142,340.38,242.441,360.081z M450.597,151.923l-87.488,87.488
			c-19.704,19.704-49.048,23.86-72.833,12.494l66.152-66.152c8.331-8.331,8.331-21.839,0-30.17c-8.331-8.331-21.839-8.331-30.17,0
			l-66.143,66.143c-11.356-23.792-7.197-53.129,12.503-72.829l87.469-87.49c24.99-24.99,65.519-24.99,90.511,0.002
			C475.588,86.402,475.588,126.932,450.597,151.923z"/>
	</g>
</g>
<g>
</g>
<g>
</g>
<g>
</g>
<g>
</g>
<g>
</g>
<g>
</g>
<g>
</g>
<g>
</g>
<g>
</g>
<g>
</g>
<g>
</g>
<g>
</g>
<g>
</g>
<g>
</g>
<g>
</g>
</svg>
