<?xml version="1.0" encoding="iso-8859-1"?>
<!-- Generator: Adobe Illustrator 19.0.0, SVG Export Plug-In . SVG Version: 6.00 Build 0)  -->
<svg version="1.1" id="Layer_1" xmlns="http://www.w3.org/2000/svg" xmlns:xlink="http://www.w3.org/1999/xlink" x="0px" y="0px"
	 viewBox="0 0 512 512" style="enable-background:new 0 0 512 512;" xml:space="preserve">
<g>
	<g>
		<path d="M410.616,460.03c0.57-0.432,1.136-0.868,1.702-1.305c0.797-0.616,1.596-1.23,2.386-1.855
			c1.316-1.039,2.622-2.09,3.918-3.156c0.077-0.064,0.156-0.125,0.234-0.189c1.523-1.255,3.029-2.534,4.524-3.825
			c0.156-0.135,0.309-0.271,0.465-0.406c1.396-1.211,2.779-2.439,4.149-3.682c0.085-0.077,0.17-0.154,0.255-0.231
			c3.005-2.731,5.956-5.528,8.835-8.407c1.11-1.11,2.192-2.251,3.281-3.384c0.367-0.381,0.741-0.757,1.106-1.141
			c0.754-0.794,1.496-1.601,2.24-2.406c1.046-1.128,2.084-2.264,3.11-3.41c0.256-0.288,0.513-0.576,0.769-0.866
			C487.657,380.583,512,321.138,512,256C512,114.618,397.382,0,256,0S0,114.618,0,256s114.618,256,256,256
			c56.406,0,108.54-18.258,150.846-49.166c0.245-0.179,0.49-0.356,0.734-0.536C408.598,461.549,409.61,460.794,410.616,460.03z
			 M414.381,398.911c-0.328,0.365-0.659,0.725-0.989,1.087c-4.431,4.841-9.077,9.481-13.933,13.896
			c-0.008,0.007-0.016,0.015-0.024,0.022c-0.948,0.862-1.912,1.707-2.875,2.552c-0.432,0.378-0.861,0.761-1.296,1.136
			c-0.735,0.634-1.481,1.257-2.225,1.882c-0.702,0.588-1.403,1.176-2.112,1.755c-0.558,0.456-1.122,0.906-1.684,1.357
			c-0.942,0.753-1.887,1.501-2.84,2.237c-0.379,0.293-0.759,0.584-1.14,0.874c-1.197,0.912-2.402,1.813-3.617,2.699
			c-0.167,0.122-0.334,0.244-0.501,0.365c-2.948,2.135-5.947,4.196-8.996,6.175L308.373,323.36c0.306-0.237,0.605-0.485,0.909-0.726
			c0.424-0.339,0.853-0.672,1.27-1.02c0.873-0.723,1.728-1.47,2.574-2.23c0.164-0.148,0.328-0.297,0.491-0.446
			c0.944-0.862,1.877-1.738,2.785-2.646c1.741-1.741,3.399-3.551,4.974-5.424l105.345,72.934
			c-3.701,4.968-7.546,9.701-11.545,14.215C414.909,398.314,414.648,398.615,414.381,398.911z M271.536,295.66
			c-0.446,0.175-0.88,0.367-1.307,0.568c-4.451,1.574-9.238,2.439-14.229,2.439c-23.567,0-42.667-19.099-42.667-42.667
			c0-5.332,0.986-10.431,2.772-15.137c0.196-0.398,0.383-0.804,0.558-1.22c2.183-5.212,5.256-9.853,9.189-13.785
			c4.154-4.154,9.111-7.349,14.696-9.538c0.467-0.183,0.92-0.385,1.366-0.596c4.411-1.542,9.149-2.391,14.087-2.391
			c23.567,0,42.667,19.099,42.667,42.667c0,12.736-5.585,24.16-14.431,31.977C280.519,291.234,276.255,293.811,271.536,295.66z
			 M105.169,105.176c10.658-10.658,22.3-20.064,34.761-28.149l63.766,111.571c-4.763,3.701-9.126,7.888-13.007,12.5L85.392,128.196
			C91.502,119.938,98.08,112.265,105.169,105.176z M469.333,256c0,32.649-7.346,63.58-20.458,91.246l-109.02-75.478
			c0.956-5.113,1.478-10.378,1.478-15.768c0-47.131-38.202-85.333-85.333-85.333c-4.37,0-8.662,0.332-12.856,0.965L177.873,57.428
			c24.195-9.527,50.549-14.761,78.127-14.761C373.818,42.667,469.333,138.182,469.333,256z M42.667,256
			c0-32.673,7.356-63.625,20.486-91.307l109.005,75.467c-0.964,5.135-1.491,10.424-1.491,15.839
			c0,47.131,38.202,85.333,85.333,85.333c4.4,0,8.723-0.334,12.944-0.977l65.261,114.186c-24.216,9.546-50.598,14.791-78.204,14.791
			C138.182,469.333,42.667,373.818,42.667,256z"/>
	</g>
</g>
<g>
</g>
<g>
</g>
<g>
</g>
<g>
</g>
<g>
</g>
<g>
</g>
<g>
</g>
<g>
</g>
<g>
</g>
<g>
</g>
<g>
</g>
<g>
</g>
<g>
</g>
<g>
</g>
<g>
</g>
</svg>
