<?xml version="1.0" encoding="iso-8859-1"?>
<!-- Generator: Adobe Illustrator 19.0.0, SVG Export Plug-In . SVG Version: 6.00 Build 0)  -->
<svg version="1.1" id="Layer_1" xmlns="http://www.w3.org/2000/svg" xmlns:xlink="http://www.w3.org/1999/xlink" x="0px" y="0px"
	 viewBox="0 0 512.009 512.009" style="enable-background:new 0 0 512.009 512.009;" xml:space="preserve">
<g>
	<g>
		<g>
			<path d="M426.675,170.671H223.39c-23.439-26.182-57.49-42.667-95.39-42.667c-70.683,0-128,57.317-128,128s57.317,128,128,128
				c37.9,0,71.951-16.484,95.39-42.667h203.285c47.131,0,85.333-38.202,85.333-85.333S473.807,170.671,426.675,170.671z
				 M42.667,256.004c0-47.119,38.214-85.333,85.333-85.333c24.931,0,47.364,10.702,62.968,27.757l4.861,6.435
				c9.15,12.114,14.935,25.936,16.827,40.551c0.022,0.179,0.047,0.357,0.068,0.537c0.097,0.787,0.174,1.577,0.248,2.368
				c0.074,0.825,0.139,1.653,0.189,2.484c0.023,0.367,0.051,0.734,0.069,1.102c0.064,1.359,0.104,2.725,0.104,4.1
				s-0.039,2.741-0.104,4.1c-0.018,0.368-0.046,0.735-0.069,1.102c-0.05,0.832-0.115,1.659-0.189,2.484
				c-0.074,0.791-0.151,1.581-0.248,2.368c-0.021,0.179-0.046,0.357-0.068,0.537c-1.892,14.615-7.676,28.437-16.827,40.551
				l-4.861,6.435c-15.604,17.055-38.037,27.757-62.968,27.757C80.881,341.338,42.667,303.124,42.667,256.004z M426.675,298.671
				H248.704c3.531-9.986,5.856-20.539,6.804-31.487c0.011-0.118,0.021-0.237,0.032-0.355c0.051-0.614,0.099-1.229,0.142-1.845
				c0.045-0.622,0.083-1.244,0.118-1.867c0.014-0.264,0.031-0.528,0.043-0.792c0.106-2.098,0.165-4.205,0.165-6.32
				s-0.059-4.222-0.165-6.32c-0.013-0.264-0.029-0.528-0.043-0.792c-0.035-0.623-0.074-1.246-0.118-1.867
				c-0.043-0.616-0.09-1.231-0.142-1.845c-0.01-0.119-0.021-0.237-0.032-0.355c-0.948-10.948-3.273-21.501-6.804-31.487h177.971
				c23.567,0,42.667,19.099,42.667,42.667S450.242,298.671,426.675,298.671z"/>
			<path d="M384,234.671h-42.667c-11.782,0-21.333,9.551-21.333,21.333c0,11.782,9.551,21.333,21.333,21.333H384
				c11.782,0,21.333-9.551,21.333-21.333C405.333,244.222,395.782,234.671,384,234.671z"/>
		</g>
	</g>
</g>
<g>
</g>
<g>
</g>
<g>
</g>
<g>
</g>
<g>
</g>
<g>
</g>
<g>
</g>
<g>
</g>
<g>
</g>
<g>
</g>
<g>
</g>
<g>
</g>
<g>
</g>
<g>
</g>
<g>
</g>
</svg>
