<?xml version="1.0" encoding="iso-8859-1"?>
<!-- Generator: Adobe Illustrator 19.0.0, SVG Export Plug-In . SVG Version: 6.00 Build 0)  -->
<svg version="1.1" id="Layer_1" xmlns="http://www.w3.org/2000/svg" xmlns:xlink="http://www.w3.org/1999/xlink" x="0px" y="0px"
	 viewBox="0 0 512 512" style="enable-background:new 0 0 512 512;" xml:space="preserve">
<g>
	<g>
		<g>
			<path d="M256,0C149.967,0,64,85.967,64,192v128c0,106.033,85.967,192,192,192s192-85.967,192-192V192C448,85.967,362.033,0,256,0
				z M405.333,320c0,82.469-66.865,149.333-149.333,149.333S106.667,402.469,106.667,320V192
				c0-82.469,66.865-149.333,149.333-149.333S405.333,109.531,405.333,192V320z"/>
			<path d="M354.587,174.515L247.92,89.95c-13.983-11.086-34.587-1.127-34.587,16.717v97.393l-27.492-27.822
				c-8.281-8.381-21.789-8.461-30.169-0.18c-8.381,8.281-8.461,21.789-0.18,30.169l49.094,49.684l-48.621,48.621
				c-8.331,8.331-8.331,21.839,0,30.17c8.331,8.331,21.839,8.331,30.17,0l27.198-27.198v97.83c0,17.932,20.78,27.863,34.733,16.6
				l106.667-86.101c11.537-9.313,10.29-27.265-2.424-34.893l-75.723-45.434l75.82-46.038
				C365.106,201.755,366.23,183.746,354.587,174.515z M256,360.697v-67.786l48.171,28.903L256,360.697z M256,218.088v-67.284
				l48.06,38.102L256,218.088z"/>
		</g>
	</g>
</g>
<g>
</g>
<g>
</g>
<g>
</g>
<g>
</g>
<g>
</g>
<g>
</g>
<g>
</g>
<g>
</g>
<g>
</g>
<g>
</g>
<g>
</g>
<g>
</g>
<g>
</g>
<g>
</g>
<g>
</g>
</svg>
