<?xml version="1.0" encoding="iso-8859-1"?>
<!-- Generator: Adobe Illustrator 19.0.0, SVG Export Plug-In . SVG Version: 6.00 Build 0)  -->
<svg version="1.1" id="Layer_1" xmlns="http://www.w3.org/2000/svg" xmlns:xlink="http://www.w3.org/1999/xlink" x="0px" y="0px"
	 viewBox="0 0 512 512" style="enable-background:new 0 0 512 512;" xml:space="preserve">
<g>
	<g>
		<path d="M505.752,36.418c8.331-8.331,8.331-21.839,0-30.17c-8.331-8.331-21.839-8.331-30.17,0l-54.287,54.287
			C376.693,22.78,319.011,0,256,0c-38.611,0-76.039,8.696-110.235,25.088C130.316,9.591,108.947,0,85.333,0
			C38.202,0,0,38.202,0,85.333c0,23.613,9.591,44.983,25.088,60.432C8.696,179.961,0,217.389,0,256c0,141.382,114.618,256,256,256
			s256-114.618,256-256c0-63.011-22.78-120.693-60.536-165.295L505.752,36.418z M85.333,42.667c14.58,0,27.444,7.315,35.139,18.47
			c0.342,0.743,0.725,1.475,1.16,2.19c3.625,5.962,5.754,12.378,6.251,19c0.006,0.081,0.013,0.16,0.018,0.241
			c0.063,0.918,0.099,1.84,0.099,2.765C128,108.901,108.901,128,85.333,128c-0.925,0-1.847-0.035-2.765-0.099
			c-0.081-0.005-0.16-0.013-0.241-0.018c-6.622-0.497-13.038-2.626-19-6.251c-0.716-0.435-1.448-0.818-2.19-1.16
			c-11.156-7.696-18.47-20.559-18.47-35.139C42.667,61.766,61.766,42.667,85.333,42.667z M469.333,256
			c0,117.818-95.515,213.333-213.333,213.333S42.667,373.818,42.667,256c0-30.945,6.694-60.952,19.379-88.576
			c5.201,1.472,10.601,2.464,16.155,2.923c0.64,0.055,1.282,0.106,1.925,0.146c0.485,0.029,0.97,0.057,1.457,0.078
			c1.247,0.056,2.496,0.095,3.751,0.095c47.131,0,85.333-38.202,85.333-85.333c0-1.255-0.039-2.504-0.095-3.751
			c-0.021-0.487-0.049-0.972-0.078-1.457c-0.04-0.643-0.091-1.284-0.146-1.925c-0.46-5.554-1.451-10.954-2.923-16.155
			C195.048,49.361,225.055,42.667,256,42.667c51.226,0,98.23,18.063,135.006,48.158l-60.843,60.843
			C309.238,136.766,283.641,128,256,128c-70.683,0-128,57.317-128,128c0,46.535,25.077,88.418,64.156,110.922
			c2.191,33.368,29.92,59.745,63.844,59.745s61.653-26.377,63.844-59.745C358.923,344.418,384,302.535,384,256
			c0-27.641-8.766-53.238-23.668-74.162l60.843-60.843C451.271,157.77,469.333,204.774,469.333,256z M341.333,256
			c0,27.442-13.072,52.46-34.132,68.26c-0.063-0.084-0.131-0.164-0.194-0.247c-0.412-0.542-0.833-1.077-1.261-1.605
			c-0.219-0.27-0.438-0.539-0.661-0.806c-0.473-0.565-0.955-1.123-1.447-1.67c-0.246-0.274-0.497-0.542-0.747-0.811
			c-0.354-0.381-0.713-0.757-1.076-1.129c-0.385-0.395-0.776-0.785-1.172-1.17c-0.352-0.342-0.706-0.681-1.065-1.015
			c-0.319-0.296-0.638-0.591-0.963-0.881c-0.489-0.436-0.984-0.866-1.486-1.287c-0.365-0.307-0.737-0.606-1.109-0.905
			c-0.266-0.213-0.534-0.422-0.803-0.631c-0.64-0.497-1.29-0.982-1.949-1.455c-0.228-0.163-0.456-0.327-0.686-0.488
			c-1.376-0.96-2.79-1.866-4.241-2.718c-0.171-0.101-0.345-0.198-0.517-0.297c-0.828-0.476-1.668-0.933-2.519-1.372
			c-0.187-0.097-0.374-0.193-0.563-0.288c-0.941-0.474-1.894-0.925-2.861-1.352c-0.089-0.039-0.177-0.081-0.266-0.12
			c-0.503-0.22-1.011-0.432-1.521-0.64c-0.245-0.1-0.493-0.195-0.74-0.292c-0.785-0.308-1.577-0.602-2.377-0.879
			c-0.33-0.115-0.661-0.227-0.994-0.336c-0.606-0.199-1.214-0.389-1.828-0.57c-0.507-0.15-1.015-0.296-1.526-0.433
			c-0.408-0.109-0.816-0.215-1.227-0.317c-0.721-0.179-1.445-0.348-2.175-0.502c-0.322-0.068-0.647-0.128-0.971-0.19
			c-0.652-0.127-1.308-0.244-1.967-0.351c-0.242-0.039-0.481-0.083-0.724-0.12c-0.863-0.13-1.733-0.236-2.607-0.331
			c-0.243-0.026-0.486-0.053-0.729-0.077c-0.903-0.088-1.81-0.157-2.723-0.207c-0.183-0.01-0.367-0.016-0.55-0.025
			c-0.981-0.045-1.966-0.075-2.957-0.075s-1.976,0.03-2.957,0.075c-0.184,0.008-0.367,0.015-0.55,0.025
			c-0.912,0.05-1.82,0.119-2.723,0.207c-0.244,0.024-0.486,0.05-0.729,0.077c-0.873,0.095-1.743,0.201-2.607,0.331
			c-0.242,0.036-0.482,0.081-0.724,0.12c-0.659,0.107-1.314,0.224-1.967,0.351c-0.324,0.063-0.649,0.123-0.971,0.19
			c-0.73,0.154-1.454,0.323-2.175,0.502c-0.411,0.102-0.82,0.207-1.227,0.317c-0.511,0.138-1.02,0.283-1.526,0.433
			c-0.613,0.181-1.222,0.372-1.828,0.57c-0.333,0.109-0.664,0.222-0.994,0.336c-0.8,0.277-1.592,0.571-2.377,0.879
			c-0.247,0.097-0.495,0.192-0.74,0.292c-0.51,0.207-1.017,0.42-1.521,0.64c-0.089,0.039-0.177,0.081-0.266,0.12
			c-0.967,0.428-1.92,0.879-2.861,1.352c-0.188,0.095-0.375,0.192-0.563,0.288c-0.851,0.439-1.69,0.897-2.519,1.372
			c-0.172,0.099-0.346,0.197-0.517,0.297c-1.452,0.852-2.866,1.758-4.241,2.718c-0.23,0.161-0.458,0.324-0.686,0.488
			c-0.659,0.473-1.309,0.958-1.949,1.455c-0.269,0.209-0.538,0.418-0.803,0.631c-0.372,0.299-0.744,0.598-1.109,0.905
			c-0.502,0.421-0.997,0.851-1.486,1.287c-0.325,0.29-0.644,0.585-0.963,0.881c-0.359,0.334-0.713,0.673-1.065,1.015
			c-0.396,0.385-0.786,0.775-1.172,1.17c-0.363,0.372-0.722,0.748-1.076,1.129c-0.25,0.269-0.501,0.537-0.747,0.811
			c-0.492,0.548-0.974,1.105-1.447,1.67c-0.223,0.266-0.442,0.536-0.661,0.806c-0.428,0.528-0.849,1.063-1.261,1.605
			c-0.063,0.084-0.131,0.163-0.194,0.247c-21.06-15.8-34.132-40.818-34.132-68.26c0-47.119,38.214-85.333,85.333-85.333
			c15.821,0,30.628,4.324,43.332,11.831l-58.417,58.417c-8.331,8.331-8.331,21.839,0,30.17s21.839,8.331,30.17,0l58.417-58.417
			C337.009,225.372,341.333,240.179,341.333,256z M235.601,356.415c0.054-0.175,0.121-0.344,0.179-0.517
			c0.15-0.45,0.308-0.896,0.487-1.333c0.095-0.23,0.201-0.453,0.303-0.679c0.165-0.364,0.335-0.726,0.519-1.079
			c0.131-0.249,0.268-0.494,0.408-0.737c0.178-0.311,0.364-0.617,0.557-0.918c0.166-0.258,0.335-0.513,0.512-0.763
			c0.186-0.263,0.381-0.519,0.579-0.774c0.205-0.263,0.409-0.527,0.625-0.781c0.18-0.211,0.372-0.412,0.56-0.616
			c0.253-0.273,0.502-0.55,0.769-0.81c0.126-0.123,0.261-0.234,0.39-0.354c1.102-1.023,2.31-1.93,3.605-2.702
			c0.142-0.085,0.28-0.176,0.425-0.258c0.364-0.206,0.741-0.392,1.118-0.577c0.204-0.1,0.407-0.202,0.615-0.296
			c0.354-0.16,0.716-0.305,1.08-0.446c0.252-0.097,0.505-0.191,0.761-0.278c0.341-0.117,0.685-0.226,1.033-0.326
			c0.306-0.087,0.616-0.164,0.928-0.238c0.316-0.076,0.632-0.151,0.953-0.213c0.39-0.074,0.786-0.128,1.184-0.18
			c0.259-0.034,0.515-0.078,0.776-0.103c0.67-0.063,1.348-0.103,2.035-0.103s1.364,0.039,2.035,0.103
			c0.261,0.025,0.517,0.069,0.776,0.103c0.397,0.052,0.794,0.107,1.184,0.18c0.321,0.061,0.637,0.137,0.953,0.213
			c0.312,0.074,0.622,0.151,0.928,0.238c0.348,0.1,0.692,0.209,1.033,0.326c0.256,0.088,0.51,0.181,0.761,0.278
			c0.364,0.141,0.725,0.286,1.08,0.446c0.208,0.094,0.41,0.196,0.615,0.296c0.377,0.185,0.753,0.371,1.118,0.577
			c0.145,0.082,0.283,0.173,0.425,0.258c1.296,0.773,2.503,1.679,3.605,2.702c0.129,0.12,0.264,0.231,0.39,0.354
			c0.266,0.26,0.516,0.537,0.769,0.81c0.188,0.204,0.38,0.405,0.56,0.616c0.216,0.253,0.421,0.517,0.625,0.781
			c0.197,0.255,0.393,0.51,0.579,0.774c0.177,0.25,0.346,0.505,0.512,0.763c0.193,0.301,0.379,0.607,0.557,0.918
			c0.14,0.243,0.278,0.488,0.408,0.737c0.184,0.353,0.355,0.714,0.519,1.079c0.102,0.226,0.208,0.449,0.303,0.679
			c0.179,0.436,0.337,0.883,0.487,1.333c0.058,0.173,0.125,0.342,0.179,0.517c0.604,1.977,0.934,4.075,0.934,6.252
			c0,11.791-9.542,21.333-21.333,21.333s-21.333-9.542-21.333-21.333C234.667,360.49,234.996,358.392,235.601,356.415z"/>
	</g>
</g>
<g>
</g>
<g>
</g>
<g>
</g>
<g>
</g>
<g>
</g>
<g>
</g>
<g>
</g>
<g>
</g>
<g>
</g>
<g>
</g>
<g>
</g>
<g>
</g>
<g>
</g>
<g>
</g>
<g>
</g>
</svg>
