<?xml version="1.0" encoding="iso-8859-1"?>
<!-- Generator: Adobe Illustrator 19.0.0, SVG Export Plug-In . SVG Version: 6.00 Build 0)  -->
<svg version="1.1" id="Layer_1" xmlns="http://www.w3.org/2000/svg" xmlns:xlink="http://www.w3.org/1999/xlink" x="0px" y="0px"
	 viewBox="0 0 512 512" style="enable-background:new 0 0 512 512;" xml:space="preserve">
<g>
	<g>
		<path d="M267.307,511.738c1.426-0.062,2.849-0.138,4.269-0.223c0.092-0.006,0.185-0.012,0.277-0.018
			c128.751-7.869,231.774-110.893,239.644-239.644c0.006-0.092,0.012-0.185,0.018-0.277c0.085-1.42,0.161-2.843,0.223-4.269
			c0.039-0.866,0.069-1.733,0.099-2.6c0.032-0.948,0.068-1.894,0.089-2.844c0.046-1.952,0.074-3.906,0.074-5.863
			s-0.029-3.911-0.074-5.863c-0.021-0.95-0.057-1.896-0.089-2.844c-0.03-0.867-0.06-1.734-0.099-2.6
			c-0.062-1.426-0.138-2.849-0.223-4.269c-0.006-0.092-0.012-0.185-0.018-0.277C503.628,111.396,400.604,8.372,271.854,0.503
			c-0.092-0.006-0.185-0.012-0.277-0.018c-1.42-0.085-2.843-0.161-4.269-0.223c-0.866-0.039-1.733-0.069-2.6-0.099
			c-0.948-0.032-1.894-0.068-2.844-0.089C259.911,0.029,257.957,0,256,0s-3.911,0.029-5.863,0.074
			c-0.95,0.021-1.896,0.057-2.844,0.089c-0.867,0.03-1.734,0.06-2.6,0.099c-1.426,0.062-2.849,0.138-4.269,0.223
			c-0.092,0.006-0.185,0.012-0.277,0.018C111.396,8.372,8.372,111.396,0.503,240.146c-0.006,0.092-0.012,0.185-0.018,0.277
			c-0.085,1.42-0.161,2.843-0.223,4.269c-0.039,0.866-0.069,1.733-0.099,2.6c-0.032,0.948-0.068,1.894-0.089,2.844
			C0.029,252.089,0,254.043,0,256s0.029,3.911,0.074,5.863c0.021,0.95,0.057,1.896,0.089,2.844c0.03,0.867,0.06,1.734,0.099,2.6
			c0.062,1.426,0.138,2.849,0.223,4.269c0.006,0.092,0.012,0.185,0.018,0.277c7.869,128.751,110.893,231.774,239.644,239.644
			c0.092,0.006,0.185,0.012,0.277,0.018c1.42,0.085,2.843,0.161,4.269,0.223c0.866,0.039,1.733,0.069,2.6,0.099
			c0.948,0.032,1.894,0.068,2.844,0.089c1.952,0.046,3.906,0.074,5.863,0.074s3.911-0.029,5.863-0.074
			c0.95-0.021,1.896-0.057,2.844-0.089C265.574,511.806,266.441,511.777,267.307,511.738z M262.194,469.238
			c-2.062,0.061-4.126,0.096-6.194,0.096s-4.132-0.034-6.194-0.096c-0.299-0.009-0.597-0.024-0.896-0.034
			c-14.778-0.504-29.405-2.571-43.777-6.147l22.981-126.409c4.384,1.516,8.927,2.684,13.603,3.472
			c0.021,0.004,0.041,0.008,0.062,0.011c0.945,0.159,1.897,0.298,2.852,0.426c0.44,0.06,0.881,0.115,1.323,0.168
			c0.741,0.087,1.483,0.169,2.23,0.237c0.725,0.067,1.454,0.118,2.183,0.166c0.548,0.036,1.093,0.079,1.644,0.105
			c1.325,0.062,2.655,0.101,3.99,0.101s2.665-0.039,3.99-0.101c0.551-0.025,1.096-0.069,1.644-0.105
			c0.729-0.048,1.458-0.099,2.183-0.166c0.747-0.068,1.489-0.15,2.23-0.237c0.442-0.053,0.883-0.108,1.323-0.168
			c0.956-0.127,1.907-0.267,2.852-0.426c0.021-0.004,0.041-0.008,0.062-0.011c4.675-0.788,9.219-1.957,13.603-3.472l22.981,126.409
			c-14.372,3.576-28.999,5.643-43.777,6.147C262.791,469.213,262.493,469.229,262.194,469.238z M42.797,263.09
			c-0.01-0.299-0.026-0.597-0.034-0.896c-0.061-2.062-0.096-4.126-0.096-6.194s0.034-4.132,0.096-6.194
			c0.009-0.299,0.024-0.597,0.034-0.896c0.504-14.778,2.571-29.405,6.147-43.777l126.409,22.981
			c-1.516,4.384-2.684,8.927-3.472,13.603c-0.004,0.021-0.008,0.041-0.011,0.062c-0.159,0.945-0.298,1.897-0.426,2.852
			c-0.06,0.44-0.115,0.881-0.168,1.323c-0.087,0.741-0.169,1.483-0.237,2.23c-0.067,0.725-0.118,1.454-0.166,2.183
			c-0.036,0.548-0.079,1.093-0.105,1.644c-0.062,1.325-0.101,2.655-0.101,3.99s0.039,2.665,0.101,3.99
			c0.025,0.551,0.069,1.096,0.105,1.644c0.048,0.729,0.099,1.458,0.166,2.183c0.068,0.747,0.15,1.489,0.237,2.23
			c0.053,0.442,0.108,0.883,0.168,1.323c0.127,0.956,0.267,1.907,0.426,2.852c0.004,0.021,0.008,0.041,0.011,0.062
			c0.788,4.675,1.957,9.219,3.472,13.603L48.943,306.867C45.367,292.495,43.3,277.868,42.797,263.09z M205.133,48.943
			c14.372-3.576,28.999-5.643,43.777-6.147c0.299-0.01,0.597-0.026,0.896-0.034c2.062-0.061,4.126-0.096,6.194-0.096
			s4.132,0.034,6.194,0.096c0.299,0.009,0.597,0.024,0.896,0.034c14.778,0.504,29.405,2.571,43.777,6.147l-22.981,126.409
			c-4.384-1.516-8.927-2.684-13.603-3.472c-0.021-0.004-0.041-0.008-0.062-0.011c-0.945-0.159-1.897-0.298-2.852-0.426
			c-0.44-0.06-0.881-0.115-1.323-0.168c-0.741-0.087-1.483-0.169-2.23-0.237c-0.725-0.067-1.454-0.118-2.183-0.166
			c-0.548-0.036-1.093-0.079-1.644-0.105c-1.325-0.062-2.655-0.101-3.99-0.101s-2.665,0.039-3.99,0.101
			c-0.551,0.025-1.096,0.069-1.644,0.105c-0.729,0.048-1.458,0.099-2.183,0.166c-0.747,0.068-1.489,0.15-2.23,0.237
			c-0.442,0.053-0.883,0.108-1.323,0.168c-0.956,0.127-1.907,0.267-2.852,0.426c-0.021,0.004-0.041,0.008-0.062,0.011
			c-4.675,0.788-9.219,1.957-13.603,3.472L205.133,48.943z M469.203,248.91c0.01,0.299,0.026,0.597,0.034,0.896
			c0.061,2.062,0.096,4.126,0.096,6.194s-0.034,4.132-0.096,6.194c-0.009,0.299-0.024,0.597-0.034,0.896
			c-0.504,14.778-2.571,29.405-6.147,43.777l-126.409-22.981c1.516-4.385,2.685-8.93,3.473-13.607
			c0.003-0.018,0.007-0.037,0.01-0.055c0.159-0.946,0.299-1.898,0.426-2.855c0.06-0.44,0.115-0.881,0.168-1.322
			c0.087-0.741,0.169-1.483,0.237-2.23c0.067-0.725,0.117-1.454,0.166-2.183c0.036-0.548,0.079-1.093,0.105-1.644
			c0.062-1.325,0.101-2.655,0.101-3.99s-0.039-2.665-0.101-3.99c-0.025-0.551-0.069-1.096-0.105-1.644
			c-0.049-0.729-0.099-1.458-0.166-2.183c-0.068-0.747-0.15-1.489-0.237-2.23c-0.053-0.442-0.108-0.882-0.168-1.322
			c-0.127-0.957-0.267-1.909-0.426-2.855c-0.003-0.018-0.007-0.037-0.01-0.055c-0.788-4.677-1.957-9.222-3.473-13.607
			l126.409-22.981C466.633,219.505,468.7,234.132,469.203,248.91z M259.537,298.509c-0.486,0.041-0.972,0.081-1.461,0.105
			c-0.688,0.033-1.379,0.052-2.075,0.052s-1.388-0.019-2.075-0.052c-0.489-0.024-0.975-0.064-1.461-0.105
			c-0.174-0.014-0.349-0.023-0.523-0.04c-9.265-0.9-17.889-4.864-24.834-11.315c-0.396-0.368-0.801-0.716-1.213-1.047
			c-0.331-0.412-0.679-0.817-1.047-1.213c-6.451-6.945-10.416-15.569-11.315-24.834c-0.016-0.173-0.025-0.349-0.04-0.523
			c-0.041-0.486-0.081-0.972-0.105-1.461c-0.033-0.688-0.052-1.379-0.052-2.075s0.019-1.388,0.052-2.075
			c0.024-0.489,0.064-0.975,0.105-1.461c0.014-0.174,0.023-0.349,0.04-0.523c0.9-9.265,4.864-17.889,11.315-24.834
			c0.368-0.396,0.716-0.801,1.047-1.213c0.412-0.331,0.817-0.679,1.213-1.047c6.945-6.451,15.569-10.416,24.834-11.315
			c0.173-0.016,0.349-0.025,0.523-0.04c0.486-0.041,0.972-0.081,1.461-0.105c0.688-0.033,1.379-0.052,2.075-0.052
			s1.388,0.019,2.075,0.052c0.489,0.024,0.975,0.064,1.461,0.105c0.174,0.014,0.349,0.023,0.523,0.04
			c9.265,0.9,17.889,4.864,24.834,11.315c0.396,0.368,0.801,0.716,1.213,1.047c0.331,0.412,0.679,0.817,1.047,1.213
			c6.451,6.945,10.416,15.569,11.315,24.834c0.016,0.173,0.025,0.349,0.04,0.523c0.041,0.486,0.081,0.972,0.105,1.461
			c0.033,0.688,0.052,1.379,0.052,2.075s-0.019,1.388-0.052,2.075c-0.024,0.489-0.064,0.975-0.105,1.461
			c-0.014,0.174-0.023,0.349-0.04,0.523c-0.9,9.265-4.864,17.889-11.315,24.834c-0.368,0.396-0.716,0.801-1.047,1.213
			c-0.412,0.331-0.817,0.679-1.213,1.047c-6.945,6.451-15.569,10.416-24.834,11.315
			C259.886,298.486,259.711,298.495,259.537,298.509z M347.623,448.7l-22.458-123.534L448.7,347.623
			C427.643,391.828,391.828,427.643,347.623,448.7z M448.7,164.377l-123.534,22.458l22.458-123.534
			C391.828,84.357,427.643,120.172,448.7,164.377z M164.377,63.301l22.458,123.534L63.301,164.377
			C84.357,120.172,120.172,84.357,164.377,63.301z M63.301,347.623l123.534-22.458L164.377,448.7
			C120.172,427.643,84.357,391.828,63.301,347.623z"/>
	</g>
</g>
<g>
</g>
<g>
</g>
<g>
</g>
<g>
</g>
<g>
</g>
<g>
</g>
<g>
</g>
<g>
</g>
<g>
</g>
<g>
</g>
<g>
</g>
<g>
</g>
<g>
</g>
<g>
</g>
<g>
</g>
</svg>
