<?xml version="1.0" encoding="iso-8859-1"?>
<!-- Generator: Adobe Illustrator 19.0.0, SVG Export Plug-In . SVG Version: 6.00 Build 0)  -->
<svg version="1.1" id="Layer_1" xmlns="http://www.w3.org/2000/svg" xmlns:xlink="http://www.w3.org/1999/xlink" x="0px" y="0px"
	 viewBox="0 0 512 512" style="enable-background:new 0 0 512 512;" xml:space="preserve">
<g>
	<g>
		<path d="M447.979,117.337h-21.312v-0.006c0-11.782-9.551-21.333-21.333-21.333c-11.782,0-21.333,9.551-21.333,21.333v0.006
			h-21.333V95.89c0-35.291-28.602-63.893-63.893-63.893h-85.547c-35.291,0-63.893,28.602-63.893,63.893v21.446H128v-0.006
			c0-11.782-9.551-21.333-21.333-21.333c-11.782,0-21.333,9.551-21.333,21.333v0.006H64.021C28.666,117.337,0,146.002,0,181.358
			v234.603c0,35.372,28.661,64.043,64.021,64.043h383.957c35.36,0,64.021-28.671,64.021-64.043V181.358
			C512,146.002,483.334,117.337,447.979,117.337z M192,95.89c0-11.727,9.499-21.227,21.227-21.227h85.547
			c11.727,0,21.227,9.499,21.227,21.227v21.44H192V95.89z M384,160.003v277.333H128V160.003H384z M42.667,415.961V181.358
			c0-11.791,9.563-21.355,21.355-21.355h21.312v277.333H64.021C52.228,437.337,42.667,427.771,42.667,415.961z M469.333,415.961
			c0,11.811-9.562,21.376-21.355,21.376h-21.312V160.003h21.312c11.791,0,21.355,9.563,21.355,21.355V415.961z"/>
	</g>
</g>
<g>
</g>
<g>
</g>
<g>
</g>
<g>
</g>
<g>
</g>
<g>
</g>
<g>
</g>
<g>
</g>
<g>
</g>
<g>
</g>
<g>
</g>
<g>
</g>
<g>
</g>
<g>
</g>
<g>
</g>
</svg>
