<?xml version="1.0" encoding="iso-8859-1"?>
<!-- Generator: Adobe Illustrator 19.0.0, SVG Export Plug-In . SVG Version: 6.00 Build 0)  -->
<svg version="1.1" id="Layer_1" xmlns="http://www.w3.org/2000/svg" xmlns:xlink="http://www.w3.org/1999/xlink" x="0px" y="0px"
	 viewBox="0 0 512 512" style="enable-background:new 0 0 512 512;" xml:space="preserve">
<g>
	<g>
		<g>
			<path d="M490.667,53.333H448V32c0-11.782-9.551-21.333-21.333-21.333h-85.333C329.551,10.667,320,20.218,320,32v21.333H192V32
				c0-11.782-9.551-21.333-21.333-21.333H85.333C73.551,10.667,64,20.218,64,32v21.333H21.333C9.551,53.333,0,62.885,0,74.667
				v106.667V480c0,11.782,9.551,21.333,21.333,21.333h469.333c11.782,0,21.333-9.551,21.333-21.333V181.333V74.667
				C512,62.885,502.449,53.333,490.667,53.333z M362.667,53.333h42.667v21.333V96h-42.667V74.667V53.333z M106.667,53.333h42.667
				v21.333V96h-42.667V74.667V53.333z M42.667,96H64v21.333c0,11.782,9.551,21.333,21.333,21.333h85.333
				c11.782,0,21.333-9.551,21.333-21.333V96h128v21.333c0,11.782,9.551,21.333,21.333,21.333h85.333
				c11.782,0,21.333-9.551,21.333-21.333V96h21.333v64H42.667V96z M42.667,458.667v-256h426.667v256H42.667z"/>
			<path d="M384,224h-85.333h-85.333H128c-11.782,0-21.333,9.551-21.333,21.333v85.333V416c0,11.782,9.551,21.333,21.333,21.333
				h85.333h85.333H384c11.782,0,21.333-9.551,21.333-21.333v-85.333v-85.333C405.333,233.551,395.782,224,384,224z M362.667,309.333
				H320v-42.667h42.667V309.333z M277.333,309.333h-42.667v-42.667h42.667V309.333z M149.333,266.667H192v42.667h-42.667V266.667z
				 M149.333,352H192v42.667h-42.667V352z M234.667,352h42.667v42.667h-42.667V352z M362.667,394.667H320V352h42.667V394.667z"/>
		</g>
	</g>
</g>
<g>
</g>
<g>
</g>
<g>
</g>
<g>
</g>
<g>
</g>
<g>
</g>
<g>
</g>
<g>
</g>
<g>
</g>
<g>
</g>
<g>
</g>
<g>
</g>
<g>
</g>
<g>
</g>
<g>
</g>
</svg>
