<?xml version="1.0" encoding="iso-8859-1"?>
<!-- Generator: Adobe Illustrator 19.0.0, SVG Export Plug-In . SVG Version: 6.00 Build 0)  -->
<svg version="1.1" id="Layer_1" xmlns="http://www.w3.org/2000/svg" xmlns:xlink="http://www.w3.org/1999/xlink" x="0px" y="0px"
	 viewBox="0 0 512 512" style="enable-background:new 0 0 512 512;" xml:space="preserve">
<g>
	<g>
		<path d="M263.843,511.869c1.227-0.037,2.453-0.085,3.677-0.14c1.257-0.056,2.511-0.123,3.764-0.197
			c0.543-0.032,1.086-0.068,1.629-0.103c2.174-0.142,4.34-0.311,6.499-0.506c0.183-0.017,0.366-0.032,0.549-0.049
			c38.279-3.554,74.108-15.533,105.624-34.07c0.276-0.162,0.552-0.326,0.828-0.489c1.727-1.025,3.441-2.069,5.141-3.132
			c0.381-0.238,0.764-0.474,1.144-0.714c0.878-0.555,1.751-1.116,2.622-1.682c0.617-0.401,1.23-0.808,1.844-1.214
			c1.209-0.801,2.411-1.61,3.605-2.431c0.715-0.491,1.428-0.984,2.138-1.482c0.7-0.491,1.4-0.983,2.094-1.481
			c1.171-0.839,2.335-1.687,3.491-2.546c0.626-0.465,1.247-0.937,1.868-1.407c0.816-0.617,1.627-1.24,2.436-1.867
			c0.68-0.528,1.36-1.056,2.035-1.59c1.049-0.831,2.092-1.672,3.128-2.52c0.616-0.504,1.228-1.011,1.839-1.52
			c0.838-0.698,1.67-1.404,2.499-2.113c0.875-0.749,1.744-1.504,2.609-2.264c0.68-0.598,1.358-1.197,2.031-1.803
			c0.676-0.607,1.35-1.214,2.02-1.828c0.704-0.646,1.401-1.299,2.099-1.954c1.043-0.978,2.077-1.964,3.104-2.959
			c0.381-0.369,0.76-0.74,1.138-1.111C482.628,392.244,512,327.556,512,256C512,114.618,397.382,0,256,0S0,114.618,0,256
			c0,71.769,29.548,136.628,77.126,183.112c0.107,0.104,0.213,0.208,0.32,0.312c2.575,2.507,5.201,4.961,7.879,7.359
			c0.428,0.384,0.859,0.764,1.29,1.145c1.218,1.075,2.445,2.139,3.683,3.192c0.573,0.487,1.146,0.975,1.723,1.457
			c0.722,0.603,1.446,1.202,2.174,1.797c0.753,0.615,1.511,1.222,2.27,1.828c0.986,0.786,1.977,1.566,2.974,2.338
			c0.679,0.526,1.36,1.049,2.045,1.568c0.701,0.531,1.401,1.063,2.108,1.588c1.108,0.822,2.223,1.635,3.344,2.439
			c0.744,0.534,1.494,1.061,2.244,1.587c0.644,0.452,1.291,0.899,1.94,1.345c1.268,0.872,2.544,1.732,3.828,2.581
			c0.571,0.378,1.141,0.756,1.715,1.129c0.878,0.571,1.76,1.137,2.646,1.698c0.381,0.241,0.766,0.478,1.148,0.717
			c1.68,1.051,3.373,2.083,5.079,3.095c0.309,0.183,0.618,0.366,0.927,0.548c31.477,18.504,67.253,30.468,105.474,34.032
			c0.306,0.029,0.613,0.054,0.92,0.082c2.023,0.181,4.052,0.339,6.088,0.473c0.615,0.041,1.23,0.081,1.846,0.117
			c1.072,0.063,2.145,0.124,3.221,0.174c1.386,0.064,2.774,0.116,4.164,0.158c0.978,0.029,1.958,0.05,2.938,0.068
			c0.914,0.017,1.828,0.027,2.744,0.035c0.715,0.006,1.425,0.027,2.141,0.027c0.723,0,1.44-0.021,2.161-0.027
			c0.899-0.008,1.798-0.017,2.696-0.034C261.854,511.92,262.849,511.899,263.843,511.869z M397.554,415.586
			c-1.231,1.093-2.474,2.17-3.728,3.234c-0.305,0.259-0.61,0.518-0.917,0.775c-1.276,1.07-2.565,2.123-3.865,3.161
			c-0.229,0.183-0.456,0.37-0.686,0.552c-3.105,2.46-6.275,4.832-9.508,7.112c-0.229,0.161-0.461,0.318-0.69,0.479
			c-1.367,0.956-2.744,1.897-4.132,2.821c-0.344,0.229-0.691,0.455-1.036,0.682c-1.339,0.879-2.687,1.744-4.045,2.593
			c-0.301,0.188-0.602,0.378-0.904,0.565c-1.573,0.972-3.157,1.927-4.755,2.858c-0.061,0.035-0.121,0.072-0.181,0.107
			c-26.534,15.423-56.431,25.118-87.897,27.938c-0.083,0.007-0.166,0.015-0.249,0.022c-1.996,0.177-3.999,0.324-6.007,0.445
			c-0.101,0.006-0.201,0.013-0.302,0.019c-4.195,0.247-8.415,0.373-12.656,0.373c-4.227,0-8.432-0.126-12.613-0.371
			c-0.14-0.008-0.28-0.018-0.42-0.027c-1.958-0.119-3.91-0.263-5.856-0.434c-0.133-0.012-0.265-0.023-0.398-0.035
			c-31.428-2.828-61.286-12.513-87.79-27.917c-0.087-0.051-0.173-0.103-0.26-0.154c-1.575-0.919-3.138-1.86-4.689-2.819
			c-0.306-0.189-0.61-0.381-0.915-0.571c-1.365-0.853-2.72-1.723-4.066-2.607c-0.33-0.217-0.66-0.432-0.988-0.651
			c-1.43-0.951-2.848-1.919-4.254-2.905c-0.185-0.129-0.371-0.255-0.555-0.385c-3.271-2.307-6.48-4.707-9.62-7.199
			c-0.129-0.102-0.255-0.206-0.383-0.309c-1.419-1.131-2.825-2.281-4.216-3.449c-0.208-0.175-0.415-0.351-0.622-0.526
			c-1.385-1.172-2.758-2.361-4.114-3.569c-0.109-0.097-0.219-0.193-0.327-0.291c-10.7-9.572-20.491-20.267-29.188-31.973
			c7.39-36.712,40.009-63.143,79.756-63.143h18.679l57.762,57.762c8.331,8.331,21.839,8.331,30.17,0l57.762-57.762h18.688
			c39.747,0,72.366,26.431,79.756,63.143c-8.659,11.654-18.404,22.304-29.05,31.843C398.013,415.18,397.783,415.382,397.554,415.586
			z M341.365,100.333c-14.386,10.478-37.221,10.355-74.383-12.018c-25.88-15.582-49.29-23.255-69.89-24.296
			c16.004-13.367,36.618-21.396,59.107-21.342c3.716,0.017,7.096,0.214,10.471,0.592C300.342,47.025,328.999,69.782,341.365,100.333
			z M165.672,117.361c0.653-0.777,2.198-2.351,4.643-4.12c14.702-10.636,37.7-10.626,74.66,11.628
			c41.292,24.859,76.166,29.787,103.293,19.734c-0.99,46.923-21.969,94.813-49.62,105.197
			c-12.642,4.764-21.321,16.651-21.321,30.403v5.205c0,6.961,2.19,13.909,6.028,19.734L256,332.497l-27.357-27.357
			c3.832-5.825,6.017-12.772,6.017-19.732v-5.141c0-13.311-8.093-25.549-20.81-30.278c-27.703-10.247-49.804-64.313-49.804-115.364
			C164.047,128.722,164.609,122.953,165.672,117.361z M469.333,256c0,28.218-5.491,55.149-15.443,79.803
			c-21.701-35.471-61.253-58.48-106.355-58.48h-11.95c40.123-31.172,61.219-99.34,54.038-159.253
			c-1.491-12.429-4.722-24.359-9.437-35.539C434.162,121.241,469.333,184.512,469.333,256z M131.851,82.503
			c-6.744,16.031-10.471,33.639-10.471,52.121c0,56.077,20.198,114.577,55.497,142.699h-12.404
			c-45.106,0-84.66,23.012-106.36,58.488c-9.954-24.656-15.447-51.59-15.447-79.811C42.667,184.495,77.854,121.212,131.851,82.503z"
			/>
	</g>
</g>
<g>
</g>
<g>
</g>
<g>
</g>
<g>
</g>
<g>
</g>
<g>
</g>
<g>
</g>
<g>
</g>
<g>
</g>
<g>
</g>
<g>
</g>
<g>
</g>
<g>
</g>
<g>
</g>
<g>
</g>
</svg>
