<?xml version="1.0" encoding="iso-8859-1"?>
<!-- Generator: Adobe Illustrator 19.0.0, SVG Export Plug-In . SVG Version: 6.00 Build 0)  -->
<svg version="1.1" id="Layer_1" xmlns="http://www.w3.org/2000/svg" xmlns:xlink="http://www.w3.org/1999/xlink" x="0px" y="0px"
	 viewBox="0 0 512 512" style="enable-background:new 0 0 512 512;" xml:space="preserve">
<g>
	<g>
		<g>
			<path d="M362.673,0H149.318c-23.561,0-42.645,19.111-42.645,42.667v42.54c0,0.043-0.006,0.084-0.006,0.127
				s0.006,0.084,0.006,0.127v277.08c0,0.043-0.006,0.084-0.006,0.127s0.006,0.084,0.006,0.127v106.54
				c0,23.556,19.085,42.667,42.645,42.667h213.355c23.558,0,42.667-19.109,42.667-42.667V42.667C405.34,19.109,386.231,0,362.673,0z
				 M149.34,106.667h213.333v234.667H149.34V106.667z M362.673,42.667V64H149.34V42.667H362.673z M149.34,469.333V384h213.333
				v85.333H149.34z"/>
			<path d="M256,405.333c-11.776,0-21.333,9.557-21.333,21.333S244.224,448,256,448s21.333-9.557,21.333-21.333
				S267.776,405.333,256,405.333z"/>
			<path d="M480.711,40.851c-8.331-8.331-21.839-8.331-30.17,0s-8.331,21.839,0,30.17c25.056,25.055,25.056,65.884,0,90.939
				c-8.331,8.331-8.331,21.839,0,30.17c8.331,8.331,21.839,8.331,30.17,0C522.428,150.412,522.428,82.569,480.711,40.851z"/>
			<path d="M61.459,40.849c-8.331-8.331-21.839-8.331-30.17,0c-41.718,41.718-41.718,109.561,0,151.279
				c8.331,8.331,21.839,8.331,30.17,0c8.331-8.331,8.331-21.839,0-30.17c-25.055-25.055-25.055-65.884,0-90.939
				C69.791,62.688,69.791,49.18,61.459,40.849z"/>
		</g>
	</g>
</g>
<g>
</g>
<g>
</g>
<g>
</g>
<g>
</g>
<g>
</g>
<g>
</g>
<g>
</g>
<g>
</g>
<g>
</g>
<g>
</g>
<g>
</g>
<g>
</g>
<g>
</g>
<g>
</g>
<g>
</g>
</svg>
