<?xml version="1.0" encoding="iso-8859-1"?>
<!-- Generator: Adobe Illustrator 19.0.0, SVG Export Plug-In . SVG Version: 6.00 Build 0)  -->
<svg version="1.1" id="Layer_1" xmlns="http://www.w3.org/2000/svg" xmlns:xlink="http://www.w3.org/1999/xlink" x="0px" y="0px"
	 viewBox="0 0 512 512" style="enable-background:new 0 0 512 512;" xml:space="preserve">
<g>
	<g>
		<g>
			<path d="M170.667,234.667c11.776,0,21.333-9.557,21.333-21.333S182.443,192,170.667,192s-21.333,9.557-21.333,21.333
				S158.891,234.667,170.667,234.667z"/>
			<path d="M256,234.667c11.776,0,21.333-9.557,21.333-21.333S267.776,192,256,192s-21.333,9.557-21.333,21.333
				S244.224,234.667,256,234.667z"/>
			<path d="M341.333,234.667c11.776,0,21.333-9.557,21.333-21.333S353.109,192,341.333,192C329.557,192,320,201.557,320,213.333
				S329.557,234.667,341.333,234.667z"/>
			<path d="M128,298.667c11.776,0,21.333-9.557,21.333-21.333S139.776,256,128,256s-21.333,9.557-21.333,21.333
				S116.224,298.667,128,298.667z"/>
			<path d="M213.333,298.667c11.776,0,21.333-9.557,21.333-21.333S225.109,256,213.333,256S192,265.557,192,277.333
				S201.557,298.667,213.333,298.667z"/>
			<path d="M298.667,298.667c11.776,0,21.333-9.557,21.333-21.333S310.443,256,298.667,256s-21.333,9.557-21.333,21.333
				S286.891,298.667,298.667,298.667z"/>
			<path d="M384,298.667c11.776,0,21.333-9.557,21.333-21.333S395.776,256,384,256s-21.333,9.557-21.333,21.333
				S372.224,298.667,384,298.667z"/>
			<path d="M170.667,320c-11.776,0-21.333,9.557-21.333,21.333c0,11.776,9.557,21.333,21.333,21.333S192,353.109,192,341.333
				C192,329.557,182.443,320,170.667,320z"/>
			<path d="M256,320c-11.776,0-21.333,9.557-21.333,21.333c0,11.776,9.557,21.333,21.333,21.333s21.333-9.557,21.333-21.333
				C277.333,329.557,267.776,320,256,320z"/>
			<path d="M341.333,320C329.557,320,320,329.557,320,341.333c0,11.776,9.557,21.333,21.333,21.333
				c11.776,0,21.333-9.557,21.333-21.333C362.667,329.557,353.109,320,341.333,320z"/>
			<path d="M128,426.667c11.776,0,21.333-9.557,21.333-21.333S139.776,384,128,384s-21.333,9.557-21.333,21.333
				S116.224,426.667,128,426.667z"/>
			<path d="M213.333,384C201.557,384,192,393.557,192,405.333s9.557,21.333,21.333,21.333s21.333-9.557,21.333-21.333
				S225.109,384,213.333,384z"/>
			<path d="M298.667,384c-11.776,0-21.333,9.557-21.333,21.333s9.557,21.333,21.333,21.333S320,417.109,320,405.333
				S310.443,384,298.667,384z"/>
			<path d="M384,384c-11.776,0-21.333,9.557-21.333,21.333s9.557,21.333,21.333,21.333s21.333-9.557,21.333-21.333
				S395.776,384,384,384z"/>
			<path d="M448,64h-85.333c0-35.355-28.645-64-64-64h-85.333c-35.355,0-64,28.645-64,64H64C28.645,64,0,92.645,0,128v21.333
				c0,11.782,9.551,21.333,21.333,21.333h21.333v320C42.667,502.449,52.218,512,64,512h384c11.782,0,21.333-9.551,21.333-21.333
				v-320h21.333c11.782,0,21.333-9.551,21.333-21.333V128C512,92.645,483.355,64,448,64z M213.333,42.667h85.333
				C310.458,42.667,320,52.209,320,64H192C192,52.209,201.542,42.667,213.333,42.667z M426.667,469.333H85.333V170.667h341.333
				V469.333z M448,128H64H42.667c0-11.791,9.542-21.333,21.333-21.333h106.667h170.667H448c11.791,0,21.333,9.542,21.333,21.333H448
				z"/>
		</g>
	</g>
</g>
<g>
</g>
<g>
</g>
<g>
</g>
<g>
</g>
<g>
</g>
<g>
</g>
<g>
</g>
<g>
</g>
<g>
</g>
<g>
</g>
<g>
</g>
<g>
</g>
<g>
</g>
<g>
</g>
<g>
</g>
</svg>
