<?xml version="1.0" encoding="iso-8859-1"?>
<!-- Generator: Adobe Illustrator 19.0.0, SVG Export Plug-In . SVG Version: 6.00 Build 0)  -->
<svg version="1.1" id="Layer_1" xmlns="http://www.w3.org/2000/svg" xmlns:xlink="http://www.w3.org/1999/xlink" x="0px" y="0px"
	 viewBox="0 0 512 512" style="enable-background:new 0 0 512 512;" xml:space="preserve">
<g>
	<g>
		<g>
			<path d="M213.333,149.333H384c11.782,0,21.333-9.551,21.333-21.333c0-11.782-9.551-21.333-21.333-21.333H213.333
				C201.551,106.667,192,116.218,192,128C192,139.782,201.551,149.333,213.333,149.333z"/>
			<path d="M213.333,277.333H384c11.782,0,21.333-9.551,21.333-21.333s-9.551-21.333-21.333-21.333H213.333
				C201.551,234.667,192,244.218,192,256S201.551,277.333,213.333,277.333z"/>
			<path d="M213.333,405.333H384c11.782,0,21.333-9.551,21.333-21.333c0-11.782-9.551-21.333-21.333-21.333H213.333
				C201.551,362.667,192,372.218,192,384C192,395.782,201.551,405.333,213.333,405.333z"/>
			<path d="M490.667,0H21.333C9.551,0,0,9.551,0,21.333v469.333C0,502.449,9.551,512,21.333,512h469.333
				c11.782,0,21.333-9.551,21.333-21.333V21.333C512,9.551,502.449,0,490.667,0z M469.333,469.333H42.667V42.667h426.667V469.333z"
				/>
			<polygon points="118.891,405.329 138.667,394.94 158.443,405.329 154.667,383.313 170.667,367.718 148.565,364.497 
				138.667,344.465 128.768,364.497 106.667,367.718 122.667,383.313 			"/>
			<polygon points="118.891,277.329 138.667,266.94 158.443,277.329 154.667,255.313 170.667,239.718 148.565,236.497 
				138.667,216.465 128.768,236.497 106.667,239.718 122.667,255.313 			"/>
			<polygon points="118.891,146.197 138.667,135.808 158.443,146.197 154.667,124.181 170.667,108.587 148.565,105.365 
				138.667,85.333 128.768,105.365 106.667,108.587 122.667,124.181 			"/>
		</g>
	</g>
</g>
<g>
</g>
<g>
</g>
<g>
</g>
<g>
</g>
<g>
</g>
<g>
</g>
<g>
</g>
<g>
</g>
<g>
</g>
<g>
</g>
<g>
</g>
<g>
</g>
<g>
</g>
<g>
</g>
<g>
</g>
</svg>
