<?xml version="1.0" encoding="iso-8859-1"?>
<!-- Generator: Adobe Illustrator 19.0.0, SVG Export Plug-In . SVG Version: 6.00 Build 0)  -->
<svg version="1.1" id="Layer_1" xmlns="http://www.w3.org/2000/svg" xmlns:xlink="http://www.w3.org/1999/xlink" x="0px" y="0px"
	 viewBox="0 0 512 512" style="enable-background:new 0 0 512 512;" xml:space="preserve">
<g>
	<g>
		<g>
			<path d="M362.667,277.333c-47.131,0-85.333,38.202-85.333,85.333S315.535,448,362.667,448S448,409.798,448,362.667
				S409.798,277.333,362.667,277.333z M362.667,405.333c-23.567,0-42.667-19.099-42.667-42.667S339.099,320,362.667,320
				s42.667,19.099,42.667,42.667S386.234,405.333,362.667,405.333z"/>
			<path d="M149.333,234.667c47.131,0,85.333-38.202,85.333-85.333S196.465,64,149.333,64S64,102.202,64,149.333
				S102.202,234.667,149.333,234.667z M149.333,106.667c23.567,0,42.667,19.099,42.667,42.667S172.901,192,149.333,192
				s-42.667-19.099-42.667-42.667S125.766,106.667,149.333,106.667z"/>
			<path d="M70.248,441.752c8.331,8.331,21.839,8.331,30.17,0l341.333-341.333c8.331-8.331,8.331-21.839,0-30.17
				c-8.331-8.331-21.839-8.331-30.17,0L70.248,411.582C61.917,419.913,61.917,433.42,70.248,441.752z"/>
			<path d="M490.667,0H21.333C9.551,0,0,9.551,0,21.333v469.333C0,502.449,9.551,512,21.333,512h469.333
				c11.782,0,21.333-9.551,21.333-21.333V21.333C512,9.551,502.449,0,490.667,0z M469.333,469.333H42.667V42.667h426.667V469.333z"
				/>
		</g>
	</g>
</g>
<g>
</g>
<g>
</g>
<g>
</g>
<g>
</g>
<g>
</g>
<g>
</g>
<g>
</g>
<g>
</g>
<g>
</g>
<g>
</g>
<g>
</g>
<g>
</g>
<g>
</g>
<g>
</g>
<g>
</g>
</svg>
