<?xml version="1.0" encoding="iso-8859-1"?>
<!-- Generator: Adobe Illustrator 19.0.0, SVG Export Plug-In . SVG Version: 6.00 Build 0)  -->
<svg version="1.1" id="Layer_1" xmlns="http://www.w3.org/2000/svg" xmlns:xlink="http://www.w3.org/1999/xlink" x="0px" y="0px"
	 viewBox="0 0 512.006 512.006" style="enable-background:new 0 0 512.006 512.006;" xml:space="preserve">
<g>
	<g>
		<g>
			<path d="M505.349,233.127c-0.034-0.055-0.06-0.112-0.095-0.167c-0.058-0.091-0.124-0.176-0.183-0.266
				c-0.335-0.512-0.682-1.016-1.038-1.513c-0.151-0.212-0.298-0.427-0.452-0.635c-0.421-0.565-0.854-1.12-1.301-1.663
				c-0.361-0.44-0.737-0.863-1.114-1.287c-0.116-0.13-0.229-0.261-0.347-0.39c-0.421-0.462-0.851-0.911-1.29-1.352
				c-0.021-0.021-0.043-0.042-0.064-0.064c-3.891-3.893-8.469-6.967-13.492-9.086c-0.017-0.007-0.034-0.015-0.052-0.022
				c-0.589-0.248-1.183-0.482-1.784-0.703c-0.122-0.045-0.246-0.088-0.369-0.132c-0.572-0.205-1.146-0.404-1.728-0.584
				c-0.063-0.019-0.127-0.036-0.19-0.055c-1.051-0.32-2.118-0.597-3.197-0.836c-0.282-0.063-0.563-0.132-0.847-0.189
				c-0.433-0.087-0.869-0.159-1.306-0.233c-0.369-0.062-0.738-0.123-1.11-0.175c-0.419-0.059-0.84-0.113-1.262-0.16
				c-0.397-0.044-0.797-0.079-1.197-0.113c-0.413-0.034-0.825-0.072-1.241-0.094c-0.444-0.024-0.893-0.032-1.341-0.042
				c-0.341-0.008-0.68-0.032-1.023-0.032c-0.043,0-0.084,0.006-0.127,0.006h-42.404c-0.043,0-0.084-0.006-0.127-0.006
				s-0.084,0.006-0.127,0.006h-42.421c-0.043,0-0.084-0.006-0.127-0.006h-21.333c-0.043,0-0.084,0.006-0.127,0.006h-85.079
				c-0.043,0-0.084-0.006-0.127-0.006h-21.333c-0.043,0-0.084,0.006-0.127,0.006H149.463c-0.043,0-0.084-0.006-0.127-0.006
				s-0.084,0.006-0.127,0.006H42.67c-23.556,0-42.667,19.085-42.667,42.645V469.34c0,23.558,19.109,42.667,42.667,42.667h426.667
				c23.558,0,42.667-19.109,42.667-42.667V255.985C512.003,247.571,509.556,239.734,505.349,233.127z M405.337,256.006V469.34
				H170.67V256.006H405.337z M42.67,256.006h85.333V469.34H42.67V256.006z M448.003,469.34V256.006h21.329
				c0.001,0.002,0.003,0.004,0.004,0.006V469.34H448.003z"/>
			<path d="M85.337,341.333c-11.776,0-21.333,9.557-21.333,21.333S73.561,384,85.337,384s21.333-9.557,21.333-21.333
				S97.113,341.333,85.337,341.333z"/>
			<path d="M213.337,85.333c0,11.797,9.536,21.333,21.333,21.333h21.333c11.797,0,21.333-9.536,21.333-21.333
				c0-11.797-9.536-21.333-21.333-21.333h-0.009V42.667c0-11.797-9.536-21.333-21.333-21.333c-11.776,0-21.333,9.536-21.333,21.333
				V64c0,3.894,1.058,7.53,2.876,10.67C214.391,77.808,213.337,81.442,213.337,85.333z"/>
			<path d="M320.003,85.333c0,11.797,9.536,21.333,21.333,21.333h21.333c11.797,0,21.333-9.536,21.333-21.333
				c0-11.797-9.536-21.333-21.333-21.333h-21.333C329.539,64,320.003,73.536,320.003,85.333z"/>
			<path d="M448.003,64c-11.797,0-21.333,9.536-21.333,21.333c0,11.797,9.536,21.333,21.333,21.333h21.333
				c7.406,0,13.917-3.76,17.741-9.476c1.168,0.198,2.36,0.324,3.584,0.324c11.797,0,21.333-9.536,21.333-21.333V54.848
				c0-11.776-9.536-21.333-21.333-21.333c-11.776,0-21.333,9.557-21.333,21.333V64H448.003z"/>
			<path d="M408.4,42.667h21.333c11.797,0,21.333-9.536,21.333-21.333C451.067,9.536,441.531,0,429.733,0H408.4
				c-11.797,0-21.333,9.536-21.333,21.333C387.067,33.131,396.603,42.667,408.4,42.667z"/>
			<path d="M490.661,140.181c-11.776,0-21.333,9.557-21.333,21.333v21.333c0,11.797,9.557,21.333,21.333,21.333
				c11.797,0,21.333-9.536,21.333-21.333v-21.333C511.995,149.739,502.459,140.181,490.661,140.181z"/>
			<path d="M301.733,42.667h21.333c11.797,0,21.333-9.536,21.333-21.333C344.4,9.536,334.864,0,323.067,0h-21.333
				C289.936,0,280.4,9.536,280.4,21.333C280.4,33.131,289.936,42.667,301.733,42.667z"/>
			<path d="M234.661,192c11.797,0,21.333-9.536,21.333-21.333v-21.333c0-11.797-9.536-21.333-21.333-21.333
				c-11.776,0-21.333,9.536-21.333,21.333v21.333C213.328,182.464,222.885,192,234.661,192z"/>
			<path d="M42.67,170.667c11.782,0,21.333-9.551,21.333-21.333c0-26.517,10.142-39.589,33.338-42.174l-5.756,5.756
				c-8.331,8.331-8.331,21.839,0,30.17s21.839,8.331,30.17,0l42.667-42.667c0.497-0.497,0.967-1.02,1.413-1.563
				c0.202-0.246,0.378-0.506,0.568-0.759c0.228-0.304,0.463-0.601,0.674-0.917c0.203-0.303,0.379-0.618,0.564-0.929
				c0.171-0.286,0.351-0.566,0.509-0.861c0.169-0.317,0.313-0.643,0.465-0.966c0.145-0.308,0.299-0.611,0.43-0.926
				c0.13-0.314,0.235-0.635,0.349-0.953c0.122-0.338,0.251-0.672,0.356-1.018c0.096-0.318,0.167-0.642,0.248-0.964
				c0.089-0.353,0.188-0.701,0.259-1.061c0.074-0.372,0.118-0.748,0.171-1.122c0.045-0.314,0.104-0.622,0.136-0.94
				c0.138-1.4,0.138-2.81,0-4.21c-0.031-0.318-0.091-0.627-0.136-0.941c-0.054-0.375-0.097-0.75-0.171-1.122
				c-0.071-0.36-0.17-0.708-0.259-1.061c-0.081-0.322-0.151-0.645-0.248-0.963c-0.105-0.346-0.235-0.68-0.356-1.019
				c-0.114-0.318-0.219-0.638-0.348-0.951c-0.131-0.316-0.285-0.619-0.43-0.927c-0.152-0.323-0.296-0.649-0.465-0.965
				c-0.158-0.295-0.338-0.576-0.51-0.862c-0.185-0.31-0.361-0.625-0.564-0.928c-0.212-0.317-0.448-0.615-0.676-0.919
				c-0.189-0.252-0.364-0.512-0.566-0.757c-0.446-0.544-0.916-1.067-1.413-1.564l-42.667-42.667c-8.331-8.331-21.839-8.331-30.17,0
				s-8.331,21.839,0,30.17l6.549,6.549c-48.245,3.265-76.798,34.543-76.798,85.032C21.337,161.115,30.888,170.667,42.67,170.667z"/>
		</g>
	</g>
</g>
<g>
</g>
<g>
</g>
<g>
</g>
<g>
</g>
<g>
</g>
<g>
</g>
<g>
</g>
<g>
</g>
<g>
</g>
<g>
</g>
<g>
</g>
<g>
</g>
<g>
</g>
<g>
</g>
<g>
</g>
</svg>
