<?xml version="1.0" encoding="iso-8859-1"?>
<!-- Generator: Adobe Illustrator 19.0.0, SVG Export Plug-In . SVG Version: 6.00 Build 0)  -->
<svg version="1.1" id="Layer_1" xmlns="http://www.w3.org/2000/svg" xmlns:xlink="http://www.w3.org/1999/xlink" x="0px" y="0px"
	 viewBox="0 0 512 512" style="enable-background:new 0 0 512 512;" xml:space="preserve">
<g>
	<g>
		<g>
			<path d="M256.073,0.028l-20.895-0.002C235.006,0.022,234.839,0,234.667,0c-0.172,0-0.338,0.022-0.509,0.026L21.344,0.006
				C9.561,0.005,0.009,9.557,0.009,21.34V192H0v170.667h0.009v64.006c0,11.782,9.551,21.333,21.333,21.333H64V512l42.667-21.333
				L149.333,512v-63.994h106.739c47.089,0,85.269-38.181,85.269-85.269V85.297C341.342,38.208,303.161,0.028,256.073,0.028z
				 M298.675,85.297V192H256V42.694h0.071C279.597,42.694,298.675,61.772,298.675,85.297z M42.675,234.667h170.658V320H42.675
				V234.667z M256,234.667h42.667V320H256V234.667z M42.675,42.675l170.658,0.016V192H42.675V42.675z M42.675,362.667h170.658
				v42.673H42.675V362.667z M256.073,405.34H256v-42.673h42.675v0.07C298.675,386.262,279.597,405.34,256.073,405.34z"/>
			<path d="M448,0c-35.355,0-64,28.645-64,64v323.221c0,40.637,14.807,79.868,41.658,110.339l6.316,7.188
				c8.134,9.257,22.397,9.717,31.11,1.003C494.412,474.425,512,431.965,512,387.669V64C512,28.645,483.355,0,448,0z
				 M469.333,387.669c0,24.912-7.471,49.042-21.18,69.41c-13.939-20.505-21.487-44.821-21.487-69.858V64
				c0-11.791,9.542-21.333,21.333-21.333S469.333,52.209,469.333,64V387.669z"/>
		</g>
	</g>
</g>
<g>
</g>
<g>
</g>
<g>
</g>
<g>
</g>
<g>
</g>
<g>
</g>
<g>
</g>
<g>
</g>
<g>
</g>
<g>
</g>
<g>
</g>
<g>
</g>
<g>
</g>
<g>
</g>
<g>
</g>
</svg>
