<?xml version="1.0" encoding="iso-8859-1"?>
<!-- Generator: Adobe Illustrator 19.0.0, SVG Export Plug-In . SVG Version: 6.00 Build 0)  -->
<svg version="1.1" id="Layer_1" xmlns="http://www.w3.org/2000/svg" xmlns:xlink="http://www.w3.org/1999/xlink" x="0px" y="0px"
	 viewBox="0 0 512 512" style="enable-background:new 0 0 512 512;" xml:space="preserve">
<g>
	<g>
		<path d="M458.667,37.589c-27.027,0-49.355,20.128-52.844,46.203L104.61,140.269c-6.372-22.323-26.914-38.68-51.277-38.68
			C23.887,101.589,0,125.476,0,154.922v192c0,29.446,23.887,53.333,53.333,53.333c24.363,0,44.905-16.358,51.277-38.681
			l37.472,7.026l-13.205,44.312c-3.578,12.006,3.911,24.496,16.186,26.996l167.232,34.069c10.832,2.207,21.556-4.227,24.707-14.823
			l15.211-51.155l53.608,10.051c3.489,26.075,25.818,46.203,52.844,46.203c29.446,0,53.333-23.887,53.333-53.333v-320
			C512,61.476,488.113,37.589,458.667,37.589z M64,346.922c0,5.882-4.785,10.667-10.667,10.667c-5.882,0-10.667-4.785-10.667-10.667
			v-192c0-5.882,4.785-10.667,10.667-10.667c5.882,0,10.667,4.785,10.667,10.667v10.667v170.667V346.922z M106.667,183.294
			l298.667-56V374.55l-64.009-12.002c-0.049-0.01-0.096-0.022-0.145-0.031l-167.957-31.488c-0.001,0-0.002,0-0.002,0l-66.553-12.479
			V183.294z M301.674,428.272l-125.248-25.516l7.822-26.248l125.805,23.588L301.674,428.272z M469.333,410.922
			c0,5.882-4.785,10.667-10.667,10.667S448,416.804,448,410.922v-10.667V101.589V90.922c0-5.882,4.785-10.667,10.667-10.667
			s10.667,4.785,10.667,10.667V410.922z"/>
	</g>
</g>
<g>
</g>
<g>
</g>
<g>
</g>
<g>
</g>
<g>
</g>
<g>
</g>
<g>
</g>
<g>
</g>
<g>
</g>
<g>
</g>
<g>
</g>
<g>
</g>
<g>
</g>
<g>
</g>
<g>
</g>
</svg>
