<?xml version="1.0" encoding="iso-8859-1"?>
<!-- Generator: Adobe Illustrator 19.0.0, SVG Export Plug-In . SVG Version: 6.00 Build 0)  -->
<svg version="1.1" id="Layer_1" xmlns="http://www.w3.org/2000/svg" xmlns:xlink="http://www.w3.org/1999/xlink" x="0px" y="0px"
	 viewBox="0 0 512.055 512.055" style="enable-background:new 0 0 512.055 512.055;" xml:space="preserve">
<g transform="translate(-1)">
	<g>
		<path d="M491.694,266.678h-21.333V117.345c0-11.782-9.551-21.333-21.333-21.333H265.864L208.112,38.26
			c-4.001-4.001-9.427-6.248-15.085-6.248H22.361c-11.782,0-21.333,9.551-21.333,21.333v404.486
			c-0.057,1.425,0.031,2.835,0.256,4.215c1.076,7.462,5.675,12.892,11.519,15.733c1.908,0.956,3.999,1.629,6.229,1.971
			c0.054,0.009,0.108,0.019,0.162,0.027c0.295,0.043,0.594,0.075,0.894,0.106c1.113,0.127,2.233,0.17,3.353,0.128h382.92
			c8.08,0,15.467-4.565,19.081-11.793l85.333-170.667C517.868,283.368,507.553,266.678,491.694,266.678z M107.694,224.012h320
			v42.667h-320V224.012z M427.694,181.345h-320v-12.604l29.552-30.063h119.781h170.667V181.345z M184.191,74.678l21.333,21.333
			h-77.222c-5.721,0-11.203,2.298-15.214,6.378l-41.941,42.667c-3.922,3.99-6.12,9.36-6.12,14.955v165.631l-6.36,12.721
			l-14.973,29.946V74.678H184.191z M393.176,437.345H56.879l64-128h328.149h8.149L393.176,437.345z"/>
	</g>
</g>
<g>
</g>
<g>
</g>
<g>
</g>
<g>
</g>
<g>
</g>
<g>
</g>
<g>
</g>
<g>
</g>
<g>
</g>
<g>
</g>
<g>
</g>
<g>
</g>
<g>
</g>
<g>
</g>
<g>
</g>
</svg>
