<?xml version="1.0" encoding="iso-8859-1"?>
<!-- Generator: Adobe Illustrator 19.0.0, SVG Export Plug-In . SVG Version: 6.00 Build 0)  -->
<svg version="1.1" id="Layer_1" xmlns="http://www.w3.org/2000/svg" xmlns:xlink="http://www.w3.org/1999/xlink" x="0px" y="0px"
	 viewBox="0 0 512 512" style="enable-background:new 0 0 512 512;" xml:space="preserve">
<g>
	<g>
		<path d="M389.967,213.333l74.672-93.34c11.175-13.968,1.23-34.66-16.659-34.66h-192V64c0-11.782-9.551-21.333-21.333-21.333
			H85.313V21.333C85.313,9.551,75.762,0,63.98,0C52.198,0,42.647,9.551,42.647,21.333V64v170.667v256
			c0,11.782,9.551,21.333,21.333,21.333c11.782,0,21.333-9.551,21.333-21.333V256h88.985c-2.358,6.674-3.652,13.851-3.652,21.333
			c0,35.355,28.645,64,64,64H447.98c17.888,0,27.833-20.692,16.659-34.66L389.967,213.333z M85.313,85.333h128v21.333v106.667h-128
			V85.333z M234.647,298.667c-11.791,0-21.333-9.542-21.333-21.333S222.855,256,234.647,256c11.782,0,21.333-9.551,21.333-21.333
			V128h147.613l-57.605,72.007c-6.233,7.791-6.233,18.862,0,26.654l57.605,72.007H234.647z"/>
	</g>
</g>
<g>
</g>
<g>
</g>
<g>
</g>
<g>
</g>
<g>
</g>
<g>
</g>
<g>
</g>
<g>
</g>
<g>
</g>
<g>
</g>
<g>
</g>
<g>
</g>
<g>
</g>
<g>
</g>
<g>
</g>
</svg>
