<?xml version="1.0" encoding="iso-8859-1"?>
<!-- Generator: Adobe Illustrator 19.0.0, SVG Export Plug-In . SVG Version: 6.00 Build 0)  -->
<svg version="1.1" id="Layer_1" xmlns="http://www.w3.org/2000/svg" xmlns:xlink="http://www.w3.org/1999/xlink" x="0px" y="0px"
	 viewBox="0 0 512 512" style="enable-background:new 0 0 512 512;" xml:space="preserve">
<g>
	<g>
		<path d="M501.121,380.976l-4.323-30.188l-4.728-33.073c-0.009-0.06-0.025-0.117-0.034-0.177L458.454,83.034
			c-1.505-10.507-10.504-18.309-21.118-18.309h-192V64c0-35.355-28.645-64-64-64s-64,28.645-64,64v0.725H74.67
			c-10.614,0-19.613,7.803-21.118,18.309L19.506,320.776l-8.627,60.206c-1.842,12.855,8.132,24.359,21.118,24.359h149.34v85.325
			c0,11.782,9.551,21.333,21.333,21.333h85.333c11.782,0,21.333-9.551,21.333-21.333v-85.325h170.66
			c6.901,0,12.952-3.249,16.83-8.224C500.25,392.732,501.984,387.002,501.121,380.976z M454.552,356.764l0.844,5.902H288.003H202.67
			H56.609l2.95-20.599h392.888L454.552,356.764z M160.003,64c0-11.791,9.542-21.333,21.333-21.333S202.67,52.209,202.67,64v0.725
			h-42.667V64z M93.166,107.392h24.171v41.941c0,11.782,9.551,21.333,21.333,21.333c11.782,0,21.333-9.551,21.333-21.333v-41.941
			h258.837l27.497,192.008H65.669L93.166,107.392z M266.67,469.333h-42.667v-63.991h42.667V469.333z"/>
	</g>
</g>
<g>
</g>
<g>
</g>
<g>
</g>
<g>
</g>
<g>
</g>
<g>
</g>
<g>
</g>
<g>
</g>
<g>
</g>
<g>
</g>
<g>
</g>
<g>
</g>
<g>
</g>
<g>
</g>
<g>
</g>
</svg>
