<?xml version="1.0" encoding="iso-8859-1"?>
<!-- Generator: Adobe Illustrator 19.0.0, SVG Export Plug-In . SVG Version: 6.00 Build 0)  -->
<svg version="1.1" id="Layer_1" xmlns="http://www.w3.org/2000/svg" xmlns:xlink="http://www.w3.org/1999/xlink" x="0px" y="0px"
	 viewBox="0 0 512 512" style="enable-background:new 0 0 512 512;" xml:space="preserve">
<g>
	<g>
		<g>
			<path d="M234.667,85.333c-11.776,0-21.333,9.557-21.333,21.333S222.891,128,234.667,128S256,118.443,256,106.667
				S246.443,85.333,234.667,85.333z"/>
			<path d="M384,128C384,57.317,326.683,0,256,0S128,57.317,128,128c0,63.414,46.136,116.06,106.667,126.22v236.447
				c0,11.782,9.551,21.333,21.333,21.333c11.782,0,21.333-9.551,21.333-21.333V254.22C337.864,244.06,384,191.414,384,128z
				 M256,213.333c-47.119,0-85.333-38.214-85.333-85.333S208.881,42.667,256,42.667S341.333,80.881,341.333,128
				S303.119,213.333,256,213.333z"/>
		</g>
	</g>
</g>
<g>
</g>
<g>
</g>
<g>
</g>
<g>
</g>
<g>
</g>
<g>
</g>
<g>
</g>
<g>
</g>
<g>
</g>
<g>
</g>
<g>
</g>
<g>
</g>
<g>
</g>
<g>
</g>
<g>
</g>
</svg>
