<?xml version="1.0" encoding="iso-8859-1"?>
<!-- Generator: Adobe Illustrator 19.0.0, SVG Export Plug-In . SVG Version: 6.00 Build 0)  -->
<svg version="1.1" id="Layer_1" xmlns="http://www.w3.org/2000/svg" xmlns:xlink="http://www.w3.org/1999/xlink" x="0px" y="0px"
	 viewBox="0 0 512.002 512.002" style="enable-background:new 0 0 512.002 512.002;" xml:space="preserve">
<g>
	<g>
		<g>
			<path d="M512.002,96.001c0-11.782-9.551-21.333-21.333-21.333H205.185l-15.437-30.874c-3.614-7.227-11.001-11.793-19.081-11.793
				H21.333C9.551,32.001,0,41.552,0,53.334v405.333c0,11.782,9.551,21.333,21.333,21.333h469.333
				c11.782,0,21.333-9.551,21.333-21.333V181.377c0-0.014,0.002-0.028,0.002-0.042V96.001z M469.335,117.334v42.667H247.854
				l-21.333-42.667H469.335z M469.333,437.334H42.667V74.668h114.815l58.104,116.207c3.614,7.227,11.001,11.793,19.081,11.793h0.002
				h234.665V437.334z"/>
			<path d="M170.667,266.668c0,11.782,9.551,21.333,21.333,21.333h128c11.782,0,21.333-9.551,21.333-21.333
				c0-11.782-9.551-21.333-21.333-21.333H192C180.218,245.334,170.667,254.886,170.667,266.668z"/>
			<path d="M320,330.668H192c-11.782,0-21.333,9.551-21.333,21.333s9.551,21.333,21.333,21.333h128
				c11.782,0,21.333-9.551,21.333-21.333S331.782,330.668,320,330.668z"/>
		</g>
	</g>
</g>
<g>
</g>
<g>
</g>
<g>
</g>
<g>
</g>
<g>
</g>
<g>
</g>
<g>
</g>
<g>
</g>
<g>
</g>
<g>
</g>
<g>
</g>
<g>
</g>
<g>
</g>
<g>
</g>
<g>
</g>
</svg>
