<?xml version="1.0" encoding="iso-8859-1"?>
<!-- Generator: Adobe Illustrator 19.0.0, SVG Export Plug-In . SVG Version: 6.00 Build 0)  -->
<svg version="1.1" id="Layer_1" xmlns="http://www.w3.org/2000/svg" xmlns:xlink="http://www.w3.org/1999/xlink" x="0px" y="0px"
	 viewBox="0 0 512 512" style="enable-background:new 0 0 512 512;" xml:space="preserve">
<g>
	<g>
		<g>
			<path d="M362.67,0H149.315c-23.561,0-42.645,19.111-42.645,42.667v42.541c0,0.042-0.006,0.083-0.006,0.126
				s0.006,0.083,0.006,0.126v277.082c0,0.042-0.006,0.083-0.006,0.126s0.006,0.083,0.006,0.126v106.541
				c0,23.556,19.085,42.667,42.645,42.667H362.67c23.558,0,42.667-19.109,42.667-42.667V42.667C405.337,19.109,386.228,0,362.67,0z
				 M149.337,106.667H362.67v234.667H149.337V106.667z M362.67,42.667V64H149.337V42.667H362.67z M149.337,469.333V384H362.67
				v85.333H149.337z"/>
			<path d="M255.997,405.333c-11.776,0-21.333,9.557-21.333,21.333S244.221,448,255.997,448c11.776,0,21.333-9.557,21.333-21.333
				S267.773,405.333,255.997,405.333z"/>
			<path d="M255.997,213.333c17.664,0,32-14.336,32-32s-14.336-32-32-32s-32,14.336-32,32S238.333,213.333,255.997,213.333z"/>
			<path d="M255.997,234.667c-35.349,0-64,28.651-64,64h128C319.997,263.317,291.346,234.667,255.997,234.667z"/>
		</g>
	</g>
</g>
<g>
</g>
<g>
</g>
<g>
</g>
<g>
</g>
<g>
</g>
<g>
</g>
<g>
</g>
<g>
</g>
<g>
</g>
<g>
</g>
<g>
</g>
<g>
</g>
<g>
</g>
<g>
</g>
<g>
</g>
</svg>
