<?xml version="1.0" encoding="iso-8859-1"?>
<!-- Generator: Adobe Illustrator 19.0.0, SVG Export Plug-In . SVG Version: 6.00 Build 0)  -->
<svg version="1.1" id="Layer_1" xmlns="http://www.w3.org/2000/svg" xmlns:xlink="http://www.w3.org/1999/xlink" x="0px" y="0px"
	 viewBox="0 0 512 512" style="enable-background:new 0 0 512 512;" xml:space="preserve">
<g>
	<g>
		<path d="M405.402,0.021h-20.983C384.277,0.019,384.138,0,383.996,0s-0.281,0.019-0.423,0.021H192.419
			C192.277,0.019,192.138,0,191.996,0H85.329C73.547,0,63.996,9.551,63.996,21.333v24.987
			c-24.858,8.784-42.667,32.474-42.667,60.346s17.808,51.562,42.667,60.346v28.641C39.137,204.438,21.329,228.128,21.329,256
			s17.808,51.562,42.667,60.346v28.641c-24.858,8.784-42.667,32.474-42.667,60.346c0,27.872,17.808,51.562,42.667,60.346v24.987
			c0,11.782,9.551,21.333,21.333,21.333h106.667c0.001,0,0.003,0,0.004,0s0.003,0,0.004,0h213.397
			c47.089,0,85.269-38.181,85.269-85.269V85.291C490.671,38.202,452.49,0.021,405.402,0.021z M170.662,469.333h-64V448
			c0-11.782-9.551-21.333-21.333-21.333c-11.791,0-21.333-9.542-21.333-21.333S73.538,384,85.329,384s21.333,9.542,21.333,21.333
			c0,11.782,9.551,21.333,21.333,21.333c11.782,0,21.333-9.551,21.333-21.333c0-27.872-17.808-51.562-42.667-60.346v-46.321
			c0-11.782-9.551-21.333-21.333-21.333c-11.791,0-21.333-9.542-21.333-21.333s9.542-21.333,21.333-21.333
			s21.333,9.542,21.333,21.333c0,11.782,9.551,21.333,21.333,21.333c11.782,0,21.333-9.551,21.333-21.333
			c0-27.872-17.808-51.562-42.667-60.346v-46.321c0-11.782-9.551-21.333-21.333-21.333c-11.791,0-21.333-9.542-21.333-21.333
			s9.542-21.333,21.333-21.333s21.333,9.542,21.333,21.333c0,11.782,9.551,21.333,21.333,21.333
			c11.782,0,21.333-9.551,21.333-21.333c0-27.872-17.808-51.562-42.667-60.346v-3.654h64V469.333z M213.338,42.688h149.325v426.645
			H213.338V42.688z M448.004,426.731c0,23.525-19.078,42.603-42.603,42.603h-0.073V42.688h0.073
			c23.525,0,42.603,19.078,42.603,42.603V426.731z"/>
	</g>
</g>
<g>
</g>
<g>
</g>
<g>
</g>
<g>
</g>
<g>
</g>
<g>
</g>
<g>
</g>
<g>
</g>
<g>
</g>
<g>
</g>
<g>
</g>
<g>
</g>
<g>
</g>
<g>
</g>
<g>
</g>
</svg>
