<?xml version="1.0" encoding="iso-8859-1"?>
<!-- Generator: Adobe Illustrator 19.0.0, SVG Export Plug-In . SVG Version: 6.00 Build 0)  -->
<svg version="1.1" id="Layer_1" xmlns="http://www.w3.org/2000/svg" xmlns:xlink="http://www.w3.org/1999/xlink" x="0px" y="0px"
	 viewBox="0 0 512 512" style="enable-background:new 0 0 512 512;" xml:space="preserve">
<g>
	<g>
		<path d="M362.667,64h-21.333V21.333C341.333,9.551,331.782,0,320,0H192c-11.782,0-21.333,9.551-21.333,21.333V64h-21.333
			C137.551,64,128,73.551,128,85.333v405.333c0,11.782,9.551,21.333,21.333,21.333h213.333c11.782,0,21.333-9.551,21.333-21.333
			V85.333C384,73.551,374.449,64,362.667,64z M213.333,42.667h85.333V64h-85.333V42.667z M170.667,469.333V106.667H192h128h21.333
			v170.667h-12.497L307.503,256l6.248-6.248c8.331-8.331,8.331-21.839,0-30.17c-8.331-8.331-21.839-8.331-30.17,0l-21.333,21.333
			c-8.331,8.331-8.331,21.839,0,30.17l27.582,27.582L264.696,323.8l-39.57,19.785c-10.538,5.269-14.81,18.083-9.541,28.622
			s18.083,14.81,28.622,9.541l23.586-11.793l11.793,23.586c5.269,10.538,18.083,14.81,28.622,9.541s14.81-18.083,9.541-28.622
			l-14.457-28.914L328.837,320h12.497v149.333H170.667z"/>
	</g>
</g>
<g>
</g>
<g>
</g>
<g>
</g>
<g>
</g>
<g>
</g>
<g>
</g>
<g>
</g>
<g>
</g>
<g>
</g>
<g>
</g>
<g>
</g>
<g>
</g>
<g>
</g>
<g>
</g>
<g>
</g>
</svg>
