<?xml version="1.0" encoding="iso-8859-1"?>
<!-- Generator: Adobe Illustrator 19.0.0, SVG Export Plug-In . SVG Version: 6.00 Build 0)  -->
<svg version="1.1" id="Layer_1" xmlns="http://www.w3.org/2000/svg" xmlns:xlink="http://www.w3.org/1999/xlink" x="0px" y="0px"
	 viewBox="0 0 512 512" style="enable-background:new 0 0 512 512;" xml:space="preserve">
<g>
	<g>
		<g>
			<path d="M232.792,335.803C247.172,320.529,256,299.969,256,277.333C256,230.202,217.798,192,170.667,192
				s-85.333,38.202-85.333,85.333c0,22.636,8.828,43.196,23.208,58.469C81.768,351.012,64,375.984,64,405.333
				c0,11.782,9.551,21.333,21.333,21.333H256c11.782,0,21.333-9.551,21.333-21.333C277.333,375.984,259.565,351.012,232.792,335.803
				z M128,277.333c0-23.567,19.099-42.667,42.667-42.667s42.667,19.099,42.667,42.667S194.234,320,170.667,320
				S128,300.901,128,277.333z M115.582,384c10.961-12.39,31.091-21.333,55.085-21.333S214.79,371.61,225.751,384H115.582z"/>
			<path d="M448,128H341.333V64c0-23.558-19.109-42.667-42.667-42.667h-85.333c-23.558,0-42.667,19.109-42.667,42.667v64H64
				c-35.355,0-64,28.645-64,64v234.667c0,35.355,28.645,64,64,64h384c35.355,0,64-28.645,64-64V192C512,156.645,483.355,128,448,128
				z M213.333,64h85.333v64h-85.333V64z M469.333,426.667c0,11.791-9.542,21.333-21.333,21.333H64
				c-11.791,0-21.333-9.542-21.333-21.333V192c0-11.791,9.542-21.333,21.333-21.333h128h128h128
				c11.791,0,21.333,9.542,21.333,21.333V426.667z"/>
			<path d="M320,256h64c11.782,0,21.333-9.551,21.333-21.333c0-11.782-9.551-21.333-21.333-21.333h-64
				c-11.782,0-21.333,9.551-21.333,21.333C298.667,246.449,308.218,256,320,256z"/>
			<path d="M426.667,277.333H320c-11.782,0-21.333,9.551-21.333,21.333c0,11.782,9.551,21.333,21.333,21.333h106.667
				c11.782,0,21.333-9.551,21.333-21.333C448,286.885,438.449,277.333,426.667,277.333z"/>
			<path d="M426.667,341.333H320c-11.782,0-21.333,9.551-21.333,21.333c0,11.782,9.551,21.333,21.333,21.333h106.667
				c11.782,0,21.333-9.551,21.333-21.333C448,350.885,438.449,341.333,426.667,341.333z"/>
		</g>
	</g>
</g>
<g>
</g>
<g>
</g>
<g>
</g>
<g>
</g>
<g>
</g>
<g>
</g>
<g>
</g>
<g>
</g>
<g>
</g>
<g>
</g>
<g>
</g>
<g>
</g>
<g>
</g>
<g>
</g>
<g>
</g>
</svg>
