<?xml version="1.0" encoding="iso-8859-1"?>
<!-- Generator: Adobe Illustrator 19.0.0, SVG Export Plug-In . SVG Version: 6.00 Build 0)  -->
<svg version="1.1" id="Layer_1" xmlns="http://www.w3.org/2000/svg" xmlns:xlink="http://www.w3.org/1999/xlink" x="0px" y="0px"
	 viewBox="0 0 512 512" style="enable-background:new 0 0 512 512;" xml:space="preserve">
<g>
	<g>
		<g>
			<path d="M490.667,0H21.333C9.551,0,0,9.551,0,21.333v469.333C0,502.449,9.551,512,21.333,512h469.333
				c11.782,0,21.333-9.551,21.333-21.333V21.333C512,9.551,502.449,0,490.667,0z M469.333,469.333H42.667V42.667h426.667V469.333z"
				/>
			<path d="M106.667,384h106.667v21.333c0,11.782,9.551,21.333,21.333,21.333h128c11.782,0,21.333-9.551,21.333-21.333V384h21.333
				c11.782,0,21.333-9.551,21.333-21.333s-9.551-21.333-21.333-21.333H384V320c0-11.782-9.551-21.333-21.333-21.333h-128
				c-11.782,0-21.333,9.551-21.333,21.333v21.333H106.667c-11.782,0-21.333,9.551-21.333,21.333S94.885,384,106.667,384z
				 M256,341.333h85.333V384H256V341.333z"/>
			<path d="M106.667,170.667H128V192c0,11.782,9.551,21.333,21.333,21.333h128c11.782,0,21.333-9.551,21.333-21.333v-21.333h106.667
				c11.782,0,21.333-9.551,21.333-21.333c0-11.782-9.551-21.333-21.333-21.333H298.667v-21.333c0-11.782-9.551-21.333-21.333-21.333
				h-128c-11.782,0-21.333,9.551-21.333,21.333V128h-21.333c-11.782,0-21.333,9.551-21.333,21.333
				C85.333,161.115,94.885,170.667,106.667,170.667z M170.667,128H256v42.667h-85.333V128z"/>
		</g>
	</g>
</g>
<g>
</g>
<g>
</g>
<g>
</g>
<g>
</g>
<g>
</g>
<g>
</g>
<g>
</g>
<g>
</g>
<g>
</g>
<g>
</g>
<g>
</g>
<g>
</g>
<g>
</g>
<g>
</g>
<g>
</g>
</svg>
