<?xml version="1.0" encoding="iso-8859-1"?>
<!-- Generator: Adobe Illustrator 19.0.0, SVG Export Plug-In . SVG Version: 6.00 Build 0)  -->
<svg version="1.1" id="Layer_1" xmlns="http://www.w3.org/2000/svg" xmlns:xlink="http://www.w3.org/1999/xlink" x="0px" y="0px"
	 viewBox="0 0 512 512" style="enable-background:new 0 0 512 512;" xml:space="preserve">
<g>
	<g>
		<path d="M266.36,0.226c-0.815-0.034-1.629-0.067-2.444-0.093c-0.78-0.024-1.56-0.046-2.342-0.063C259.717,0.029,257.86,0,256,0
			s-3.717,0.029-5.574,0.071c-0.782,0.017-1.562,0.039-2.342,0.063c-0.815,0.026-1.63,0.059-2.444,0.093
			C109.063,5.665,0,118.09,0,256c0,141.382,114.618,256,256,256s256-114.618,256-256C512,118.09,402.937,5.665,266.36,0.226z
			 M327.916,256.789c-20.906-14.23-45.8-22.114-71.909-22.114c-26.122,0-51.018,7.882-71.925,22.11l-47.246-60.745l53.163-39.872
			l50.917,50.917c8.331,8.331,21.839,8.331,30.17,0l50.917-50.917l53.163,39.872L327.916,256.789z M256,349.252l-45.648-58.693
			c13.443-8.534,29.162-13.217,45.655-13.217c16.48,0,32.195,4.684,45.636,13.218l-21.204,27.271L256,349.252z M384,149.329
			l-42.667-32V60.595c15.211,6.594,29.528,14.894,42.667,24.738V149.329z M298.667,47.11v72.054L256,161.83l-42.667-42.667V47.11
			c14.127-2.939,28.367-4.443,42.667-4.443S284.539,44.171,298.667,47.11z M128,85.328c13.138-9.844,27.456-18.144,42.667-24.738
			v56.734l-42.667,32V85.328z M256,469.333c-117.818,0-213.333-95.515-213.333-213.333c0-48.031,15.878-92.353,42.667-128.01v64.001
			c0,0.313,0.02,0.618,0.033,0.926c0.007,0.17,0.007,0.34,0.018,0.51c0.311,4.908,2.203,9.17,5.072,12.478l141.485,181.91
			l7.225,9.289c8.542,10.983,25.141,10.981,33.681-0.002l41.426-53.279l107.249-137.891c2.882-3.313,4.782-7.585,5.093-12.507
			c0.011-0.167,0.011-0.335,0.018-0.502c0.013-0.309,0.033-0.615,0.033-0.928V127.99c26.788,35.657,42.667,79.979,42.667,128.01
			C469.333,373.818,373.818,469.333,256,469.333z"/>
	</g>
</g>
<g>
</g>
<g>
</g>
<g>
</g>
<g>
</g>
<g>
</g>
<g>
</g>
<g>
</g>
<g>
</g>
<g>
</g>
<g>
</g>
<g>
</g>
<g>
</g>
<g>
</g>
<g>
</g>
<g>
</g>
</svg>
