<?xml version="1.0" encoding="iso-8859-1"?>
<!-- Generator: Adobe Illustrator 19.0.0, SVG Export Plug-In . SVG Version: 6.00 Build 0)  -->
<svg version="1.1" id="Layer_1" xmlns="http://www.w3.org/2000/svg" xmlns:xlink="http://www.w3.org/1999/xlink" x="0px" y="0px"
	 viewBox="0 0 512 512" style="enable-background:new 0 0 512 512;" xml:space="preserve">
<g>
	<g>
		<path d="M469.333,255.999v-21.332c0-11.782-9.551-21.333-21.333-21.333h-42.667v-64C405.333,66.853,338.481,0,256,0
			S106.667,66.853,106.667,149.333v64H64c-11.782,0-21.333,9.551-21.333,21.333v170.667v85.333C42.667,502.449,52.218,512,64,512
			h384c11.782,0,21.333-9.551,21.333-21.333v-85.333V256.001C469.333,256,469.333,256,469.333,255.999z M426.667,384H350.17
			l76.497-76.497V384z M222.17,384l128-128H384h33.83l-128,128H222.17z M94.17,384l128-128h67.66l-128,128H94.17z M149.333,149.333
			c0-58.917,47.75-106.667,106.667-106.667c58.917,0,106.667,47.75,106.667,106.667v64H149.333V149.333z M128,256h33.83
			l-76.497,76.497V256H128z M426.667,469.333H85.333v-42.667h341.333V469.333z"/>
	</g>
</g>
<g>
</g>
<g>
</g>
<g>
</g>
<g>
</g>
<g>
</g>
<g>
</g>
<g>
</g>
<g>
</g>
<g>
</g>
<g>
</g>
<g>
</g>
<g>
</g>
<g>
</g>
<g>
</g>
<g>
</g>
</svg>
