<?xml version="1.0" encoding="iso-8859-1"?>
<!-- Generator: Adobe Illustrator 19.0.0, SVG Export Plug-In . SVG Version: 6.00 Build 0)  -->
<svg version="1.1" id="Layer_1" xmlns="http://www.w3.org/2000/svg" xmlns:xlink="http://www.w3.org/1999/xlink" x="0px" y="0px"
	 viewBox="0 0 512 512" style="enable-background:new 0 0 512 512;" xml:space="preserve">
<g>
	<g>
		<path d="M277.333,43.725V21.333C277.333,9.551,267.782,0,256,0c-11.782,0-21.333,9.551-21.333,21.333v22.392
			c-107.811,10.703-192,101.645-192,212.275c0,11.782,9.551,21.333,21.333,21.333h3.925c9.03,0,17.082-5.685,20.103-14.194
			c6.031-16.982,21.887-28.472,39.971-28.472s33.941,11.49,39.971,28.472c3.022,8.509,11.073,14.194,20.103,14.194h7.851
			c9.03,0,17.082-5.685,20.103-14.194c3.458-9.738,10.151-17.664,18.638-22.659V448c0,11.791-9.542,21.333-21.333,21.333
			S192,459.791,192,448c0-11.782-9.551-21.333-21.333-21.333c-11.782,0-21.333,9.551-21.333,21.333c0,35.355,28.645,64,64,64
			s64-28.645,64-64V240.48c8.487,4.995,15.18,12.922,18.638,22.659c3.022,8.509,11.074,14.194,20.103,14.194h7.851
			c9.03,0,17.082-5.685,20.103-14.194c6.031-16.982,21.887-28.472,39.971-28.472s33.941,11.49,39.971,28.472
			c3.022,8.509,11.074,14.194,20.103,14.194H448c11.782,0,21.333-9.551,21.333-21.333C469.333,145.37,385.144,54.428,277.333,43.725
			z M384,192c-25.216,0-48.247,11.09-64,29.165C304.247,203.09,281.216,192,256,192s-48.247,11.09-64,29.165
			C176.247,203.09,153.216,192,128,192c-11.544,0-22.629,2.324-32.768,6.579C118.807,132.566,181.881,85.333,256,85.333
			s137.193,47.233,160.768,113.245C406.629,194.324,395.544,192,384,192z"/>
	</g>
</g>
<g>
</g>
<g>
</g>
<g>
</g>
<g>
</g>
<g>
</g>
<g>
</g>
<g>
</g>
<g>
</g>
<g>
</g>
<g>
</g>
<g>
</g>
<g>
</g>
<g>
</g>
<g>
</g>
<g>
</g>
</svg>
