<?xml version="1.0" encoding="iso-8859-1"?>
<!-- Generator: Adobe Illustrator 19.0.0, SVG Export Plug-In . SVG Version: 6.00 Build 0)  -->
<svg version="1.1" id="Layer_1" xmlns="http://www.w3.org/2000/svg" xmlns:xlink="http://www.w3.org/1999/xlink" x="0px" y="0px"
	 viewBox="0 0 512 512" style="enable-background:new 0 0 512 512;" xml:space="preserve">
<g transform="translate(0 -1)">
	<g>
		<path d="M477.158,48.489L277.333,211.981V65c0-17.997-20.913-27.908-34.842-16.511l-234.667,192
			c-10.432,8.536-10.432,24.487,0,33.022l234.667,192c13.929,11.397,34.842,1.486,34.842-16.511V302.019l199.824,163.493
			C491.087,476.908,512,466.997,512,449V65C512,47.003,491.087,37.092,477.158,48.489z M234.667,403.982L55.023,257l179.644-146.982
			V403.982z M469.333,403.982L289.689,257l179.644-146.982V403.982z"/>
	</g>
</g>
<g>
</g>
<g>
</g>
<g>
</g>
<g>
</g>
<g>
</g>
<g>
</g>
<g>
</g>
<g>
</g>
<g>
</g>
<g>
</g>
<g>
</g>
<g>
</g>
<g>
</g>
<g>
</g>
<g>
</g>
</svg>
