<?xml version="1.0" encoding="iso-8859-1"?>
<!-- Generator: Adobe Illustrator 19.0.0, SVG Export Plug-In . SVG Version: 6.00 Build 0)  -->
<svg version="1.1" id="Layer_1" xmlns="http://www.w3.org/2000/svg" xmlns:xlink="http://www.w3.org/1999/xlink" x="0px" y="0px"
	 viewBox="0 0 512.055 512.055" style="enable-background:new 0 0 512.055 512.055;" xml:space="preserve">
<g transform="translate(0 -1)">
	<g>
		<path d="M478.901,45.946L393.568,3.28c-0.012-0.006-0.024-0.011-0.036-0.017c-0.839-0.419-1.706-0.785-2.597-1.092
			c-0.093-0.032-0.187-0.059-0.281-0.09c-0.312-0.103-0.625-0.202-0.943-0.29c-0.201-0.056-0.402-0.105-0.603-0.156
			c-0.201-0.05-0.402-0.099-0.605-0.143c-0.268-0.059-0.535-0.11-0.803-0.158c-0.129-0.023-0.257-0.045-0.386-0.065
			c-0.326-0.052-0.652-0.096-0.978-0.132c-0.062-0.007-0.124-0.012-0.185-0.019c-3.09-0.315-6.142,0.068-8.974,1.038L256.028,42.54
			L134.876,2.156c-2.832-0.97-5.883-1.352-8.973-1.038c-0.062,0.006-0.123,0.012-0.185,0.019c-0.326,0.036-0.652,0.081-0.978,0.132
			c-0.129,0.02-0.257,0.042-0.386,0.065c-0.268,0.048-0.536,0.099-0.803,0.158c-0.203,0.044-0.404,0.093-0.605,0.143
			c-0.201,0.05-0.402,0.099-0.603,0.156c-0.317,0.088-0.631,0.187-0.943,0.29c-0.094,0.031-0.187,0.058-0.281,0.09
			c-0.891,0.307-1.758,0.673-2.597,1.092c-0.012,0.006-0.024,0.011-0.036,0.017L33.154,45.946
			c-7.227,3.614-11.793,11.001-11.793,19.081v426.667c0,15.859,16.689,26.173,30.874,19.081l77.43-38.715l119.161,39.72
			c1.386,0.501,2.831,0.855,4.313,1.059c0.021,0.003,0.041,0.006,0.062,0.008c0.368,0.049,0.738,0.089,1.111,0.119
			c0.101,0.008,0.202,0.016,0.303,0.023c0.281,0.019,0.562,0.032,0.844,0.039c0.19,0.005,0.38,0.008,0.569,0.008
			c0.189,0,0.379-0.003,0.569-0.008c0.283-0.007,0.564-0.02,0.844-0.039c0.101-0.007,0.202-0.014,0.303-0.023
			c0.372-0.03,0.742-0.07,1.111-0.119c0.021-0.003,0.041-0.005,0.062-0.008c1.482-0.204,2.927-0.558,4.313-1.059l119.161-39.72
			l77.43,38.715c14.185,7.092,30.874-3.222,30.874-19.081V65.028C490.694,56.947,486.129,49.56,478.901,45.946z M64.028,78.212
			l42.667-21.333v378.964l-42.667,21.333V78.212z M149.361,51.959l85.333,28.444v381.692l-85.333-28.444V51.959z M277.361,80.404
			l85.333-28.444v381.692l-85.333,28.444V80.404z M448.028,457.176l-42.667-21.333V56.879l42.667,21.333V457.176z"/>
	</g>
</g>
<g>
</g>
<g>
</g>
<g>
</g>
<g>
</g>
<g>
</g>
<g>
</g>
<g>
</g>
<g>
</g>
<g>
</g>
<g>
</g>
<g>
</g>
<g>
</g>
<g>
</g>
<g>
</g>
<g>
</g>
</svg>
