<?xml version="1.0" encoding="iso-8859-1"?>
<!-- Generator: Adobe Illustrator 19.0.0, SVG Export Plug-In . SVG Version: 6.00 Build 0)  -->
<svg version="1.1" id="Layer_1" xmlns="http://www.w3.org/2000/svg" xmlns:xlink="http://www.w3.org/1999/xlink" x="0px" y="0px"
	 viewBox="0 0 512.415 512.415" style="enable-background:new 0 0 512.415 512.415;" xml:space="preserve">
<g transform="translate(-1)">
	<g>
		<path d="M509.985,479.481l-157.101-252.32l134.953-119.325c15.846-10.79,25.38-24.947,25.38-41.9
			c0-41.145-56.116-65.835-122.475-65.835c-58.643,0-109.27,19.273-120.274,52.138l-13.252,21.283l-13.254-21.278
			c-11-32.867-61.624-52.143-120.254-52.143C57.331,0.101,1.213,24.788,1.213,65.936c0,16.692,9.236,30.675,24.645,41.401
			l134.911,121.082L4.432,479.496c-13,20.878,13.816,43.549,32.241,27.258l219.669-194.231l221.465,194.271
			C496.259,522.98,522.958,500.318,509.985,479.481z M327.799,53.996c15.972-7.026,38.557-11.229,62.943-11.229
			c24.375,0,46.954,4.202,62.923,11.228c11.954,5.26,16.885,10.388,16.885,11.94c0,0.43-0.394,1.142-1.196,2.048l-0.259-0.255
			c-2.018,2.358-4.96,4.643-8.657,6.79c-1.95,1.09-4.187,2.219-6.773,3.357c-4.892,2.153-10.411,4.037-16.405,5.62
			c-0.631,0.165-1.274,0.325-1.917,0.484c-0.29,0.072-0.581,0.145-0.873,0.216c-7.217,1.735-15.187,3.086-23.666,3.928
			c-0.01,0.001-0.02,0.002-0.03,0.003c-1.055,0.105-2.119,0.201-3.189,0.29c-0.123,0.01-0.247,0.018-0.37,0.028
			c-1.408,0.114-2.832,0.21-4.264,0.295c-0.876,0.051-1.753,0.102-2.636,0.142c-0.416,0.019-0.834,0.035-1.251,0.052
			c-1.103,0.044-2.21,0.081-3.323,0.107c-0.228,0.006-0.456,0.012-0.684,0.017c-1.431,0.029-2.869,0.046-4.313,0.046
			c-24.386,0-46.971-4.202-62.943-11.229c-4.479-1.97-7.971-3.922-10.588-5.674c-4.361-2.922-6.286-5.289-6.286-6.261
			c0.024-0.125,0.04-0.25,0.062-0.375C311.625,63.678,316.661,58.896,327.799,53.996z M60.766,53.996
			c15.972-7.026,38.557-11.229,62.943-11.229c24.375,0,46.954,4.202,62.923,11.228c10.742,4.726,15.799,9.338,16.716,11.352
			c0.033,0.2,0.06,0.399,0.098,0.599c0.03,0.777-1.186,2.445-3.9,4.576c-2.727,2.132-6.945,4.726-12.915,7.353
			c-15.969,7.026-38.548,11.228-62.923,11.228c-3.047,0-6.066-0.066-9.047-0.194c-0.002,0-0.004,0-0.006,0
			c-2.77-0.12-5.504-0.299-8.202-0.525c-0.658-0.056-1.311-0.117-1.963-0.179c-0.486-0.046-0.97-0.094-1.453-0.142
			c-8.22-0.843-15.959-2.162-22.984-3.848c-0.381-0.092-0.759-0.186-1.137-0.28c-0.574-0.143-1.149-0.285-1.713-0.432
			c-6.007-1.584-11.536-3.471-16.437-5.628c-2.534-1.115-4.734-2.221-6.657-3.291c-3.755-2.167-6.739-4.476-8.781-6.859
			l-0.258,0.252c-0.798-0.903-1.19-1.612-1.19-2.041C43.879,64.384,48.81,59.256,60.766,53.996z M183.668,191.639l-66.796-59.949
			c0.255,0.007,0.515,0.004,0.771,0.01c1.533,0.035,3.074,0.053,4.62,0.061c0.48,0.003,0.954,0.019,1.435,0.019
			c31.084,0,59.907-5.421,81.779-15.405c0.036-0.016,0.072-0.033,0.108-0.049c0.682-0.312,1.356-0.629,2.024-0.95
			c0.087-0.042,0.174-0.084,0.26-0.126c2.687-1.299,5.259-2.669,7.711-4.11c0.173-0.101,0.345-0.203,0.517-0.305
			c0.516-0.307,1.027-0.618,1.532-0.931c0.181-0.113,0.36-0.227,0.54-0.34c1.573-0.993,3.09-2.016,4.549-3.07
			c0.219-0.158,0.44-0.315,0.656-0.474c0.391-0.288,0.775-0.58,1.157-0.873c0.26-0.199,0.518-0.399,0.774-0.601
			c0.216-0.17,0.441-0.336,0.654-0.507l6.129,9.839l-36.849,59.179L183.668,191.639z M231.849,194.984l43.483-69.824
			c0.028-0.046,0.052-0.093,0.08-0.139l13.065-20.983c0.102,0.082,0.209,0.16,0.312,0.242c0.483,0.384,0.974,0.764,1.471,1.141
			c0.188,0.142,0.375,0.285,0.564,0.426c0.564,0.419,1.138,0.833,1.72,1.243c0.109,0.077,0.215,0.155,0.325,0.232
			c0.683,0.476,1.379,0.944,2.086,1.407c0.213,0.139,0.431,0.276,0.647,0.414c0.499,0.32,1.001,0.639,1.511,0.953
			c0.283,0.174,0.568,0.347,0.854,0.519c0.468,0.281,0.94,0.56,1.417,0.836c0.293,0.17,0.584,0.34,0.88,0.508
			c0.574,0.325,1.156,0.644,1.742,0.962c0.356,0.193,0.715,0.384,1.076,0.574c0.575,0.302,1.152,0.603,1.739,0.898
			c0.366,0.184,0.737,0.365,1.107,0.547c0.436,0.214,0.874,0.427,1.316,0.637c0.402,0.191,0.805,0.381,1.212,0.569
			c0.426,0.197,0.857,0.391,1.288,0.584c0.416,0.186,0.829,0.374,1.25,0.557c0.499,0.217,1.005,0.429,1.51,0.641
			c0.728,0.306,1.464,0.607,2.206,0.903c0.394,0.158,0.788,0.316,1.186,0.471c0.5,0.194,1.004,0.385,1.51,0.575
			c0.375,0.141,0.751,0.281,1.13,0.419c0.524,0.192,1.05,0.383,1.58,0.57c0.35,0.124,0.704,0.245,1.057,0.366
			c1.944,0.671,3.928,1.311,5.949,1.92c0.311,0.094,0.62,0.188,0.933,0.28c0.614,0.181,1.232,0.359,1.852,0.534
			c0.319,0.09,0.64,0.179,0.961,0.268c0.641,0.177,1.283,0.353,1.931,0.525c0.221,0.058,0.445,0.115,0.667,0.172
			c1.551,0.404,3.117,0.792,4.705,1.161c0.007,0.002,0.015,0.004,0.022,0.005c0.713,0.166,1.433,0.325,2.153,0.484
			c0.278,0.061,0.555,0.123,0.834,0.183c0.703,0.152,1.409,0.3,2.119,0.445c0.271,0.055,0.543,0.109,0.814,0.163
			c2.48,0.496,4.997,0.952,7.55,1.365c0.114,0.018,0.227,0.038,0.342,0.056c0.775,0.124,1.555,0.243,2.337,0.36
			c0.266,0.04,0.532,0.079,0.798,0.118c0.772,0.112,1.546,0.222,2.324,0.327c0.221,0.03,0.442,0.058,0.664,0.087
			c2.588,0.341,5.208,0.642,7.857,0.901c0.193,0.019,0.385,0.039,0.578,0.057c0.807,0.077,1.617,0.148,2.43,0.218
			c0.275,0.023,0.55,0.046,0.825,0.069c0.814,0.066,1.63,0.13,2.449,0.189c0.179,0.013,0.359,0.024,0.538,0.036
			c2.677,0.186,5.38,0.33,8.104,0.431c0.282,0.011,0.564,0.022,0.846,0.031c0.804,0.027,1.61,0.051,2.418,0.071
			c0.31,0.008,0.621,0.014,0.932,0.021c0.826,0.018,1.653,0.034,2.482,0.043c0.123,0.001,0.247,0.001,0.37,0.003
			c0.924,0.01,1.846,0.02,2.774,0.02c0.27,0,0.537-0.008,0.807-0.009c1.396-0.004,2.787-0.02,4.173-0.046
			c0.235-0.005,0.473-0.003,0.707-0.008l-278.513,246.26L231.849,194.984z M288.566,284.04l31.905-28.214l77.1,123.831
			L288.566,284.04z"/>
	</g>
</g>
<g>
</g>
<g>
</g>
<g>
</g>
<g>
</g>
<g>
</g>
<g>
</g>
<g>
</g>
<g>
</g>
<g>
</g>
<g>
</g>
<g>
</g>
<g>
</g>
<g>
</g>
<g>
</g>
<g>
</g>
</svg>
