<?xml version="1.0" encoding="iso-8859-1"?>
<!-- Generator: Adobe Illustrator 19.0.0, SVG Export Plug-In . SVG Version: 6.00 Build 0)  -->
<svg version="1.1" id="Layer_1" xmlns="http://www.w3.org/2000/svg" xmlns:xlink="http://www.w3.org/1999/xlink" x="0px" y="0px"
	 viewBox="0 0 512.012 512.012" style="enable-background:new 0 0 512.012 512.012;" xml:space="preserve">
<g>
	<g>
		<g>
			<path d="M391.851,120.323c-0.028-0.028-0.051-0.06-0.08-0.088s-0.06-0.052-0.088-0.08C356.944,85.458,308.98,64,256.006,64
				c-52.974,0-100.938,21.458-135.677,56.155c-0.028,0.028-0.06,0.051-0.088,0.08s-0.052,0.06-0.08,0.088
				C85.464,155.062,64.006,203.026,64.006,256c0,106.033,85.967,192,192,192s192-85.967,192-192
				C448.006,203.026,426.548,155.062,391.851,120.323z M384.006,277.333h19.81c-3.62,25.296-13.57,48.551-28.21,68.097
				L361.6,331.424c-8.331-8.331-21.839-8.331-30.17,0c-8.331,8.331-8.331,21.839,0,30.17l14.006,14.006
				c-19.546,14.639-42.8,24.59-68.097,28.21V384c0-11.782-9.551-21.333-21.333-21.333s-21.333,9.551-21.333,21.333v19.81
				c-25.296-3.62-48.551-13.57-68.097-28.21l14.006-14.006c8.331-8.331,8.331-21.839,0-30.17c-8.331-8.331-21.839-8.331-30.17,0
				l-14.006,14.006c-14.639-19.546-24.59-42.8-28.21-68.097h19.809c11.782,0,21.333-9.551,21.333-21.333
				s-9.551-21.333-21.333-21.333h-19.809c3.62-25.296,13.57-48.551,28.21-68.097l14,14c8.331,8.331,21.839,8.331,30.17,0
				s8.331-21.839,0-30.17l-14-14c19.546-14.639,42.8-24.59,68.097-28.21V128c0,11.782,9.551,21.333,21.333,21.333
				s21.333-9.551,21.333-21.333v-19.809c25.296,3.62,48.551,13.57,68.097,28.21l-14,14c-8.331,8.331-8.331,21.839,0,30.17
				s21.839,8.331,30.17,0l14-14c14.639,19.546,24.59,42.8,28.21,68.097h-19.81c-11.782,0-21.333,9.551-21.333,21.333
				S372.224,277.333,384.006,277.333z"/>
			<path d="M460.735,473.535l-34.952-25.954c52.882-46.898,86.223-115.342,86.223-191.581c0-39.541-8.971-76.984-24.979-110.416
				c33.293-34.048,33.068-87.509-0.021-120.598c-32.707-32.707-85.395-33.302-118.828-1.784l-2.37,1.491
				C332.531,8.867,295.306,0,256.006,0c-39.3,0-76.527,8.867-109.804,24.693l-2.368-1.49C110.401-8.314,57.713-7.719,25.006,24.988
				C-8.313,58.307-8.326,112.292,24.964,145.63C8.969,179.05,0.006,216.478,0.006,256c0,76.192,33.299,144.597,86.124,191.493
				l-34.907,26.099c-9.436,7.055-11.367,20.424-4.311,29.86c7.055,9.436,20.424,11.367,29.86,4.311l45.081-33.705
				C160.865,498.111,206.811,512,256.006,512c49.128,0,95.018-13.851,133.996-37.844l45.296,33.635
				c9.459,7.024,22.822,5.05,29.846-4.41C472.168,493.921,470.194,480.559,460.735,473.535z M456.836,55.155
				c13.9,13.9,16.208,34.981,6.931,51.269c-16.142-22.382-35.809-42.048-58.191-58.189
				C421.856,38.966,442.953,41.272,456.836,55.155z M55.176,55.157c13.883-13.883,34.978-16.189,51.259-6.922
				c-22.43,16.176-42.134,35.892-58.295,58.333C38.918,90.612,41.121,69.213,55.176,55.157z M42.673,256
				c0-37.189,9.525-72.15,26.255-102.592c0.428-0.604,0.834-1.233,1.207-1.895c19.913-35.353,49.478-64.403,85.055-83.517
				c0.255-0.137,0.496-0.287,0.743-0.432c29.846-15.884,63.905-24.897,100.073-24.897c36.184,0,70.256,9.021,100.112,24.918
				c0.234,0.137,0.462,0.279,0.703,0.409c35.578,19.114,65.143,48.164,85.056,83.517c0.371,0.659,0.775,1.284,1.2,1.885
				c16.734,30.445,26.262,65.411,26.262,102.604c0,117.818-95.515,213.333-213.333,213.333S42.673,373.818,42.673,256z"/>
			<path d="M256.006,170.667c-11.782,0-21.333,9.551-21.333,21.333v42.667h-21.333c-11.782,0-21.333,9.551-21.333,21.333
				s9.551,21.333,21.333,21.333h42.667c11.782,0,21.333-9.551,21.333-21.333v-64C277.339,180.218,267.788,170.667,256.006,170.667z"
				/>
		</g>
	</g>
</g>
<g>
</g>
<g>
</g>
<g>
</g>
<g>
</g>
<g>
</g>
<g>
</g>
<g>
</g>
<g>
</g>
<g>
</g>
<g>
</g>
<g>
</g>
<g>
</g>
<g>
</g>
<g>
</g>
<g>
</g>
</svg>
