<?xml version="1.0" encoding="iso-8859-1"?>
<!-- Generator: Adobe Illustrator 19.0.0, SVG Export Plug-In . SVG Version: 6.00 Build 0)  -->
<svg version="1.1" id="Layer_1" xmlns="http://www.w3.org/2000/svg" xmlns:xlink="http://www.w3.org/1999/xlink" x="0px" y="0px"
	 viewBox="0 0 512 512" style="enable-background:new 0 0 512 512;" xml:space="preserve">
<g>
	<g>
		<g>
			<path d="M469.333,469.333h-42.667v-64V384c0-54.328-29.007-101.871-72.377-128c43.37-26.129,72.377-73.672,72.377-128V42.667
				h42.667c11.782,0,21.333-9.551,21.333-21.333C490.667,9.551,481.115,0,469.333,0h-64h-128C265.551,0,256,9.551,256,21.333
				c0,11.782,9.551,21.333,21.333,21.333H384V128c0,7.306-0.736,14.44-2.135,21.333H277.333c-11.782,0-21.333,9.551-21.333,21.333
				c0,11.782,9.551,21.333,21.333,21.333h85.202c-0.072,0.097-0.141,0.196-0.213,0.293c-0.19,0.251-0.385,0.497-0.577,0.747
				c-0.565,0.735-1.139,1.463-1.723,2.182c-0.243,0.3-0.488,0.599-0.734,0.896c-0.613,0.739-1.237,1.469-1.869,2.191
				c-0.179,0.204-0.354,0.412-0.534,0.615c-0.806,0.906-1.627,1.796-2.461,2.673c-0.205,0.215-0.415,0.424-0.621,0.637
				c-0.651,0.672-1.31,1.337-1.978,1.991c-0.274,0.269-0.55,0.536-0.828,0.802c-0.68,0.652-1.368,1.293-2.064,1.926
				c-0.213,0.194-0.423,0.392-0.638,0.584c-0.901,0.806-1.815,1.597-2.743,2.372c-0.211,0.176-0.427,0.347-0.639,0.522
				c-0.735,0.604-1.477,1.199-2.227,1.784c-0.303,0.236-0.607,0.469-0.912,0.702c-0.736,0.56-1.479,1.11-2.23,1.651
				c-0.248,0.179-0.494,0.362-0.744,0.539c-0.987,0.699-1.984,1.382-2.995,2.047c-0.208,0.137-0.42,0.268-0.629,0.403
				c-0.819,0.531-1.644,1.051-2.478,1.559c-0.326,0.199-0.653,0.395-0.981,0.59c-0.787,0.468-1.58,0.926-2.379,1.374
				c-0.281,0.158-0.56,0.319-0.842,0.474c-1.062,0.583-2.134,1.151-3.216,1.698c-0.198,0.1-0.399,0.194-0.598,0.293
				c-0.899,0.447-1.805,0.882-2.717,1.305c-0.346,0.16-0.695,0.317-1.043,0.474c-0.83,0.373-1.666,0.735-2.506,1.088
				c-0.31,0.13-0.619,0.264-0.931,0.391c-1.129,0.461-2.265,0.905-3.412,1.328c-0.174,0.064-0.351,0.123-0.526,0.186
				c-0.983,0.356-1.972,0.697-2.967,1.025c-0.363,0.119-0.727,0.235-1.091,0.35c-0.868,0.275-1.741,0.539-2.617,0.792
				c-0.337,0.097-0.673,0.198-1.011,0.292c-1.186,0.33-2.378,0.644-3.579,0.934c-0.135,0.033-0.272,0.06-0.407,0.092
				c-1.073,0.254-2.152,0.49-3.236,0.711c-0.374,0.076-0.75,0.148-1.126,0.22c-0.9,0.174-1.804,0.335-2.711,0.486
				c-0.36,0.06-0.719,0.122-1.079,0.178c-1.234,0.192-2.473,0.368-3.72,0.517c-0.079,0.009-0.159,0.016-0.238,0.025
				c-1.17,0.137-2.346,0.251-3.526,0.349c-0.381,0.032-0.763,0.058-1.145,0.086c-0.928,0.067-1.859,0.122-2.792,0.166
				c-0.376,0.017-0.752,0.037-1.128,0.051c-0.003,0-0.007,0-0.01,0c-1.272,0.045-2.547,0.076-3.828,0.076
				C265.551,234.667,256,244.218,256,256v85.333c0,11.782,9.551,21.333,21.333,21.333c11.782,0,21.333-9.551,21.333-21.333v-61.865
				C347.358,289.35,384,332.39,384,384H277.333C265.551,384,256,393.551,256,405.333c0,11.782,9.551,21.333,21.333,21.333H384
				v42.667H277.333c-11.782,0-21.333,9.551-21.333,21.333S265.551,512,277.333,512h128h64c11.782,0,21.333-9.551,21.333-21.333
				S481.115,469.333,469.333,469.333z"/>
			<path d="M192,234.667H42.667c-11.782,0-21.333,9.551-21.333,21.333s9.551,21.333,21.333,21.333H192
				c11.782,0,21.333-9.551,21.333-21.333S203.782,234.667,192,234.667z"/>
			<path d="M192,149.333H85.333c-11.782,0-21.333,9.551-21.333,21.333C64,182.449,73.551,192,85.333,192H192
				c11.782,0,21.333-9.551,21.333-21.333C213.333,158.885,203.782,149.333,192,149.333z"/>
			<path d="M192,64h-64c-11.782,0-21.333,9.551-21.333,21.333c0,11.782,9.551,21.333,21.333,21.333h64
				c11.782,0,21.333-9.551,21.333-21.333C213.333,73.551,203.782,64,192,64z"/>
			<path d="M192,320H85.333C73.551,320,64,329.551,64,341.333c0,11.782,9.551,21.333,21.333,21.333H192
				c11.782,0,21.333-9.551,21.333-21.333C213.333,329.551,203.782,320,192,320z"/>
			<path d="M192,405.333h-64c-11.782,0-21.333,9.551-21.333,21.333S116.218,448,128,448h64c11.782,0,21.333-9.551,21.333-21.333
				S203.782,405.333,192,405.333z"/>
		</g>
	</g>
</g>
<g>
</g>
<g>
</g>
<g>
</g>
<g>
</g>
<g>
</g>
<g>
</g>
<g>
</g>
<g>
</g>
<g>
</g>
<g>
</g>
<g>
</g>
<g>
</g>
<g>
</g>
<g>
</g>
<g>
</g>
</svg>
