<?xml version="1.0" encoding="iso-8859-1"?>
<!-- Generator: Adobe Illustrator 19.0.0, SVG Export Plug-In . SVG Version: 6.00 Build 0)  -->
<svg version="1.1" id="Layer_1" xmlns="http://www.w3.org/2000/svg" xmlns:xlink="http://www.w3.org/1999/xlink" x="0px" y="0px"
	 viewBox="0 0 512 512" style="enable-background:new 0 0 512 512;" xml:space="preserve">
<g>
	<g>
		<g>
			<path d="M490.667,74.667H237.185l-26.104-52.207C207.467,15.232,200.08,10.667,192,10.667H21.333C9.551,10.667,0,20.218,0,32v448
				c0,11.782,9.551,21.333,21.333,21.333h469.333c11.782,0,21.333-9.551,21.333-21.333V160V96
				C512,84.218,502.449,74.667,490.667,74.667z M469.333,117.333v21.333H269.185l-10.667-21.333H469.333z M42.667,458.667V53.333
				h136.149l26.104,52.207l32,64c3.614,7.227,11.001,11.793,19.081,11.793h213.333v277.333H42.667z"/>
			<path d="M341.333,288c0-47.131-38.202-85.333-85.333-85.333S170.667,240.869,170.667,288c-11.782,0-21.333,9.551-21.333,21.333
				V416c0,11.782,9.551,21.333,21.333,21.333h170.667c11.782,0,21.333-9.551,21.333-21.333V309.333
				C362.667,297.551,353.115,288,341.333,288z M256,245.333c23.567,0,42.667,19.099,42.667,42.667h-85.333
				C213.333,264.433,232.433,245.333,256,245.333z M320,394.667H192v-64h128V394.667z"/>
		</g>
	</g>
</g>
<g>
</g>
<g>
</g>
<g>
</g>
<g>
</g>
<g>
</g>
<g>
</g>
<g>
</g>
<g>
</g>
<g>
</g>
<g>
</g>
<g>
</g>
<g>
</g>
<g>
</g>
<g>
</g>
<g>
</g>
</svg>
