<?xml version="1.0" encoding="iso-8859-1"?>
<!-- Generator: Adobe Illustrator 19.0.0, SVG Export Plug-In . SVG Version: 6.00 Build 0)  -->
<svg version="1.1" id="Layer_1" xmlns="http://www.w3.org/2000/svg" xmlns:xlink="http://www.w3.org/1999/xlink" x="0px" y="0px"
	 viewBox="0 0 512 512" style="enable-background:new 0 0 512 512;" xml:space="preserve">
<g>
	<g>
		<g>
			<path d="M256,0C114.618,0,0,114.618,0,256s114.618,256,256,256s256-114.618,256-256S397.382,0,256,0z M256,469.333
				c-117.818,0-213.333-95.515-213.333-213.333S138.182,42.667,256,42.667S469.333,138.182,469.333,256S373.818,469.333,256,469.333
				z"/>
			<path d="M330.347,109.708l-99.072,59.456c-1.636,0.976-3.538,1.503-5.449,1.503h-76.501c-23.558,0-42.667,19.109-42.667,42.667
				v85.333c0,23.558,19.109,42.667,42.667,42.667h76.501c1.911,0,3.813,0.527,5.497,1.532l99.024,59.427
				c14.219,8.533,32.311-1.709,32.311-18.292V128C362.658,111.417,344.566,101.175,330.347,109.708z M319.991,346.317
				l-66.761-40.065c-8.326-4.967-17.777-7.585-27.404-7.585h-76.501v-85.333h76.501c9.627,0,19.079-2.618,27.356-7.556
				l66.809-40.094V346.317z"/>
		</g>
	</g>
</g>
<g>
</g>
<g>
</g>
<g>
</g>
<g>
</g>
<g>
</g>
<g>
</g>
<g>
</g>
<g>
</g>
<g>
</g>
<g>
</g>
<g>
</g>
<g>
</g>
<g>
</g>
<g>
</g>
<g>
</g>
</svg>
