<?xml version="1.0" encoding="iso-8859-1"?>
<!-- Generator: Adobe Illustrator 19.0.0, SVG Export Plug-In . SVG Version: 6.00 Build 0)  -->
<svg version="1.1" id="Layer_1" xmlns="http://www.w3.org/2000/svg" xmlns:xlink="http://www.w3.org/1999/xlink" x="0px" y="0px"
	 viewBox="0 0 512 512" style="enable-background:new 0 0 512 512;" xml:space="preserve">
<g>
	<g>
		<g>
			<path d="M384,149.333H277.333v-24.987C302.192,115.562,320,91.872,320,64c0-35.355-28.645-64-64-64s-64,28.645-64,64
				c0,27.872,17.808,51.562,42.667,60.346v24.987H128c-47.131,0-85.333,38.202-85.333,85.333S80.869,320,128,320h106.667v149.333
				h-64c-11.782,0-21.333,9.551-21.333,21.333S158.885,512,170.667,512h170.667c11.782,0,21.333-9.551,21.333-21.333
				s-9.551-21.333-21.333-21.333h-64V320H384c47.131,0,85.333-38.202,85.333-85.333S431.131,149.333,384,149.333z M256,42.667
				c11.791,0,21.333,9.542,21.333,21.333S267.791,85.333,256,85.333c-11.791,0-21.333-9.542-21.333-21.333
				S244.209,42.667,256,42.667z M384,277.333H128c-23.567,0-42.667-19.099-42.667-42.667S104.433,192,128,192h256
				c23.567,0,42.667,19.099,42.667,42.667S407.567,277.333,384,277.333z"/>
			<path d="M320,213.333H192c-11.782,0-21.333,9.551-21.333,21.333c0,11.782,9.551,21.333,21.333,21.333h128
				c11.782,0,21.333-9.551,21.333-21.333C341.333,222.885,331.782,213.333,320,213.333z"/>
		</g>
	</g>
</g>
<g>
</g>
<g>
</g>
<g>
</g>
<g>
</g>
<g>
</g>
<g>
</g>
<g>
</g>
<g>
</g>
<g>
</g>
<g>
</g>
<g>
</g>
<g>
</g>
<g>
</g>
<g>
</g>
<g>
</g>
</svg>
