<?xml version="1.0" encoding="iso-8859-1"?>
<!-- Generator: Adobe Illustrator 19.0.0, SVG Export Plug-In . SVG Version: 6.00 Build 0)  -->
<svg version="1.1" id="Layer_1" xmlns="http://www.w3.org/2000/svg" xmlns:xlink="http://www.w3.org/1999/xlink" x="0px" y="0px"
	 viewBox="0 0 512 512" style="enable-background:new 0 0 512 512;" xml:space="preserve">
<g>
	<g>
		<g>
			<path d="M448.002,128h-384c-12.305,0-22.059,10.382-21.292,22.663l18.816,301.205C63.637,485.666,91.674,512,125.549,512h260.907
				c33.858,0,61.891-26.339,64.001-60.132l18.837-301.203C470.062,138.383,460.308,128,448.002,128z M407.873,449.207
				c-0.706,11.308-10.092,20.126-21.418,20.126H125.549c-11.346,0-20.733-8.817-21.439-20.124l-17.4-278.543h338.583
				L407.873,449.207z"/>
			<path d="M490.667,64H378.048l-2.095-6.292C364.443,23.236,332.208,0,295.893,0h-79.787c-36.314,0-68.55,23.236-80.054,57.692
				L133.952,64H21.333C9.551,64,0,73.551,0,85.333c0,11.782,9.551,21.333,21.333,21.333h128h213.333h128
				c11.782,0,21.333-9.551,21.333-21.333C512,73.551,502.449,64,490.667,64z M179.706,64c7.278-12.997,21.109-21.333,36.401-21.333
				h79.787c15.288,0,29.115,8.332,36.399,21.333H179.706z"/>
			<path d="M149.333,426.667h213.333c11.782,0,21.333-9.551,21.333-21.333c0-11.782-9.551-21.333-21.333-21.333H149.333
				C137.551,384,128,393.551,128,405.333C128,417.115,137.551,426.667,149.333,426.667z"/>
			<path d="M149.333,341.333h213.333c11.782,0,21.333-9.551,21.333-21.333s-9.551-21.333-21.333-21.333H149.333
				C137.551,298.667,128,308.218,128,320S137.551,341.333,149.333,341.333z"/>
		</g>
	</g>
</g>
<g>
</g>
<g>
</g>
<g>
</g>
<g>
</g>
<g>
</g>
<g>
</g>
<g>
</g>
<g>
</g>
<g>
</g>
<g>
</g>
<g>
</g>
<g>
</g>
<g>
</g>
<g>
</g>
<g>
</g>
</svg>
