<?xml version="1.0" encoding="iso-8859-1"?>
<!-- Generator: Adobe Illustrator 19.0.0, SVG Export Plug-In . SVG Version: 6.00 Build 0)  -->
<svg version="1.1" id="Layer_1" xmlns="http://www.w3.org/2000/svg" xmlns:xlink="http://www.w3.org/1999/xlink" x="0px" y="0px"
	 viewBox="0 0 512 512" style="enable-background:new 0 0 512 512;" xml:space="preserve">
<g>
	<g>
		<g>
			<path d="M448,0H64C52.218,0,42.667,9.551,42.667,21.333v469.333C42.667,502.449,52.218,512,64,512h384
				c11.782,0,21.333-9.551,21.333-21.333V21.333C469.333,9.551,459.782,0,448,0z M426.667,469.333H85.333V42.667h341.333V469.333z"
				/>
			<path d="M128,192h256c11.782,0,21.333-9.551,21.333-21.333v-64c0-11.782-9.551-21.333-21.333-21.333H128
				c-11.782,0-21.333,9.551-21.333,21.333v64C106.667,182.449,116.218,192,128,192z M149.333,128h213.333v21.333H149.333V128z"/>
			<path d="M128,320h85.333c11.782,0,21.333-9.551,21.333-21.333v-64c0-11.782-9.551-21.333-21.333-21.333H128
				c-11.782,0-21.333,9.551-21.333,21.333v64C106.667,310.449,116.218,320,128,320z M149.333,256H192v21.333h-42.667V256z"/>
			<path d="M384,213.333h-85.333c-11.782,0-21.333,9.551-21.333,21.333v64c0,11.782,9.551,21.333,21.333,21.333H384
				c11.782,0,21.333-9.551,21.333-21.333v-64C405.333,222.885,395.782,213.333,384,213.333z M362.667,277.333H320V256h42.667
				V277.333z"/>
			<path d="M128,448h85.333c11.782,0,21.333-9.551,21.333-21.333v-64c0-11.782-9.551-21.333-21.333-21.333H128
				c-11.782,0-21.333,9.551-21.333,21.333v64C106.667,438.449,116.218,448,128,448z M149.333,384H192v21.333h-42.667V384z"/>
			<path d="M384,341.333h-85.333c-11.782,0-21.333,9.551-21.333,21.333v64c0,11.782,9.551,21.333,21.333,21.333H384
				c11.782,0,21.333-9.551,21.333-21.333v-64C405.333,350.885,395.782,341.333,384,341.333z M362.667,405.333H320V384h42.667
				V405.333z"/>
		</g>
	</g>
</g>
<g>
</g>
<g>
</g>
<g>
</g>
<g>
</g>
<g>
</g>
<g>
</g>
<g>
</g>
<g>
</g>
<g>
</g>
<g>
</g>
<g>
</g>
<g>
</g>
<g>
</g>
<g>
</g>
<g>
</g>
</svg>
