<?xml version="1.0" encoding="iso-8859-1"?>
<!-- Generator: Adobe Illustrator 19.0.0, SVG Export Plug-In . SVG Version: 6.00 Build 0)  -->
<svg version="1.1" id="Layer_1" xmlns="http://www.w3.org/2000/svg" xmlns:xlink="http://www.w3.org/1999/xlink" x="0px" y="0px"
	 viewBox="0 0 512 512" style="enable-background:new 0 0 512 512;" xml:space="preserve">
<g>
	<g>
		<g>
			<path d="M256,298.667c-11.782,0-21.333,9.551-21.333,21.333v42.667c0,11.782,9.551,21.333,21.333,21.333
				s21.333-9.551,21.333-21.333V320C277.333,308.218,267.782,298.667,256,298.667z"/>
			<path d="M256,405.333c-11.776,0-21.333,9.557-21.333,21.333S244.224,448,256,448s21.333-9.557,21.333-21.333
				S267.776,405.333,256,405.333z"/>
			<path d="M431.521,362.107C479.303,350.942,512,307.345,512,256c0-48.509-24.135-87.166-65.147-101.905
				C436.921,75.59,364.579,0,289.045,0c-44.338,0-87.775,21.612-116.824,55.448c-0.159-0.058-0.323-0.106-0.483-0.163
				c-1.072-0.385-2.151-0.754-3.238-1.095c-0.395-0.124-0.798-0.232-1.196-0.35c-0.907-0.271-1.815-0.535-2.732-0.776
				c-0.41-0.107-0.824-0.203-1.236-0.304c-0.932-0.23-1.866-0.449-2.807-0.648c-0.384-0.081-0.771-0.156-1.157-0.232
				c-1.005-0.198-2.015-0.379-3.029-0.541c-0.327-0.052-0.654-0.104-0.982-0.152c-1.139-0.169-2.283-0.313-3.432-0.436
				c-0.211-0.023-0.421-0.049-0.633-0.07c-2.835-0.282-5.694-0.441-8.576-0.441c-5.931,0-11.719,0.61-17.312,1.753
				c-0.11,0.022-0.218,0.05-0.328,0.073c-1.265,0.264-2.521,0.55-3.765,0.869c-0.226,0.058-0.447,0.125-0.672,0.185
				c-1.123,0.297-2.24,0.609-3.345,0.95c-0.299,0.092-0.594,0.196-0.892,0.292c-1.021,0.328-2.038,0.665-3.043,1.03
				c-0.35,0.127-0.693,0.265-1.041,0.397c-0.942,0.356-1.88,0.719-2.806,1.106c-0.384,0.161-0.761,0.333-1.143,0.499
				c-0.877,0.382-1.75,0.77-2.612,1.181c-0.408,0.194-0.809,0.399-1.214,0.6c-0.82,0.407-1.637,0.819-2.442,1.251
				c-0.424,0.227-0.841,0.464-1.26,0.698c-0.771,0.43-1.538,0.866-2.295,1.319c-0.432,0.259-0.857,0.526-1.283,0.792
				c-0.727,0.453-1.45,0.912-2.163,1.387c-0.435,0.289-0.864,0.587-1.294,0.884c-0.687,0.475-1.368,0.956-2.04,1.45
				c-0.434,0.319-0.862,0.645-1.29,0.972c-0.65,0.497-1.293,1-1.928,1.515c-0.428,0.347-0.85,0.699-1.271,1.054
				c-0.615,0.519-1.223,1.044-1.823,1.579c-0.419,0.374-0.834,0.752-1.245,1.133c-0.581,0.539-1.154,1.085-1.72,1.639
				c-0.409,0.4-0.813,0.803-1.214,1.212c-0.548,0.559-1.088,1.126-1.621,1.7c-0.394,0.424-0.785,0.85-1.17,1.281
				c-0.517,0.58-1.025,1.168-1.526,1.762c-0.377,0.446-0.753,0.894-1.121,1.348c-0.487,0.601-0.962,1.21-1.433,1.824
				c-0.358,0.466-0.715,0.933-1.063,1.406c-0.458,0.622-0.902,1.254-1.344,1.889c-0.336,0.484-0.673,0.967-1,1.458
				c-0.429,0.645-0.843,1.3-1.255,1.957c-0.313,0.499-0.627,0.996-0.93,1.502c-0.4,0.669-0.784,1.348-1.167,2.028
				c-0.287,0.511-0.578,1.02-0.855,1.537c-0.373,0.696-0.726,1.402-1.08,2.109c-0.259,0.518-0.524,1.033-0.773,1.558
				c-0.345,0.725-0.669,1.461-0.993,2.197c-0.23,0.522-0.467,1.04-0.687,1.567c-0.318,0.761-0.612,1.533-0.909,2.304
				c-0.198,0.516-0.405,1.028-0.593,1.549c-0.291,0.805-0.557,1.622-0.825,2.438c-0.165,0.502-0.339,0.998-0.495,1.504
				c-0.266,0.864-0.503,1.739-0.742,2.614c-0.128,0.47-0.269,0.935-0.389,1.408c-0.243,0.953-0.455,1.917-0.665,2.882
				c-0.089,0.406-0.191,0.808-0.274,1.216c-0.224,1.105-0.415,2.221-0.597,3.341c-0.045,0.278-0.103,0.551-0.145,0.83
				c-0.43,2.827-0.727,5.699-0.875,8.609C22.923,153.637,0,193.779,0,234.667c0,51.181,32.639,107.13,76.869,126.249
				c2.672,1.155,5.553,1.751,8.465,1.751h48.572L66.811,480.082C58.684,494.304,68.953,512,85.333,512h341.333
				c16.38,0,26.649-17.696,18.523-31.918l-67.095-117.416h48.572C428.301,362.667,429.93,362.479,431.521,362.107z M122.094,469.333
				l67.094-117.415c0,0,0-0.001,0-0.001L256,234.999l66.811,116.919c0,0,0,0.001,0,0.001l67.094,117.415H122.094z M353.714,320
				l-79.191-138.584c-8.19-14.332-28.855-14.332-37.045,0L158.286,320H90.149c-26.097-13.77-47.482-51.905-47.482-85.333
				c0-29.044,18.953-58.769,44.525-71.023c7.404-3.548,12.115-11.029,12.115-19.239c0-0.349,0.02-0.856,0.069-1.711
				c0.063-1.063,0.063-1.063,0.087-1.471l0.007-2.337c-0.054-0.935-0.054-0.935-0.102-1.615c-0.041-0.651-0.055-0.859-0.059-0.924
				c0-0.013,0.002-0.025,0.002-0.037c0-23.964,19.432-43.392,43.392-43.392c6.714,0,13.07,1.524,18.744,4.243
				c0.095,0.046,0.189,0.094,0.283,0.14c0.459,0.224,0.913,0.458,1.362,0.697c0.193,0.103,0.386,0.206,0.577,0.313
				c0.355,0.196,0.705,0.4,1.053,0.605c0.212,0.125,0.425,0.246,0.635,0.374c12.451,7.628,20.758,21.352,20.758,37.019
				c0,11.782,9.551,21.333,21.333,21.333c11.782,0,21.333-9.551,21.333-21.333c0-21.614-7.987-41.348-21.146-56.462
				c21.119-22.726,51.409-37.183,81.408-37.183c49.199,0,100.887,51.122,113.432,105.342c-5.924,0.105-11.873,0.508-17.734,1.311
				c-0.88,0.123-0.88,0.123-1.763,0.254c-11.649,1.765-19.661,12.64-17.896,24.289c1.765,11.649,12.64,19.661,24.289,17.896
				c0.578-0.086,0.578-0.086,1.16-0.167c8.911-1.22,18.862-1.18,28.185-0.349c1.984,0.177,3.465,0.346,4.346,0.462
				c29.208,5.67,46.27,29.301,46.27,64.296c0,31.137-18.507,56.637-45.318,64H353.714z"/>
		</g>
	</g>
</g>
<g>
</g>
<g>
</g>
<g>
</g>
<g>
</g>
<g>
</g>
<g>
</g>
<g>
</g>
<g>
</g>
<g>
</g>
<g>
</g>
<g>
</g>
<g>
</g>
<g>
</g>
<g>
</g>
<g>
</g>
</svg>
