<?xml version="1.0" encoding="iso-8859-1"?>
<!-- Generator: Adobe Illustrator 19.0.0, SVG Export Plug-In . SVG Version: 6.00 Build 0)  -->
<svg version="1.1" id="Layer_1" xmlns="http://www.w3.org/2000/svg" xmlns:xlink="http://www.w3.org/1999/xlink" x="0px" y="0px"
	 viewBox="0 0 512.01 512.01" style="enable-background:new 0 0 512.01 512.01;" xml:space="preserve">
<g>
	<g>
		<g>
			<path d="M487.029,25.006c-33.34-33.34-87.36-33.34-120.694-0.006c-8.331,8.331-8.331,21.839,0,30.17l30.169,30.169
				l-20.664,20.664c-32.847-26.275-74.502-41.997-119.833-41.997s-86.986,15.722-119.833,41.997l-20.664-20.664l30.178-30.178
				c8.334-8.334,8.331-21.846-0.006-30.176c-33.332-33.304-87.342-33.304-120.674,0c-33.34,33.34-33.34,87.36-0.006,120.694
				c8.331,8.331,21.839,8.331,30.17,0l30.169-30.17l20.664,20.664c-26.275,32.847-41.997,74.502-41.997,119.833
				c0,61.357,28.787,115.994,73.59,151.144l-67.469,68.564c-8.264,8.398-8.155,21.905,0.243,30.169
				c8.398,8.264,21.905,8.155,30.169-0.243l74.364-75.572c24.64,11.501,52.118,17.938,81.103,17.938
				c29.056,0,56.599-6.468,81.286-18.023l74.158,75.624c8.249,8.412,21.756,8.545,30.168,0.295
				c8.412-8.249,8.545-21.756,0.295-30.168l-67.359-68.691c44.724-35.154,73.452-89.743,73.452-151.037
				c0-45.331-15.722-86.986-41.997-119.833l20.664-20.664l30.178,30.178c8.334,8.334,21.846,8.331,30.176-0.006
				C520.333,112.348,520.333,58.338,487.029,25.006z M44.119,96.391c-3.807-14.237-0.123-30.055,11.053-41.23
				c11.168-11.159,26.983-14.84,41.219-11.042L44.119,96.391z M384.008,277.339h19.81c-3.62,25.296-13.57,48.551-28.21,68.097
				l-14.006-14.006c-8.331-8.331-21.839-8.331-30.17,0c-8.331,8.331-8.331,21.839,0,30.17l14.006,14.006
				c-19.546,14.639-42.8,24.59-68.097,28.21v-19.81c0-11.782-9.551-21.333-21.333-21.333s-21.333,9.551-21.333,21.333v19.81
				c-25.296-3.62-48.551-13.57-68.097-28.21l14.006-14.006c8.331-8.331,8.331-21.839,0-30.17c-8.331-8.331-21.839-8.331-30.17,0
				l-14.006,14.006c-14.639-19.546-24.59-42.8-28.21-68.097h19.809c11.782,0,21.333-9.551,21.333-21.333
				c0-11.782-9.551-21.333-21.333-21.333h-19.809c3.62-25.297,13.571-48.552,28.211-68.098l14.001,14.001
				c8.331,8.331,21.839,8.331,30.17,0s8.331-21.839,0-30.17l-14.001-14.001c19.545-14.639,42.8-24.589,68.095-28.209v19.809
				c0,11.782,9.551,21.333,21.333,21.333s21.333-9.551,21.333-21.333v-19.809c25.296,3.62,48.551,13.57,68.097,28.21l-14,14
				c-8.331,8.331-8.331,21.839,0,30.17s21.839,8.331,30.17,0l14-14c14.639,19.546,24.59,42.8,28.21,68.097h-19.81
				c-11.782,0-21.333,9.551-21.333,21.333C362.675,267.788,372.226,277.339,384.008,277.339z M467.895,96.389l-52.272-52.272
				c14.237-3.807,30.055-0.123,41.23,11.053C468.012,66.338,471.693,82.153,467.895,96.389z"/>
			<path d="M256.008,170.672c-11.782,0-21.333,9.551-21.333,21.333v42.667h-21.333c-11.782,0-21.333,9.551-21.333,21.333
				c0,11.782,9.551,21.333,21.333,21.333h42.667c11.782,0,21.333-9.551,21.333-21.333v-64
				C277.342,180.223,267.79,170.672,256.008,170.672z"/>
		</g>
	</g>
</g>
<g>
</g>
<g>
</g>
<g>
</g>
<g>
</g>
<g>
</g>
<g>
</g>
<g>
</g>
<g>
</g>
<g>
</g>
<g>
</g>
<g>
</g>
<g>
</g>
<g>
</g>
<g>
</g>
<g>
</g>
</svg>
