<?xml version="1.0" encoding="iso-8859-1"?>
<!-- Generator: Adobe Illustrator 19.0.0, SVG Export Plug-In . SVG Version: 6.00 Build 0)  -->
<svg version="1.1" id="Layer_1" xmlns="http://www.w3.org/2000/svg" xmlns:xlink="http://www.w3.org/1999/xlink" x="0px" y="0px"
	 viewBox="0 0 512 512" style="enable-background:new 0 0 512 512;" xml:space="preserve">
<g>
	<g>
		<g>
			<path d="M426.667,42.667h-64V21.333C362.667,9.551,353.115,0,341.333,0H170.667c-11.782,0-21.333,9.551-21.333,21.333v21.333h-64
				C73.551,42.667,64,52.218,64,64v426.667C64,502.449,73.551,512,85.333,512H256h170.667c11.782,0,21.333-9.551,21.333-21.333V320
				V64C448,52.218,438.449,42.667,426.667,42.667z M192,42.667h128V64v21.333H192V64V42.667z M106.667,85.333h42.667v21.333
				c0,11.782,9.551,21.333,21.333,21.333h170.667c11.782,0,21.333-9.551,21.333-21.333V85.333h42.667v225.83l-158.17,158.17H106.667
				V85.333z M405.333,469.333h-97.83l97.83-97.83V469.333z"/>
			<path d="M256,234.667h85.333c11.782,0,21.333-9.551,21.333-21.333c0-11.782-9.551-21.333-21.333-21.333H256
				c-11.782,0-21.333,9.551-21.333,21.333C234.667,225.115,244.218,234.667,256,234.667z"/>
			<path d="M170.667,234.667H192c11.782,0,21.333-9.551,21.333-21.333c0-11.782-9.551-21.333-21.333-21.333h-21.333
				c-11.782,0-21.333,9.551-21.333,21.333C149.333,225.115,158.885,234.667,170.667,234.667z"/>
			<path d="M341.333,277.333H320c-11.782,0-21.333,9.551-21.333,21.333c0,11.782,9.551,21.333,21.333,21.333h21.333
				c11.782,0,21.333-9.551,21.333-21.333C362.667,286.885,353.115,277.333,341.333,277.333z"/>
			<path d="M170.667,320H256c11.782,0,21.333-9.551,21.333-21.333c0-11.782-9.551-21.333-21.333-21.333h-85.333
				c-11.782,0-21.333,9.551-21.333,21.333C149.333,310.449,158.885,320,170.667,320z"/>
			<path d="M277.333,405.333c11.782,0,21.333-9.551,21.333-21.333c0-11.782-9.551-21.333-21.333-21.333H170.667
				c-11.782,0-21.333,9.551-21.333,21.333c0,11.782,9.551,21.333,21.333,21.333H277.333z"/>
		</g>
	</g>
</g>
<g>
</g>
<g>
</g>
<g>
</g>
<g>
</g>
<g>
</g>
<g>
</g>
<g>
</g>
<g>
</g>
<g>
</g>
<g>
</g>
<g>
</g>
<g>
</g>
<g>
</g>
<g>
</g>
<g>
</g>
</svg>
