<?xml version="1.0" encoding="iso-8859-1"?>
<!-- Generator: Adobe Illustrator 19.0.0, SVG Export Plug-In . SVG Version: 6.00 Build 0)  -->
<svg version="1.1" id="Layer_1" xmlns="http://www.w3.org/2000/svg" xmlns:xlink="http://www.w3.org/1999/xlink" x="0px" y="0px"
	 viewBox="0 0 512 512" style="enable-background:new 0 0 512 512;" xml:space="preserve">
<g>
	<g>
		<g>
			<path d="M106.667,170.667c-11.776,0-21.333,9.557-21.333,21.333s9.557,21.333,21.333,21.333S128,203.776,128,192
				S118.443,170.667,106.667,170.667z"/>
			<path d="M192,213.333c11.776,0,21.333-9.557,21.333-21.333s-9.557-21.333-21.333-21.333s-21.333,9.557-21.333,21.333
				S180.224,213.333,192,213.333z"/>
			<path d="M405.333,213.333c11.776,0,21.333-9.557,21.333-21.333s-9.557-21.333-21.333-21.333S384,180.224,384,192
				S393.557,213.333,405.333,213.333z"/>
			<path d="M490.667,106.667h-85.333V21.333C405.333,9.551,395.782,0,384,0H128c-11.782,0-21.333,9.551-21.333,21.333v85.333H21.333
				C9.551,106.667,0,116.218,0,128v149.333v128c0,11.782,9.551,21.333,21.333,21.333h85.333v64c0,11.782,9.551,21.333,21.333,21.333
				h256c11.782,0,21.333-9.551,21.333-21.333v-64h85.333c11.782,0,21.333-9.551,21.333-21.333v-128V128
				C512,116.218,502.449,106.667,490.667,106.667z M149.333,42.667h213.333v64H149.333V42.667z M42.667,149.333H128h256h85.333V256
				H384H128H42.667V149.333z M42.667,384v-85.333h64V384H42.667z M362.667,469.333H149.333v-64V298.667h213.333v106.667V469.333z
				 M469.333,384h-64v-85.333h64V384z"/>
			<path d="M298.667,320h-85.333C201.551,320,192,329.551,192,341.333c0,11.782,9.551,21.333,21.333,21.333h85.333
				c11.782,0,21.333-9.551,21.333-21.333C320,329.551,310.449,320,298.667,320z"/>
			<path d="M298.667,384h-85.333C201.551,384,192,393.551,192,405.333c0,11.782,9.551,21.333,21.333,21.333h85.333
				c11.782,0,21.333-9.551,21.333-21.333C320,393.551,310.449,384,298.667,384z"/>
		</g>
	</g>
</g>
<g>
</g>
<g>
</g>
<g>
</g>
<g>
</g>
<g>
</g>
<g>
</g>
<g>
</g>
<g>
</g>
<g>
</g>
<g>
</g>
<g>
</g>
<g>
</g>
<g>
</g>
<g>
</g>
<g>
</g>
</svg>
