<?xml version="1.0" encoding="iso-8859-1"?>
<!-- Generator: Adobe Illustrator 19.0.0, SVG Export Plug-In . SVG Version: 6.00 Build 0)  -->
<svg version="1.1" id="Layer_1" xmlns="http://www.w3.org/2000/svg" xmlns:xlink="http://www.w3.org/1999/xlink" x="0px" y="0px"
	 viewBox="0 0 512 512" style="enable-background:new 0 0 512 512;" xml:space="preserve">
<g>
	<g>
		<g>
			<path d="M490.667,149.333h-85.333v-128C405.333,9.551,395.782,0,384,0H128c-11.782,0-21.333,9.551-21.333,21.333v128H21.333
				C9.551,149.333,0,158.885,0,170.667v106.667v128c0,11.782,9.551,21.333,21.333,21.333h85.333v64
				c0,11.782,9.551,21.333,21.333,21.333h256c11.782,0,21.333-9.551,21.333-21.333v-64h85.333c11.782,0,21.333-9.551,21.333-21.333
				v-128V170.667C512,158.885,502.449,149.333,490.667,149.333z M149.333,42.667h213.333v106.667H149.333V42.667z M42.667,192H128
				h256h85.333v64H384H128H42.667V192z M42.667,384v-85.333h64V384H42.667z M362.667,469.333H149.333v-64V298.667h213.333v106.667
				V469.333z M469.333,384h-64v-85.333h64V384z"/>
			<path d="M298.667,320h-85.333C201.551,320,192,329.551,192,341.333c0,11.782,9.551,21.333,21.333,21.333h85.333
				c11.782,0,21.333-9.551,21.333-21.333C320,329.551,310.449,320,298.667,320z"/>
			<path d="M213.333,85.333H192c-11.782,0-21.333,9.551-21.333,21.333c0,11.782,9.551,21.333,21.333,21.333h21.333
				c11.782,0,21.333-9.551,21.333-21.333C234.667,94.885,225.115,85.333,213.333,85.333z"/>
			<path d="M320,64h-21.333c-11.782,0-21.333,9.551-21.333,21.333c0,11.782,9.551,21.333,21.333,21.333H320
				c11.782,0,21.333-9.551,21.333-21.333C341.333,73.551,331.782,64,320,64z"/>
			<path d="M298.667,384h-85.333C201.551,384,192,393.551,192,405.333c0,11.782,9.551,21.333,21.333,21.333h85.333
				c11.782,0,21.333-9.551,21.333-21.333C320,393.551,310.449,384,298.667,384z"/>
		</g>
	</g>
</g>
<g>
</g>
<g>
</g>
<g>
</g>
<g>
</g>
<g>
</g>
<g>
</g>
<g>
</g>
<g>
</g>
<g>
</g>
<g>
</g>
<g>
</g>
<g>
</g>
<g>
</g>
<g>
</g>
<g>
</g>
</svg>
