<?xml version="1.0" encoding="iso-8859-1"?>
<!-- Generator: Adobe Illustrator 19.0.0, SVG Export Plug-In . SVG Version: 6.00 Build 0)  -->
<svg version="1.1" id="Layer_1" xmlns="http://www.w3.org/2000/svg" xmlns:xlink="http://www.w3.org/1999/xlink" x="0px" y="0px"
	 viewBox="0 0 512 512" style="enable-background:new 0 0 512 512;" xml:space="preserve">
<g>
	<g>
		<g>
			<path d="M362.667,208.114V106.667C362.667,47.759,314.907,0,256,0S149.333,47.759,149.333,106.667
				c0,11.782,9.551,21.333,21.333,21.333c11.782,0,21.333-9.551,21.333-21.333c0-35.343,28.657-64,64-64s64,28.657,64,64v76.419
				c-19.765-8.002-41.365-12.419-64-12.419c-94.257,0-170.667,76.41-170.667,170.667S161.743,512,256,512
				s170.667-76.41,170.667-170.667C426.667,287.441,401.679,239.391,362.667,208.114z M256,469.333c-70.693,0-128-57.307-128-128
				s57.307-128,128-128c26.573,0,51.253,8.099,71.711,21.961c0.853,0.708,1.772,1.334,2.729,1.904
				C362.867,260.42,384,298.407,384,341.333C384,412.026,326.693,469.333,256,469.333z"/>
			<path d="M256,256c-35.355,0-64,28.645-64,64c0,27.872,17.808,51.562,42.667,60.346v24.987c0,11.782,9.551,21.333,21.333,21.333
				s21.333-9.551,21.333-21.333v-24.987C302.192,371.562,320,347.872,320,320C320,284.645,291.355,256,256,256z M256,341.333
				c-11.791,0-21.333-9.542-21.333-21.333s9.542-21.333,21.333-21.333s21.333,9.542,21.333,21.333S267.791,341.333,256,341.333z"/>
		</g>
	</g>
</g>
<g>
</g>
<g>
</g>
<g>
</g>
<g>
</g>
<g>
</g>
<g>
</g>
<g>
</g>
<g>
</g>
<g>
</g>
<g>
</g>
<g>
</g>
<g>
</g>
<g>
</g>
<g>
</g>
<g>
</g>
</svg>
