<?xml version="1.0" encoding="iso-8859-1"?>
<!-- Generator: Adobe Illustrator 19.0.0, SVG Export Plug-In . SVG Version: 6.00 Build 0)  -->
<svg version="1.1" id="Layer_1" xmlns="http://www.w3.org/2000/svg" xmlns:xlink="http://www.w3.org/1999/xlink" x="0px" y="0px"
	 viewBox="0 0 512.043 512.043" style="enable-background:new 0 0 512.043 512.043;" xml:space="preserve">
<g transform="translate(0 -1)">
	<g>
		<g>
			<path d="M443.218,136.923c-0.026-0.033-0.052-0.066-0.078-0.099c-0.435-0.522-0.891-1.036-1.388-1.533l-128-128
				c-0.497-0.497-1.011-0.953-1.533-1.388c-0.032-0.027-0.066-0.052-0.099-0.078c-4.375-3.606-9.535-5.071-14.529-4.782H85.333
				C73.551,1.043,64,10.594,64,22.376v469.333c0,11.782,9.551,21.333,21.333,21.333h341.333c11.782,0,21.333-9.551,21.333-21.333
				V151.452C448.289,146.459,446.825,141.298,443.218,136.923z M375.163,129.043H320V73.879L375.163,129.043z M106.667,470.376
				V43.709h170.667v106.667c0,11.782,9.551,21.333,21.333,21.333h106.667v298.667H106.667z"/>
			<path d="M197.804,208.015l-25.56,20.44l-2.672-2.672c-8.331-8.331-21.839-8.331-30.17,0s-8.331,21.839,0,30.17l16.171,16.171
				c7.685,7.685,19.92,8.364,28.409,1.576l40.469-32.363c9.202-7.358,10.696-20.783,3.337-29.985S207.006,200.656,197.804,208.015z"
				/>
			<path d="M197.804,293.348l-25.56,20.44l-2.672-2.672c-8.331-8.331-21.839-8.331-30.17,0c-8.331,8.331-8.331,21.839,0,30.17
				l16.171,16.171c7.685,7.685,19.92,8.364,28.409,1.576l40.469-32.363c9.202-7.358,10.696-20.783,3.337-29.985
				C220.43,287.484,207.006,285.99,197.804,293.348z"/>
			<path d="M362.667,385.043h-85.333c-11.782,0-21.333,9.551-21.333,21.333c0,11.782,9.551,21.333,21.333,21.333h85.333
				c11.782,0,21.333-9.551,21.333-21.333C384,394.594,374.449,385.043,362.667,385.043z"/>
			<path d="M362.667,299.709h-85.333c-11.782,0-21.333,9.551-21.333,21.333s9.551,21.333,21.333,21.333h85.333
				c11.782,0,21.333-9.551,21.333-21.333S374.449,299.709,362.667,299.709z"/>
			<path d="M362.667,214.376h-85.333c-11.782,0-21.333,9.551-21.333,21.333c0,11.782,9.551,21.333,21.333,21.333h85.333
				c11.782,0,21.333-9.551,21.333-21.333C384,223.927,374.449,214.376,362.667,214.376z"/>
			<path d="M197.804,378.681l-25.56,20.44l-2.672-2.672c-8.331-8.331-21.839-8.331-30.17,0s-8.331,21.839,0,30.17l16.171,16.171
				c7.685,7.685,19.92,8.364,28.409,1.576l40.469-32.363c9.202-7.358,10.696-20.783,3.337-29.985S207.006,371.323,197.804,378.681z"
				/>
		</g>
	</g>
</g>
<g>
</g>
<g>
</g>
<g>
</g>
<g>
</g>
<g>
</g>
<g>
</g>
<g>
</g>
<g>
</g>
<g>
</g>
<g>
</g>
<g>
</g>
<g>
</g>
<g>
</g>
<g>
</g>
<g>
</g>
</svg>
