<?xml version="1.0" encoding="iso-8859-1"?>
<!-- Generator: Adobe Illustrator 19.0.0, SVG Export Plug-In . SVG Version: 6.00 Build 0)  -->
<svg version="1.1" id="Layer_1" xmlns="http://www.w3.org/2000/svg" xmlns:xlink="http://www.w3.org/1999/xlink" x="0px" y="0px"
	 viewBox="0 0 512.006 512.006" style="enable-background:new 0 0 512.006 512.006;" xml:space="preserve">
<g>
	<g>
		<path d="M475.2,221.213c-0.026-0.033-0.052-0.066-0.078-0.099c-0.435-0.522-0.891-1.036-1.388-1.533l-57.752-57.752V21.333
			C415.982,9.551,406.431,0,394.648,0H53.315C41.533,0,31.982,9.551,31.982,21.333v405.333c0,11.782,9.551,21.333,21.333,21.333h64
			v42.667c0,11.782,9.551,21.333,21.333,21.333h277.206c0.09,0.001,0.179,0.001,0.269,0h42.526c11.782,0,21.333-9.551,21.333-21.333
			V235.743C480.271,230.749,478.807,225.588,475.2,221.213z M351.982,158.17l55.163,55.163h-55.163V158.17z M74.648,405.333V42.667
			h298.667v76.497l-27.582-27.582c-0.497-0.497-1.011-0.953-1.533-1.388c-0.032-0.027-0.066-0.052-0.099-0.078
			c-4.375-3.606-9.535-5.071-14.529-4.782H138.648c-11.782,0-21.333,9.551-21.333,21.333v298.667H74.648z M159.982,426.667V128
			h149.333v106.667c0,11.782,9.551,21.333,21.333,21.333h106.667v213.333h-12.497l-84.664-84.664
			c7.505-12.703,11.828-27.511,11.828-43.336c0-47.131-38.202-85.333-85.333-85.333s-85.333,38.202-85.333,85.333
			s38.202,85.333,85.333,85.333c15.825,0,30.632-4.323,43.336-11.828l54.494,54.494H159.982V426.667z M296.818,371.503
			c-0.007,0.007-0.013,0.015-0.02,0.022C289.079,379.233,278.421,384,266.648,384c-23.567,0-42.667-19.099-42.667-42.667
			c0-23.567,19.099-42.667,42.667-42.667s42.667,19.099,42.667,42.667c0,11.773-4.767,22.43-12.475,30.149
			C296.833,371.49,296.825,371.496,296.818,371.503z"/>
	</g>
</g>
<g>
</g>
<g>
</g>
<g>
</g>
<g>
</g>
<g>
</g>
<g>
</g>
<g>
</g>
<g>
</g>
<g>
</g>
<g>
</g>
<g>
</g>
<g>
</g>
<g>
</g>
<g>
</g>
<g>
</g>
</svg>
