<?xml version="1.0" encoding="iso-8859-1"?>
<!-- Generator: Adobe Illustrator 19.0.0, SVG Export Plug-In . SVG Version: 6.00 Build 0)  -->
<svg version="1.1" id="Layer_1" xmlns="http://www.w3.org/2000/svg" xmlns:xlink="http://www.w3.org/1999/xlink" x="0px" y="0px"
	 viewBox="0 0 512 512" style="enable-background:new 0 0 512 512;" xml:space="preserve">
<g>
	<g>
		<g>
			<path d="M122.88,133.12C55.024,133.12,0,188.144,0,256s55.024,122.88,122.88,122.88S245.76,323.856,245.76,256
				S190.736,133.12,122.88,133.12z M122.88,337.92c-45.234,0-81.92-36.685-81.92-81.92s36.685-81.92,81.92-81.92
				S204.8,210.766,204.8,256S168.115,337.92,122.88,337.92z"/>
			<path d="M389.12,133.12c-67.856,0-122.88,55.024-122.88,122.88s55.024,122.88,122.88,122.88S512,323.856,512,256
				S456.976,133.12,389.12,133.12z M389.12,337.92c-45.234,0-81.92-36.685-81.92-81.92s36.685-81.92,81.92-81.92
				s81.92,36.685,81.92,81.92S434.354,337.92,389.12,337.92z"/>
		</g>
	</g>
</g>
<g>
</g>
<g>
</g>
<g>
</g>
<g>
</g>
<g>
</g>
<g>
</g>
<g>
</g>
<g>
</g>
<g>
</g>
<g>
</g>
<g>
</g>
<g>
</g>
<g>
</g>
<g>
</g>
<g>
</g>
</svg>
