<?xml version="1.0" encoding="iso-8859-1"?>
<!-- Generator: Adobe Illustrator 19.0.0, SVG Export Plug-In . SVG Version: 6.00 Build 0)  -->
<svg version="1.1" id="Layer_1" xmlns="http://www.w3.org/2000/svg" xmlns:xlink="http://www.w3.org/1999/xlink" x="0px" y="0px"
	 viewBox="0 0 512.002 512.002" style="enable-background:new 0 0 512.002 512.002;" xml:space="preserve">
<g>
	<g>
		<g>
			<path d="M448.002,117.334H448H256.002V96.001c0-35.355-28.645-64-64-64H192H64.002H64c-1.504,0-2.991,0.071-4.469,0.173
				C32.937,34.01,10.824,52.067,3.024,76.537C1.066,82.676,0,89.213,0,96.001v128c0,0.014,0.002,0.028,0.002,0.042v234.624
				c0,11.782,9.551,21.333,21.333,21.333h469.333c11.782,0,21.333-9.551,21.333-21.333V181.334
				C512.002,145.979,483.358,117.334,448.002,117.334z M192,74.668c11.791,0,21.333,9.542,21.333,21.333v42.667
				c0,11.782,9.551,21.333,21.333,21.333h0.002H448c11.791,0,21.333,9.542,21.333,21.333v21.333H42.669V96.001
				c0-2.21,0.335-4.342,0.958-6.346c2.604-8.366,10.226-14.496,19.337-14.935c0.346-0.017,0.688-0.052,1.038-0.052H192z
				 M42.669,437.334v-192h426.667v192H42.669z"/>
			<path d="M426.669,288.001H277.335c-11.782,0-21.333,9.551-21.333,21.333v85.333c0,11.782,9.551,21.333,21.333,21.333h149.333
				c11.782,0,21.333-9.551,21.333-21.333v-85.333C448.002,297.552,438.451,288.001,426.669,288.001z M405.336,373.334H298.669
				v-42.667h106.667V373.334z"/>
		</g>
	</g>
</g>
<g>
</g>
<g>
</g>
<g>
</g>
<g>
</g>
<g>
</g>
<g>
</g>
<g>
</g>
<g>
</g>
<g>
</g>
<g>
</g>
<g>
</g>
<g>
</g>
<g>
</g>
<g>
</g>
<g>
</g>
</svg>
