<?xml version="1.0" encoding="iso-8859-1"?>
<!-- Generator: Adobe Illustrator 19.0.0, SVG Export Plug-In . SVG Version: 6.00 Build 0)  -->
<svg version="1.1" id="Layer_1" xmlns="http://www.w3.org/2000/svg" xmlns:xlink="http://www.w3.org/1999/xlink" x="0px" y="0px"
	 viewBox="0 0 512 512" style="enable-background:new 0 0 512 512;" xml:space="preserve">
<g>
	<g>
		<g>
			<path d="M304.917,390.248l-27.582,27.582V298.667c0-11.782-9.551-21.333-21.333-21.333s-21.333,9.551-21.333,21.333V417.83
				l-27.582-27.582c-8.331-8.331-21.839-8.331-30.17,0c-8.331,8.331-8.331,21.839,0,30.17l64,64c0.004,0.004,0.008,0.006,0.011,0.01
				c0.494,0.493,1.012,0.96,1.552,1.403c0.247,0.203,0.507,0.379,0.761,0.569c0.303,0.227,0.6,0.462,0.915,0.673
				c0.304,0.203,0.619,0.379,0.93,0.565c0.286,0.171,0.565,0.35,0.86,0.508c0.317,0.17,0.643,0.313,0.967,0.466
				c0.308,0.145,0.61,0.299,0.925,0.43c0.314,0.13,0.635,0.235,0.953,0.349c0.338,0.122,0.672,0.251,1.018,0.356
				c0.318,0.096,0.642,0.167,0.964,0.248c0.353,0.089,0.701,0.188,1.061,0.259c0.372,0.074,0.748,0.117,1.122,0.171
				c0.314,0.045,0.622,0.105,0.941,0.136c0.693,0.068,1.388,0.105,2.083,0.105c0.007,0,0.015,0.001,0.022,0.001
				s0.015-0.001,0.022-0.001c0.695-0.001,1.39-0.037,2.083-0.105c0.318-0.031,0.627-0.091,0.941-0.136
				c0.375-0.054,0.75-0.097,1.122-0.171c0.359-0.071,0.708-0.17,1.061-0.259c0.322-0.081,0.645-0.152,0.964-0.248
				c0.346-0.105,0.68-0.234,1.018-0.356c0.318-0.114,0.639-0.219,0.953-0.349c0.315-0.131,0.618-0.284,0.925-0.43
				c0.324-0.153,0.65-0.296,0.967-0.466c0.294-0.158,0.574-0.337,0.86-0.508c0.311-0.186,0.626-0.362,0.93-0.565
				c0.315-0.211,0.612-0.446,0.915-0.673c0.254-0.19,0.514-0.366,0.761-0.569c0.54-0.443,1.059-0.91,1.552-1.403
				c0.004-0.004,0.008-0.006,0.011-0.01l64-64c8.331-8.331,8.331-21.839,0-30.17C326.756,381.917,313.248,381.917,304.917,390.248z"
				/>
			<path d="M446.853,175.429c-9.932-78.505-82.274-154.095-157.807-154.095c-44.338,0-87.774,21.612-116.824,55.447
				c-0.245-0.089-0.496-0.164-0.742-0.251c-0.983-0.349-1.968-0.689-2.964-1.003c-0.423-0.133-0.853-0.248-1.278-0.374
				c-0.88-0.262-1.761-0.518-2.649-0.752c-0.426-0.112-0.856-0.211-1.284-0.316c-0.916-0.226-1.834-0.441-2.759-0.637
				c-0.396-0.083-0.793-0.16-1.191-0.238c-0.994-0.196-1.992-0.374-2.995-0.535c-0.336-0.054-0.671-0.107-1.008-0.156
				c-1.131-0.167-2.266-0.31-3.406-0.433c-0.218-0.023-0.435-0.05-0.654-0.072c-2.833-0.282-5.691-0.441-8.571-0.441
				c-5.934,0-11.724,0.611-17.321,1.755c-0.085,0.017-0.168,0.039-0.253,0.056c-1.292,0.268-2.573,0.562-3.843,0.887
				c-0.2,0.051-0.396,0.111-0.595,0.164c-1.15,0.304-2.294,0.623-3.425,0.973c-0.273,0.084-0.541,0.179-0.813,0.266
				c-1.049,0.336-2.093,0.683-3.124,1.057c-0.323,0.117-0.64,0.245-0.961,0.366c-0.97,0.366-1.936,0.74-2.889,1.139
				c-0.357,0.149-0.708,0.31-1.063,0.464c-0.905,0.394-1.805,0.794-2.694,1.218c-0.381,0.181-0.755,0.373-1.133,0.56
				c-0.849,0.42-1.694,0.847-2.527,1.294c-0.395,0.212-0.784,0.433-1.175,0.651c-0.801,0.446-1.597,0.899-2.383,1.37
				c-0.403,0.241-0.799,0.491-1.198,0.739c-0.758,0.471-1.51,0.95-2.252,1.444c-0.406,0.27-0.806,0.547-1.207,0.824
				c-0.717,0.496-1.429,0.998-2.13,1.514c-0.404,0.298-0.803,0.601-1.202,0.906c-0.681,0.52-1.355,1.047-2.019,1.587
				c-0.398,0.323-0.791,0.65-1.182,0.98c-0.646,0.544-1.285,1.096-1.915,1.659c-0.389,0.347-0.774,0.698-1.156,1.052
				c-0.612,0.567-1.216,1.143-1.812,1.727c-0.378,0.371-0.753,0.744-1.124,1.122c-0.58,0.591-1.15,1.19-1.713,1.797
				c-0.364,0.392-0.725,0.785-1.081,1.184c-0.549,0.614-1.087,1.238-1.618,1.867c-0.347,0.411-0.692,0.823-1.032,1.24
				c-0.519,0.639-1.025,1.288-1.526,1.942c-0.327,0.427-0.655,0.855-0.974,1.288c-0.489,0.664-0.964,1.339-1.435,2.018
				c-0.306,0.441-0.613,0.882-0.911,1.329c-0.461,0.692-0.905,1.394-1.346,2.1c-0.282,0.451-0.567,0.901-0.841,1.358
				c-0.433,0.722-0.847,1.455-1.259,2.19c-0.256,0.458-0.517,0.912-0.765,1.375c-0.405,0.755-0.79,1.522-1.173,2.29
				c-0.228,0.458-0.462,0.913-0.683,1.376c-0.377,0.793-0.733,1.597-1.086,2.403c-0.199,0.454-0.406,0.904-0.597,1.362
				c-0.351,0.839-0.677,1.689-1.002,2.541c-0.167,0.438-0.343,0.872-0.503,1.313c-0.325,0.896-0.623,1.805-0.919,2.715
				c-0.133,0.41-0.277,0.815-0.404,1.228c-0.3,0.974-0.571,1.961-0.838,2.95c-0.097,0.359-0.205,0.712-0.297,1.072
				c-0.279,1.093-0.527,2.199-0.764,3.308c-0.057,0.265-0.124,0.526-0.178,0.791c-0.265,1.301-0.497,2.613-0.703,3.934
				c-0.012,0.08-0.029,0.158-0.041,0.237c-0.434,2.842-0.734,5.728-0.883,8.654C22.923,174.97,0,215.113,0,256
				c0,51.181,32.639,107.13,76.869,126.249L80.92,384H128c11.782,0,21.333-9.551,21.333-21.333c0-11.782-9.551-21.333-21.333-21.333
				H90.149C64.051,327.564,42.667,289.429,42.667,256c0-29.044,18.953-58.769,44.525-71.023l12.115-5.805v-13.434
				c0-0.349,0.02-0.856,0.069-1.711c0.063-1.063,0.063-1.063,0.087-1.471l0.007-2.337c-0.054-0.935-0.054-0.935-0.102-1.615
				c-0.049-19.771,12.178-36.079,29.198-41.984c4.434-1.528,9.187-2.37,14.139-2.37c6.704,0,13.052,1.521,18.72,4.232
				c0.124,0.06,0.247,0.123,0.371,0.184c0.425,0.208,0.845,0.424,1.262,0.646c0.217,0.116,0.433,0.231,0.648,0.351
				c0.315,0.175,0.626,0.356,0.936,0.538c0.568,0.334,1.13,0.68,1.684,1.041c0.131,0.085,0.265,0.167,0.395,0.253l0.399,0.265
				c11.468,7.81,19,20.965,19,35.882c0,11.782,9.551,21.333,21.333,21.333c11.782,0,21.333-9.551,21.333-21.333
				c0-21.614-7.987-41.349-21.147-56.463C228.757,78.457,259.046,64,289.045,64c49.199,0,100.887,51.122,113.432,105.342
				c-5.923,0.105-11.871,0.508-17.732,1.311c-0.88,0.123-0.88,0.123-1.763,0.254c-11.649,1.765-19.661,12.64-17.896,24.289
				c1.765,11.649,12.64,19.661,24.289,17.896c0.578-0.086,0.578-0.086,1.16-0.167c8.911-1.22,18.862-1.18,28.185-0.349
				c1.98,0.176,3.458,0.345,4.34,0.461c29.21,5.669,46.273,29.301,46.273,64.297c0,31.137-18.507,56.637-45.318,64H384
				c-11.782,0-21.333,9.551-21.333,21.333c0,11.782,9.551,21.333,21.333,21.333h45.126l2.395-0.56
				C479.303,372.275,512,328.679,512,277.333C512,228.824,487.865,190.167,446.853,175.429z"/>
		</g>
	</g>
</g>
<g>
</g>
<g>
</g>
<g>
</g>
<g>
</g>
<g>
</g>
<g>
</g>
<g>
</g>
<g>
</g>
<g>
</g>
<g>
</g>
<g>
</g>
<g>
</g>
<g>
</g>
<g>
</g>
<g>
</g>
</svg>
