<?xml version="1.0" encoding="iso-8859-1"?>
<!-- Generator: Adobe Illustrator 19.0.0, SVG Export Plug-In . SVG Version: 6.00 Build 0)  -->
<svg version="1.1" id="Layer_1" xmlns="http://www.w3.org/2000/svg" xmlns:xlink="http://www.w3.org/1999/xlink" x="0px" y="0px"
	 viewBox="0 0 512 512" style="enable-background:new 0 0 512 512;" xml:space="preserve">
<g>
	<g>
		<g>
			<path d="M256,64c-11.782,0-21.333,9.551-21.333,21.333v21.333c0,11.782,9.551,21.333,21.333,21.333s21.333-9.551,21.333-21.333
				V85.333C277.333,73.551,267.782,64,256,64z"/>
			<path d="M256,384c-11.782,0-21.333,9.551-21.333,21.333v21.333c0,11.782,9.551,21.333,21.333,21.333s21.333-9.551,21.333-21.333
				v-21.333C277.333,393.551,267.782,384,256,384z"/>
			<path d="M256,0C114.618,0,0,114.618,0,256s114.618,256,256,256s256-114.618,256-256S397.382,0,256,0z M256,469.333
				c-117.818,0-213.333-95.515-213.333-213.333S138.182,42.667,256,42.667S469.333,138.182,469.333,256S373.818,469.333,256,469.333
				z"/>
			<path d="M426.667,234.667h-21.333C393.551,234.667,384,244.218,384,256s9.551,21.333,21.333,21.333h21.333
				c11.782,0,21.333-9.551,21.333-21.333S438.449,234.667,426.667,234.667z"/>
			<path d="M128,256c0-11.782-9.551-21.333-21.333-21.333H85.333C73.551,234.667,64,244.218,64,256s9.551,21.333,21.333,21.333
				h21.333C118.449,277.333,128,267.782,128,256z"/>
			<path d="M135.319,165.487c8.331,8.331,21.839,8.331,30.17,0s8.331-21.839,0-30.17l-15.083-15.083
				c-8.331-8.331-21.839-8.331-30.17,0c-8.331,8.331-8.331,21.839,0,30.17L135.319,165.487z"/>
			<path d="M376.681,346.509c-8.331-8.331-21.839-8.331-30.17,0s-8.331,21.839,0,30.17l15.083,15.083
				c8.331,8.331,21.839,8.331,30.17,0s8.331-21.839,0-30.17L376.681,346.509z"/>
			<path d="M376.683,165.487l15.083-15.083c8.331-8.331,8.331-21.839,0-30.17c-8.331-8.331-21.839-8.331-30.17,0l-15.083,15.083
				c-8.331,8.331-8.331,21.839,0,30.17S368.352,173.818,376.683,165.487z"/>
			<path d="M135.319,346.509l-15.083,15.083c-8.331,8.331-8.331,21.839,0,30.17c8.331,8.331,21.839,8.331,30.17,0l15.083-15.083
				c8.331-8.331,8.331-21.839,0-30.17S143.651,338.177,135.319,346.509z"/>
			<path d="M256,149.333c-11.782,0-21.333,9.551-21.333,21.333v64H192c-11.782,0-21.333,9.551-21.333,21.333
				s9.551,21.333,21.333,21.333h64c11.782,0,21.333-9.551,21.333-21.333v-85.333C277.333,158.885,267.782,149.333,256,149.333z"/>
		</g>
	</g>
</g>
<g>
</g>
<g>
</g>
<g>
</g>
<g>
</g>
<g>
</g>
<g>
</g>
<g>
</g>
<g>
</g>
<g>
</g>
<g>
</g>
<g>
</g>
<g>
</g>
<g>
</g>
<g>
</g>
<g>
</g>
</svg>
