<?xml version="1.0" encoding="iso-8859-1"?>
<!-- Generator: Adobe Illustrator 19.0.0, SVG Export Plug-In . SVG Version: 6.00 Build 0)  -->
<svg version="1.1" id="Layer_1" xmlns="http://www.w3.org/2000/svg" xmlns:xlink="http://www.w3.org/1999/xlink" x="0px" y="0px"
	 viewBox="0 0 512.07 512.07" style="enable-background:new 0 0 512.07 512.07;" xml:space="preserve">
<g transform="translate(-1)">
	<g>
		<g>
			<path d="M235.732,298.7H129.065c-11.782,0-21.333,9.551-21.333,21.333v64c0,11.782,9.551,21.333,21.333,21.333h106.667
				c11.782,0,21.333-9.551,21.333-21.333v-64C257.065,308.251,247.514,298.7,235.732,298.7z M214.398,362.7h-64v-21.333h64V362.7z"
				/>
			<path d="M491.732,426.7c11.782,0,21.333-9.551,21.333-21.333c0-11.782-9.551-21.333-21.333-21.333H470.39v-86.19
				c5.87-1.612,11.549-4.168,16.813-7.68c32.398-21.576,34.77-68.292,4.816-93.088L271.043,5.256
				c-8.023-6.964-19.947-6.964-27.97,0.001l-221.163,192c-29.758,24.339-27.468,71.267,5.04,92.916
				c5.25,3.508,10.917,6.061,16.772,7.676v86.184H22.398c-11.782,0-21.333,9.551-21.333,21.333c0,11.782,9.551,21.333,21.333,21.333
				h21.325v21.333H22.398c-11.782,0-21.333,9.551-21.333,21.333c0,11.782,9.551,21.333,21.333,21.333h21.325v0.004
				c0,11.782,9.551,21.333,21.333,21.333h384c11.782,0,21.333-9.551,21.333-21.333V490.7h21.342
				c11.782,0,21.333-9.551,21.333-21.333c0-11.782-9.551-21.333-21.333-21.333H470.39V426.7H491.732z M49.406,229.877
				l207.653-180.26l207.199,179.86c8.512,6.977,7.904,19.441-0.72,25.184c-2.585,1.725-5.539,2.577-8.485,2.596
				c-0.823-0.241-1.659-0.452-2.524-0.594c-2.997-0.494-5.237-1.357-6.884-2.54c-0.151-0.115-0.307-0.221-0.455-0.342
				l-60.244-51.274l-27.428-23.344l-0.007-0.005l-86.626-73.727c-7.97-6.783-19.684-6.783-27.654,0.001L68.639,254.038
				c-0.05,0.041-0.104,0.076-0.155,0.116c-1.369,1.048-3.696,1.982-6.888,2.507c-0.9,0.148-1.77,0.37-2.625,0.624
				c-2.886-0.056-5.798-0.905-8.342-2.605C41.977,248.917,41.369,236.453,49.406,229.877z M321.065,469.366V362.7h42.667v106.667
				H321.065z M406.398,469.371V341.366c0-11.782-9.551-21.333-21.333-21.333h-85.333c-11.782,0-21.333,9.551-21.333,21.333v128.004
				h-192c0-0.001,0-0.003,0-0.004c0-0.057-0.008-0.111-0.008-0.168v-63.664c0-0.057,0.008-0.111,0.008-0.168
				s-0.008-0.111-0.008-0.168V293.164c2.488-1.32,4.897-2.835,7.211-4.537c0.039-0.029,0.079-0.057,0.118-0.085
				c0.673-0.497,1.338-1.01,1.993-1.539c0.081-0.065,0.166-0.124,0.246-0.19l88.312-75.158l72.785-56.593l73.196,56.92l70.79,60.247
				l16.802,14.305c1.828,1.496,3.617,2.789,5.417,3.939c1.459,0.945,2.947,1.825,4.464,2.629v176.269H406.398z"/>
		</g>
	</g>
</g>
<g>
</g>
<g>
</g>
<g>
</g>
<g>
</g>
<g>
</g>
<g>
</g>
<g>
</g>
<g>
</g>
<g>
</g>
<g>
</g>
<g>
</g>
<g>
</g>
<g>
</g>
<g>
</g>
<g>
</g>
</svg>
