<?xml version="1.0" encoding="iso-8859-1"?>
<!-- Generator: Adobe Illustrator 19.0.0, SVG Export Plug-In . SVG Version: 6.00 Build 0)  -->
<svg version="1.1" id="Layer_1" xmlns="http://www.w3.org/2000/svg" xmlns:xlink="http://www.w3.org/1999/xlink" x="0px" y="0px"
	 viewBox="0 0 512 512" style="enable-background:new 0 0 512 512;" xml:space="preserve">
<g>
	<g>
		<g>
			<path d="M426.667,320H277.333C265.551,320,256,329.551,256,341.333v85.333c0,11.782,9.551,21.333,21.333,21.333h149.333
				c11.782,0,21.333-9.551,21.333-21.333v-85.333C448,329.551,438.449,320,426.667,320z M405.333,405.333H298.667v-42.667h106.667
				V405.333z"/>
			<path d="M490.667,64h-202.34L249.096,8.952C245.092,3.335,238.62,0,231.723,0H64C52.218,0,42.667,9.551,42.667,21.333v42.77
				L21.437,64C9.615,63.943,0,73.511,0,85.333v405.333C0,502.449,9.551,512,21.333,512h8.092h453.141h8.1
				c11.782,0,21.333-9.551,21.333-21.333V149.333v-64C512,73.551,502.449,64,490.667,64z M85.333,42.667H220.73l39.231,55.048
				c4.003,5.617,10.475,8.952,17.373,8.952h192V128H224.678l-36.324-53.868c-0.247-0.366-0.504-0.722-0.77-1.07
				c-0.016-0.02-0.033-0.039-0.048-0.059c-0.505-0.653-1.044-1.272-1.615-1.856c-0.277-0.283-0.562-0.555-0.853-0.822
				c-0.045-0.041-0.087-0.086-0.133-0.127c-0.127-0.114-0.261-0.22-0.391-0.331c-0.525-0.449-1.064-0.88-1.627-1.275
				c-0.108-0.076-0.221-0.143-0.33-0.217c-0.246-0.166-0.491-0.333-0.744-0.489c-0.157-0.096-0.319-0.182-0.478-0.275
				c-0.212-0.123-0.421-0.25-0.636-0.365c-0.122-0.065-0.249-0.122-0.373-0.185c-0.258-0.132-0.515-0.266-0.778-0.386
				c-0.122-0.056-0.248-0.104-0.371-0.157c-0.269-0.118-0.538-0.238-0.812-0.344c-0.141-0.055-0.285-0.1-0.427-0.151
				c-0.262-0.095-0.522-0.194-0.788-0.279c-0.113-0.036-0.23-0.064-0.344-0.099c-0.298-0.09-0.595-0.181-0.897-0.258
				c-0.177-0.045-0.358-0.079-0.537-0.12c-0.242-0.055-0.483-0.115-0.727-0.162c-0.215-0.041-0.433-0.069-0.649-0.104
				c-0.212-0.034-0.423-0.074-0.636-0.102c-0.186-0.024-0.374-0.036-0.56-0.055c-0.248-0.025-0.494-0.056-0.743-0.072
				c-0.168-0.011-0.339-0.011-0.508-0.018c-0.268-0.011-0.536-0.027-0.806-0.029l-85.437-0.415V42.667z M42.667,469.333V106.771
				l20.688,0.1c0.184,0.005,0.362,0.029,0.547,0.03l95.385,0.439l36.359,53.92c3.966,5.881,10.595,9.406,17.688,9.406h256v298.667
				H42.667z"/>
		</g>
	</g>
</g>
<g>
</g>
<g>
</g>
<g>
</g>
<g>
</g>
<g>
</g>
<g>
</g>
<g>
</g>
<g>
</g>
<g>
</g>
<g>
</g>
<g>
</g>
<g>
</g>
<g>
</g>
<g>
</g>
<g>
</g>
</svg>
