<?xml version="1.0" encoding="iso-8859-1"?>
<!-- Generator: Adobe Illustrator 19.0.0, SVG Export Plug-In . SVG Version: 6.00 Build 0)  -->
<svg version="1.1" id="Layer_1" xmlns="http://www.w3.org/2000/svg" xmlns:xlink="http://www.w3.org/1999/xlink" x="0px" y="0px"
	 viewBox="0 0 512 512" style="enable-background:new 0 0 512 512;" xml:space="preserve">
<g>
	<g>
		<g>
			<path d="M298.667,298.667c-11.782,0-21.333,9.551-21.333,21.333v21.333H64V106.667h213.333v42.667
				c0,11.782,9.551,21.333,21.333,21.333c11.782,0,21.333-9.551,21.333-21.333V42.667C320,19.109,300.891,0,277.333,0H64
				C40.442,0,21.333,19.109,21.333,42.667v426.667C21.333,492.891,40.442,512,64,512h213.333C300.891,512,320,492.891,320,469.333
				V320C320,308.218,310.449,298.667,298.667,298.667z M277.333,42.667V64H64V42.667H277.333z M64,469.333V384h213.333v85.333H64z"
				/>
			<path d="M170.667,405.333c-11.776,0-21.333,9.557-21.333,21.333S158.891,448,170.667,448S192,438.443,192,426.667
				S182.443,405.333,170.667,405.333z"/>
			<path d="M469.333,213.333H200.837l27.582-27.582c8.331-8.331,8.331-21.839,0-30.17s-21.839-8.331-30.17,0l-64,64
				c-0.497,0.497-0.967,1.02-1.413,1.564c-0.202,0.246-0.378,0.506-0.567,0.759c-0.228,0.304-0.463,0.601-0.675,0.918
				c-0.203,0.303-0.379,0.618-0.565,0.929c-0.171,0.286-0.351,0.566-0.509,0.861c-0.17,0.317-0.314,0.644-0.466,0.968
				c-0.145,0.307-0.298,0.609-0.429,0.924c-0.13,0.315-0.236,0.637-0.35,0.957c-0.121,0.337-0.25,0.669-0.354,1.013
				c-0.097,0.32-0.168,0.646-0.249,0.969c-0.089,0.351-0.187,0.698-0.258,1.055c-0.074,0.375-0.119,0.753-0.173,1.13
				c-0.044,0.311-0.104,0.617-0.135,0.932c-0.069,0.7-0.106,1.403-0.106,2.105l0,0c0,0,0,0.001,0,0.001
				c0,0.702,0.037,1.405,0.106,2.104c0.031,0.316,0.09,0.622,0.135,0.933c0.054,0.377,0.098,0.755,0.172,1.13
				c0.071,0.358,0.169,0.705,0.258,1.056c0.081,0.323,0.152,0.648,0.249,0.968c0.104,0.345,0.234,0.678,0.355,1.015
				c0.115,0.319,0.22,0.641,0.35,0.956c0.131,0.315,0.284,0.618,0.43,0.925c0.152,0.323,0.296,0.65,0.466,0.967
				c0.158,0.295,0.338,0.575,0.509,0.862c0.185,0.311,0.361,0.625,0.564,0.928c0.212,0.317,0.448,0.615,0.676,0.92
				c0.189,0.252,0.364,0.511,0.566,0.757c0.446,0.544,0.916,1.067,1.413,1.564l64,64c8.331,8.331,21.839,8.331,30.17,0
				c8.331-8.331,8.331-21.839,0-30.17L200.837,256h268.497c11.782,0,21.333-9.551,21.333-21.333
				C490.667,222.885,481.115,213.333,469.333,213.333z"/>
		</g>
	</g>
</g>
<g>
</g>
<g>
</g>
<g>
</g>
<g>
</g>
<g>
</g>
<g>
</g>
<g>
</g>
<g>
</g>
<g>
</g>
<g>
</g>
<g>
</g>
<g>
</g>
<g>
</g>
<g>
</g>
<g>
</g>
</svg>
