<?xml version="1.0" encoding="iso-8859-1"?>
<!-- Generator: Adobe Illustrator 19.0.0, SVG Export Plug-In . SVG Version: 6.00 Build 0)  -->
<svg version="1.1" id="Layer_1" xmlns="http://www.w3.org/2000/svg" xmlns:xlink="http://www.w3.org/1999/xlink" x="0px" y="0px"
	 viewBox="0 0 512 512" style="enable-background:new 0 0 512 512;" xml:space="preserve">
<g>
	<g>
		<g>
			<path d="M505.752,6.248c-8.331-8.331-21.839-8.331-30.17,0L6.248,475.582c-8.331,8.331-8.331,21.839,0,30.17
				c8.331,8.331,21.839,8.331,30.17,0L505.752,36.418C514.083,28.087,514.083,14.58,505.752,6.248z"/>
			<path d="M426.667,341.333c-47.131,0-85.333,38.202-85.333,85.333S379.535,512,426.667,512S512,473.798,512,426.667
				S473.798,341.333,426.667,341.333z M426.667,469.333c-23.567,0-42.667-19.099-42.667-42.667S403.099,384,426.667,384
				s42.667,19.099,42.667,42.667S450.234,469.333,426.667,469.333z"/>
			<path d="M85.333,170.667c47.131,0,85.333-38.202,85.333-85.333S132.465,0,85.333,0S0,38.202,0,85.333
				S38.202,170.667,85.333,170.667z M85.333,42.667c23.567,0,42.667,19.099,42.667,42.667S108.901,128,85.333,128
				s-42.667-19.099-42.667-42.667S61.766,42.667,85.333,42.667z"/>
		</g>
	</g>
</g>
<g>
</g>
<g>
</g>
<g>
</g>
<g>
</g>
<g>
</g>
<g>
</g>
<g>
</g>
<g>
</g>
<g>
</g>
<g>
</g>
<g>
</g>
<g>
</g>
<g>
</g>
<g>
</g>
<g>
</g>
</svg>
