<?xml version="1.0" encoding="iso-8859-1"?>
<!-- Generator: Adobe Illustrator 19.0.0, SVG Export Plug-In . SVG Version: 6.00 Build 0)  -->
<svg version="1.1" id="Layer_1" xmlns="http://www.w3.org/2000/svg" xmlns:xlink="http://www.w3.org/1999/xlink" x="0px" y="0px"
	 viewBox="0 0 512 512" style="enable-background:new 0 0 512 512;" xml:space="preserve">
<g>
	<g>
		<path d="M426.667,341.333c-35.642,0-66.163,21.854-78.932,52.889L162.228,293.045c5.407-11.204,8.439-23.77,8.439-37.045
			c0-13.272-3.03-25.835-8.435-37.036l185.503-101.185c12.77,31.034,43.29,52.888,78.932,52.888
			c47.131,0,85.333-38.202,85.333-85.333S473.798,0,426.667,0c-42.634,0-77.955,31.26-84.31,72.111L133.876,185.83
			c-13.782-9.552-30.503-15.163-48.542-15.163C38.202,170.667,0,208.869,0,256s38.202,85.333,85.333,85.333
			c18.036,0,34.753-5.609,48.534-15.157l208.49,113.713c6.355,40.85,41.676,72.11,84.31,72.11C473.798,512,512,473.798,512,426.667
			S473.798,341.333,426.667,341.333z M426.667,42.667c23.567,0,42.667,19.099,42.667,42.667S450.234,128,426.667,128
			c-23.561,0-42.655-19.089-42.666-42.647c0-0.037,0.002-0.073,0.002-0.11C384.051,61.718,403.13,42.667,426.667,42.667z
			 M42.667,256c0-23.567,19.099-42.667,42.667-42.667S128,232.433,128,256c0,11.237-4.349,21.451-11.447,29.071
			c-0.288,0.275-0.555,0.575-0.828,0.869c-7.738,7.854-18.493,12.727-30.392,12.727C61.766,298.667,42.667,279.567,42.667,256z
			 M426.667,469.333c-23.537,0-42.616-19.051-42.664-42.577c0-0.037-0.002-0.073-0.002-0.11
			C384.012,403.089,403.106,384,426.667,384c23.567,0,42.667,19.099,42.667,42.667S450.234,469.333,426.667,469.333z"/>
	</g>
</g>
<g>
</g>
<g>
</g>
<g>
</g>
<g>
</g>
<g>
</g>
<g>
</g>
<g>
</g>
<g>
</g>
<g>
</g>
<g>
</g>
<g>
</g>
<g>
</g>
<g>
</g>
<g>
</g>
<g>
</g>
</svg>
