<?xml version="1.0" encoding="iso-8859-1"?>
<!-- Generator: Adobe Illustrator 19.0.0, SVG Export Plug-In . SVG Version: 6.00 Build 0)  -->
<svg version="1.1" id="Layer_1" xmlns="http://www.w3.org/2000/svg" xmlns:xlink="http://www.w3.org/1999/xlink" x="0px" y="0px"
	 viewBox="0 0 512 512" style="enable-background:new 0 0 512 512;" xml:space="preserve">
<g>
	<g>
		<path d="M503.467,110.933l-85.333-64c-3.693-2.77-8.184-4.267-12.8-4.267h-128V21.333C277.333,9.551,267.782,0,256,0
			s-21.333,9.551-21.333,21.333v21.333H21.333C9.551,42.667,0,52.218,0,64v128c0,11.782,9.551,21.333,21.333,21.333h213.333v277.333
			c0,11.782,9.551,21.333,21.333,21.333s21.333-9.551,21.333-21.333V213.333h128c4.616,0,9.107-1.497,12.8-4.267l85.333-64
			C514.844,136.533,514.844,119.467,503.467,110.933z M398.222,170.667H42.667V85.333h355.556L455.111,128L398.222,170.667z"/>
	</g>
</g>
<g>
</g>
<g>
</g>
<g>
</g>
<g>
</g>
<g>
</g>
<g>
</g>
<g>
</g>
<g>
</g>
<g>
</g>
<g>
</g>
<g>
</g>
<g>
</g>
<g>
</g>
<g>
</g>
<g>
</g>
</svg>
