<?xml version="1.0" encoding="iso-8859-1"?>
<!-- Generator: Adobe Illustrator 19.0.0, SVG Export Plug-In . SVG Version: 6.00 Build 0)  -->
<svg version="1.1" id="Layer_1" xmlns="http://www.w3.org/2000/svg" xmlns:xlink="http://www.w3.org/1999/xlink" x="0px" y="0px"
	 viewBox="0 0 512 512" style="enable-background:new 0 0 512 512;" xml:space="preserve">
<g>
	<g>
		<g>
			<path d="M256,0C114.618,0,0,114.618,0,256s114.618,256,256,256s256-114.618,256-256S397.382,0,256,0z M106.571,341.328
				c0.032,0,0.063,0.005,0.095,0.005c0.029,0,0.057-0.004,0.085-0.004c47.081,0.045,85.25,38.24,85.25,85.331
				c0,10.576-2.027,20.897-5.9,30.654c-52.251-18.113-95.521-55.951-120.423-105.073C78.184,345.155,92.105,341.346,106.571,341.328
				z M227.808,467.476c4.488-13.041,6.861-26.763,6.861-40.816c0-27.64-8.765-53.235-23.665-74.159l16.344-16.344
				c8.331-8.331,8.331-21.839,0-30.17c-8.331-8.331-21.839-8.331-30.17,0l-16.343,16.343
				c-15.423-10.985-33.387-18.627-52.835-21.891v-23.107c0-11.782-9.551-21.333-21.333-21.333c-11.782,0-21.333,9.551-21.333,21.333
				v23.168c-12.273,2.13-24.091,6.08-35.176,11.673c-4.874-17.9-7.49-36.73-7.49-56.174c0-117.818,95.515-213.333,213.333-213.333
				S469.333,138.182,469.333,256c0,19.444-2.617,38.274-7.49,56.174c-11.085-5.593-22.903-9.543-35.176-11.673v-23.168
				c0-11.782-9.551-21.333-21.333-21.333C393.551,256,384,265.551,384,277.333v23.107c-19.448,3.264-37.412,10.906-52.835,21.891
				l-16.343-16.343c-8.331-8.331-21.839-8.331-30.17,0c-8.331,8.331-8.331,21.839,0,30.17l16.344,16.344
				c-14.9,20.924-23.665,46.519-23.665,74.159c0,14.053,2.373,27.776,6.861,40.816c-9.226,1.218-18.634,1.857-28.192,1.857
				S237.034,468.695,227.808,467.476z M405.248,341.329c0.029,0,0.056,0.004,0.085,0.004c0.032,0,0.063-0.005,0.095-0.005
				c14.467,0.017,28.388,3.827,40.892,10.912c-24.902,49.123-68.172,86.961-120.423,105.073c-3.873-9.757-5.9-20.078-5.9-30.654
				C319.998,379.569,358.167,341.374,405.248,341.329z"/>
			<path d="M341.333,234.667c0,11.782,9.551,21.333,21.333,21.333S384,246.449,384,234.667c0-27.641-8.766-53.237-23.667-74.161
				l16.348-16.348c8.331-8.331,8.331-21.839,0-30.17c-8.331-8.331-21.839-8.331-30.17,0l-16.347,16.347
				c-15.422-10.983-33.384-18.624-52.83-21.888V85.333C277.333,73.551,267.782,64,256,64s-21.333,9.551-21.333,21.333v23.114
				c-19.446,3.264-37.408,10.905-52.83,21.888l-16.347-16.347c-8.331-8.331-21.839-8.331-30.17,0c-8.331,8.331-8.331,21.839,0,30.17
				l16.348,16.348C136.766,181.43,128,207.026,128,234.667c0,11.782,9.551,21.333,21.333,21.333
				c11.782,0,21.333-9.551,21.333-21.333c0-47.119,38.214-85.333,85.333-85.333S341.333,187.547,341.333,234.667z"/>
			<path d="M256,213.333c-11.776,0-21.333,9.557-21.333,21.333S244.224,256,256,256s21.333-9.557,21.333-21.333
				S267.776,213.333,256,213.333z"/>
		</g>
	</g>
</g>
<g>
</g>
<g>
</g>
<g>
</g>
<g>
</g>
<g>
</g>
<g>
</g>
<g>
</g>
<g>
</g>
<g>
</g>
<g>
</g>
<g>
</g>
<g>
</g>
<g>
</g>
<g>
</g>
<g>
</g>
</svg>
