<?xml version="1.0" encoding="iso-8859-1"?>
<!-- Generator: Adobe Illustrator 19.0.0, SVG Export Plug-In . SVG Version: 6.00 Build 0)  -->
<svg version="1.1" id="Layer_1" xmlns="http://www.w3.org/2000/svg" xmlns:xlink="http://www.w3.org/1999/xlink" x="0px" y="0px"
	 viewBox="0 0 512 512" style="enable-background:new 0 0 512 512;" xml:space="preserve">
<g>
	<g>
		<g>
			<path d="M106.667,344.021V21.333C106.667,9.551,97.115,0,85.333,0C73.551,0,64,9.551,64,21.333v322.688
				c-36.807,9.472-64,42.88-64,82.645C0,473.798,38.202,512,85.333,512s85.333-38.202,85.333-85.333
				C170.667,386.902,143.473,353.493,106.667,344.021z M85.333,469.333c-23.567,0-42.667-19.099-42.667-42.667
				S61.766,384,85.333,384S128,403.099,128,426.667S108.901,469.333,85.333,469.333z"/>
			<path d="M512,85.333C512,38.202,473.798,0,426.667,0s-85.333,38.202-85.333,85.333c0,39.765,27.193,73.173,64,82.645v322.688
				c0,11.782,9.551,21.333,21.333,21.333S448,502.449,448,490.667V167.979C484.807,158.507,512,125.098,512,85.333z M426.667,128
				C403.099,128,384,108.901,384,85.333s19.099-42.667,42.667-42.667s42.667,19.099,42.667,42.667S450.234,128,426.667,128z"/>
			<path d="M277.333,173.355V21.333C277.333,9.551,267.782,0,256,0s-21.333,9.551-21.333,21.333v152.021
				c-36.807,9.472-64,42.88-64,82.645s27.193,73.173,64,82.645v152.021c0,11.782,9.551,21.333,21.333,21.333
				s21.333-9.551,21.333-21.333V338.645c36.807-9.472,64-42.88,64-82.645S314.14,182.827,277.333,173.355z M256,298.667
				c-23.567,0-42.667-19.099-42.667-42.667s19.099-42.667,42.667-42.667s42.667,19.099,42.667,42.667S279.567,298.667,256,298.667z"
				/>
		</g>
	</g>
</g>
<g>
</g>
<g>
</g>
<g>
</g>
<g>
</g>
<g>
</g>
<g>
</g>
<g>
</g>
<g>
</g>
<g>
</g>
<g>
</g>
<g>
</g>
<g>
</g>
<g>
</g>
<g>
</g>
<g>
</g>
</svg>
