<?xml version="1.0" encoding="iso-8859-1"?>
<!-- Generator: Adobe Illustrator 19.0.0, SVG Export Plug-In . SVG Version: 6.00 Build 0)  -->
<svg version="1.1" id="Layer_1" xmlns="http://www.w3.org/2000/svg" xmlns:xlink="http://www.w3.org/1999/xlink" x="0px" y="0px"
	 viewBox="0 0 512 512" style="enable-background:new 0 0 512 512;" xml:space="preserve">
<g>
	<g>
		<g>
			<path d="M341.333,85.333H170.667C76.41,85.333,0,161.743,0,256s76.41,170.667,170.667,170.667h170.667
				C435.59,426.667,512,350.257,512,256S435.59,85.333,341.333,85.333z M341.333,384H170.667c-70.693,0-128-57.307-128-128
				s57.307-128,128-128h170.667c70.693,0,128,57.307,128,128S412.026,384,341.333,384z"/>
			<path d="M341.333,170.667C294.202,170.667,256,208.869,256,256s38.202,85.333,85.333,85.333
				c47.131,0,85.333-38.202,85.333-85.333S388.465,170.667,341.333,170.667z M341.333,298.667
				c-23.567,0-42.667-19.099-42.667-42.667s19.099-42.667,42.667-42.667C364.901,213.333,384,232.433,384,256
				S364.901,298.667,341.333,298.667z"/>
			<path d="M149.333,170.667C137.551,170.667,128,180.218,128,192v128c0,11.782,9.551,21.333,21.333,21.333
				c11.782,0,21.333-9.551,21.333-21.333V192C170.667,180.218,161.115,170.667,149.333,170.667z"/>
		</g>
	</g>
</g>
<g>
</g>
<g>
</g>
<g>
</g>
<g>
</g>
<g>
</g>
<g>
</g>
<g>
</g>
<g>
</g>
<g>
</g>
<g>
</g>
<g>
</g>
<g>
</g>
<g>
</g>
<g>
</g>
<g>
</g>
</svg>
