<?xml version="1.0" encoding="iso-8859-1"?>
<!-- Generator: Adobe Illustrator 19.0.0, SVG Export Plug-In . SVG Version: 6.00 Build 0)  -->
<svg version="1.1" id="Layer_1" xmlns="http://www.w3.org/2000/svg" xmlns:xlink="http://www.w3.org/1999/xlink" x="0px" y="0px"
	 viewBox="0 0 512 512" style="enable-background:new 0 0 512 512;" xml:space="preserve">
<g>
	<g>
		<g>
			<path d="M490.667,234.667H341.333v-21.333c0-11.782-9.551-21.333-21.333-21.333H192c-11.782,0-21.333,9.551-21.333,21.333v21.333
				H21.333C9.551,234.667,0,244.218,0,256s9.551,21.333,21.333,21.333h149.333v21.333c0,11.782,9.551,21.333,21.333,21.333h128
				c11.782,0,21.333-9.551,21.333-21.333v-21.333h149.333c11.782,0,21.333-9.551,21.333-21.333S502.449,234.667,490.667,234.667z
				 M298.667,277.333h-85.333v-42.667h85.333V277.333z"/>
			<path d="M490.667,405.333h-21.333V384c0-11.782-9.551-21.333-21.333-21.333H320c-11.782,0-21.333,9.551-21.333,21.333v21.333
				H21.333C9.551,405.333,0,414.885,0,426.667C0,438.449,9.551,448,21.333,448h277.333v21.333c0,11.782,9.551,21.333,21.333,21.333
				h128c11.782,0,21.333-9.551,21.333-21.333V448h21.333c11.782,0,21.333-9.551,21.333-21.333
				C512,414.885,502.449,405.333,490.667,405.333z M426.667,448h-85.333v-42.667h85.333V448z"/>
			<path d="M21.333,106.667h21.333V128c0,11.782,9.551,21.333,21.333,21.333h128c11.782,0,21.333-9.551,21.333-21.333v-21.333
				h277.333c11.782,0,21.333-9.551,21.333-21.333C512,73.551,502.449,64,490.667,64H213.333V42.667
				c0-11.782-9.551-21.333-21.333-21.333H64c-11.782,0-21.333,9.551-21.333,21.333V64H21.333C9.551,64,0,73.551,0,85.333
				C0,97.115,9.551,106.667,21.333,106.667z M85.333,64h85.333v42.667H85.333V64z"/>
		</g>
	</g>
</g>
<g>
</g>
<g>
</g>
<g>
</g>
<g>
</g>
<g>
</g>
<g>
</g>
<g>
</g>
<g>
</g>
<g>
</g>
<g>
</g>
<g>
</g>
<g>
</g>
<g>
</g>
<g>
</g>
<g>
</g>
</svg>
