<?xml version="1.0" encoding="iso-8859-1"?>
<!-- Generator: Adobe Illustrator 19.0.0, SVG Export Plug-In . SVG Version: 6.00 Build 0)  -->
<svg version="1.1" id="Layer_1" xmlns="http://www.w3.org/2000/svg" xmlns:xlink="http://www.w3.org/1999/xlink" x="0px" y="0px"
	 viewBox="0 0 512 512" style="enable-background:new 0 0 512 512;" xml:space="preserve">
<g>
	<g>
		<path d="M490.667,106.475h-92.001c13.07-28.147,8.007-61.833-14.609-84.426c-29.145-29.145-76.7-29.145-105.853,0.008
			l-24.515,23.68L236.44,23.914l-1.652-1.857c-29.153-29.153-76.729-29.153-105.882,0c-22.414,22.414-27.398,55.069-17.166,84.418
			H21.333C9.551,106.475,0,116.026,0,127.808v106.667c0,11.782,9.551,21.333,21.333,21.333h21.333v234.667
			c0,11.782,9.551,21.333,21.333,21.333h384c11.782,0,21.333-9.551,21.333-21.333V255.808h21.333
			c11.782,0,21.333-9.551,21.333-21.333V127.808C512,116.026,502.449,106.475,490.667,106.475z M353.894,52.227
			c12.489,12.476,12.489,33.032,0,45.521l-10.392,8.728h-91.285l55.893-53.99C320.864,39.737,341.404,39.737,353.894,52.227z
			 M155.595,100.446c-9.351-16.988-8.191-36.546,3.482-48.219c12.233-12.233,32.208-12.485,44.76-0.756l19.006,24.047
			l-24.661,23.829c-0.633,0.632-1.244,1.272-1.842,1.917c-0.256,0.275-0.502,0.555-0.753,0.833
			c-0.309,0.344-0.619,0.689-0.919,1.038c-0.328,0.38-0.65,0.765-0.969,1.15c-0.202,0.245-0.401,0.491-0.599,0.737
			c-0.355,0.442-0.707,0.887-1.05,1.337c-0.03,0.039-0.062,0.077-0.091,0.116h-31.423L155.595,100.446z M42.667,149.142h97.667
			h28.273h47.996h18.064v64H64H42.667V149.142z M234.667,255.808v85.333H85.333v-85.333H234.667z M85.333,383.808h149.333v85.333
			H85.333V383.808z M277.333,469.142v-85.333h149.333v85.333H277.333z M426.667,341.142H277.333v-85.333h149.333V341.142z
			 M469.333,213.142H448H277.333v-64h81.751h110.249V213.142z"/>
	</g>
</g>
<g>
</g>
<g>
</g>
<g>
</g>
<g>
</g>
<g>
</g>
<g>
</g>
<g>
</g>
<g>
</g>
<g>
</g>
<g>
</g>
<g>
</g>
<g>
</g>
<g>
</g>
<g>
</g>
<g>
</g>
</svg>
