<?xml version="1.0" encoding="iso-8859-1"?>
<!-- Generator: Adobe Illustrator 19.0.0, SVG Export Plug-In . SVG Version: 6.00 Build 0)  -->
<svg version="1.1" id="Layer_1" xmlns="http://www.w3.org/2000/svg" xmlns:xlink="http://www.w3.org/1999/xlink" x="0px" y="0px"
	 viewBox="0 0 512 512" style="enable-background:new 0 0 512 512;" xml:space="preserve">
<g>
	<g>
		<g>
			<path d="M437.06,436.976C483.362,390.652,512,326.67,512,256C512,114.618,397.382,0,256,0S0,114.618,0,256
				c0,70.669,28.637,134.651,74.94,180.975c0.014,0.014,0.026,0.03,0.041,0.045s0.03,0.026,0.045,0.041
				C121.349,483.363,185.331,512,256,512c70.67,0,134.652-28.638,180.976-74.94c0.014-0.014,0.03-0.026,0.044-0.04
				S437.046,436.99,437.06,436.976z M391.772,361.602c-8.331-8.331-21.839-8.331-30.17,0c-8.331,8.331-8.331,21.839,0,30.17
				l29.404,29.404c-31.607,25.865-70.768,42.838-113.672,47.099v-41.608c0-11.782-9.551-21.333-21.333-21.333
				s-21.333,9.551-21.333,21.333v41.608c-42.904-4.26-82.066-21.234-113.672-47.099l29.404-29.404c8.331-8.331,8.331-21.839,0-30.17
				c-8.331-8.331-21.839-8.331-30.17,0l-29.404,29.404c-25.865-31.607-42.838-70.768-47.099-113.672h41.608
				c11.782,0,21.333-9.551,21.333-21.333s-9.551-21.333-21.333-21.333H43.726c4.26-42.904,21.234-82.066,47.099-113.672l29.41,29.41
				c8.331,8.331,21.839,8.331,30.17,0s8.331-21.839,0-30.17l-29.41-29.41c31.607-25.865,70.768-42.838,113.672-47.099v41.608
				c0,11.782,9.551,21.333,21.333,21.333s21.333-9.551,21.333-21.333V43.726c42.904,4.26,82.066,21.234,113.672,47.099l-29.41,29.41
				c-8.331,8.331-8.331,21.839,0,30.17s21.839,8.331,30.17,0l29.41-29.41c25.865,31.607,42.838,70.768,47.099,113.672h-41.608
				c-11.782,0-21.333,9.551-21.333,21.333s9.551,21.333,21.333,21.333h41.608c-4.26,42.904-21.234,82.066-47.099,113.672
				L391.772,361.602z"/>
			<path d="M277.333,195.654v-46.321c0-11.782-9.551-21.333-21.333-21.333s-21.333,9.551-21.333,21.333v46.321
				c-18.185,6.426-32.587,20.828-39.013,39.013h-24.987c-11.782,0-21.333,9.551-21.333,21.333s9.551,21.333,21.333,21.333h24.987
				C204.438,302.192,228.128,320,256,320c35.355,0,64-28.645,64-64C320,228.128,302.192,204.438,277.333,195.654z M256,277.333
				c-11.791,0-21.333-9.542-21.333-21.333s9.542-21.333,21.333-21.333s21.333,9.542,21.333,21.333S267.791,277.333,256,277.333z"/>
		</g>
	</g>
</g>
<g>
</g>
<g>
</g>
<g>
</g>
<g>
</g>
<g>
</g>
<g>
</g>
<g>
</g>
<g>
</g>
<g>
</g>
<g>
</g>
<g>
</g>
<g>
</g>
<g>
</g>
<g>
</g>
<g>
</g>
</svg>
