<?xml version="1.0" encoding="iso-8859-1"?>
<!-- Generator: Adobe Illustrator 19.0.0, SVG Export Plug-In . SVG Version: 6.00 Build 0)  -->
<svg version="1.1" id="Layer_1" xmlns="http://www.w3.org/2000/svg" xmlns:xlink="http://www.w3.org/1999/xlink" x="0px" y="0px"
	 viewBox="0 0 512.043 512.043" style="enable-background:new 0 0 512.043 512.043;" xml:space="preserve">
<g transform="translate(0 -1)">
	<g>
		<g>
			<path d="M443.218,136.923c-0.026-0.033-0.052-0.066-0.078-0.099c-0.435-0.522-0.891-1.036-1.388-1.533l-128-128
				c-0.497-0.497-1.011-0.953-1.533-1.388c-0.032-0.027-0.066-0.052-0.099-0.078c-4.375-3.606-9.535-5.071-14.529-4.782H85.333
				C73.551,1.043,64,10.594,64,22.376v469.333c0,11.782,9.551,21.333,21.333,21.333h341.333c11.782,0,21.333-9.551,21.333-21.333
				V151.452C448.289,146.459,446.825,141.298,443.218,136.923z M375.163,129.043H320V73.879L375.163,129.043z M106.667,470.376
				V43.709h170.667v106.667c0,11.782,9.551,21.333,21.333,21.333h106.667v298.667H106.667z"/>
			<path d="M362.667,214.376H256c-11.782,0-21.333,9.551-21.333,21.333c0,11.782,9.551,21.333,21.333,21.333h106.667
				c11.782,0,21.333-9.551,21.333-21.333C384,223.927,374.449,214.376,362.667,214.376z"/>
			<path d="M149.333,257.043h21.333c11.782,0,21.333-9.551,21.333-21.333c0-11.782-9.551-21.333-21.333-21.333h-21.333
				c-11.782,0-21.333,9.551-21.333,21.333C128,247.492,137.551,257.043,149.333,257.043z"/>
			<path d="M362.667,299.709H320c-11.782,0-21.333,9.551-21.333,21.333s9.551,21.333,21.333,21.333h42.667
				c11.782,0,21.333-9.551,21.333-21.333S374.449,299.709,362.667,299.709z"/>
			<path d="M234.667,299.709h-85.333c-11.782,0-21.333,9.551-21.333,21.333s9.551,21.333,21.333,21.333h85.333
				c11.782,0,21.333-9.551,21.333-21.333S246.449,299.709,234.667,299.709z"/>
			<path d="M362.667,385.043h-85.333c-11.782,0-21.333,9.551-21.333,21.333c0,11.782,9.551,21.333,21.333,21.333h85.333
				c11.782,0,21.333-9.551,21.333-21.333C384,394.594,374.449,385.043,362.667,385.043z"/>
			<path d="M192,385.043h-42.667c-11.782,0-21.333,9.551-21.333,21.333c0,11.782,9.551,21.333,21.333,21.333H192
				c11.782,0,21.333-9.551,21.333-21.333C213.333,394.594,203.782,385.043,192,385.043z"/>
		</g>
	</g>
</g>
<g>
</g>
<g>
</g>
<g>
</g>
<g>
</g>
<g>
</g>
<g>
</g>
<g>
</g>
<g>
</g>
<g>
</g>
<g>
</g>
<g>
</g>
<g>
</g>
<g>
</g>
<g>
</g>
<g>
</g>
</svg>
