<?xml version="1.0" encoding="iso-8859-1"?>
<!-- Generator: Adobe Illustrator 19.0.0, SVG Export Plug-In . SVG Version: 6.00 Build 0)  -->
<svg version="1.1" id="Layer_1" xmlns="http://www.w3.org/2000/svg" xmlns:xlink="http://www.w3.org/1999/xlink" x="0px" y="0px"
	 viewBox="0 0 512 512" style="enable-background:new 0 0 512 512;" xml:space="preserve">
<g>
	<g>
		<g>
			<path d="M490.667,0H21.333C9.551,0,0,9.551,0,21.333v469.333C0,502.449,9.551,512,21.333,512h469.333
				c11.782,0,21.333-9.551,21.333-21.333V21.333C512,9.551,502.449,0,490.667,0z M469.333,469.333H42.667V42.667h426.667V469.333z"
				/>
			<path d="M256,128c11.782,0,21.333-9.551,21.333-21.333V85.333C277.333,73.551,267.782,64,256,64s-21.333,9.551-21.333,21.333
				v21.333C234.667,118.449,244.218,128,256,128z"/>
			<path d="M256,384c-11.782,0-21.333,9.551-21.333,21.333v21.333c0,11.782,9.551,21.333,21.333,21.333s21.333-9.551,21.333-21.333
				v-21.333C277.333,393.551,267.782,384,256,384z"/>
			<path d="M85.333,277.333h21.333c11.782,0,21.333-9.551,21.333-21.333s-9.551-21.333-21.333-21.333H85.333
				C73.551,234.667,64,244.218,64,256S73.551,277.333,85.333,277.333z"/>
			<path d="M405.333,277.333h21.333c11.782,0,21.333-9.551,21.333-21.333s-9.551-21.333-21.333-21.333h-21.333
				C393.551,234.667,384,244.218,384,256S393.551,277.333,405.333,277.333z"/>
			<path d="M420.418,121.752l21.333-21.333c8.331-8.331,8.331-21.839,0-30.17c-8.331-8.331-21.839-8.331-30.17,0l-21.333,21.333
				c-8.331,8.331-8.331,21.839,0,30.17C398.58,130.083,412.087,130.083,420.418,121.752z"/>
			<path d="M91.582,390.248l-21.333,21.333c-8.331,8.331-8.331,21.839,0,30.17c8.331,8.331,21.839,8.331,30.17,0l21.333-21.333
				c8.331-8.331,8.331-21.839,0-30.17C113.42,381.917,99.913,381.917,91.582,390.248z"/>
			<path d="M91.582,121.752c8.331,8.331,21.839,8.331,30.17,0c8.331-8.331,8.331-21.839,0-30.17l-21.333-21.333
				c-8.331-8.331-21.839-8.331-30.17,0s-8.331,21.839,0,30.17L91.582,121.752z"/>
			<path d="M420.418,390.248c-8.331-8.331-21.839-8.331-30.17,0s-8.331,21.839,0,30.17l21.333,21.333
				c8.331,8.331,21.839,8.331,30.17,0c8.331-8.331,8.331-21.839,0-30.17L420.418,390.248z"/>
			<path d="M192,277.333h64c11.782,0,21.333-9.551,21.333-21.333v-85.333c0-11.782-9.551-21.333-21.333-21.333
				s-21.333,9.551-21.333,21.333v64H192c-11.782,0-21.333,9.551-21.333,21.333S180.218,277.333,192,277.333z"/>
		</g>
	</g>
</g>
<g>
</g>
<g>
</g>
<g>
</g>
<g>
</g>
<g>
</g>
<g>
</g>
<g>
</g>
<g>
</g>
<g>
</g>
<g>
</g>
<g>
</g>
<g>
</g>
<g>
</g>
<g>
</g>
<g>
</g>
</svg>
