<?xml version="1.0" encoding="iso-8859-1"?>
<!-- Generator: Adobe Illustrator 19.0.0, SVG Export Plug-In . SVG Version: 6.00 Build 0)  -->
<svg version="1.1" id="Layer_1" xmlns="http://www.w3.org/2000/svg" xmlns:xlink="http://www.w3.org/1999/xlink" x="0px" y="0px"
	 viewBox="0 0 512 512" style="enable-background:new 0 0 512 512;" xml:space="preserve">
<g>
	<g>
		<path d="M490.667,213.333H341.333V64c0-11.782-9.551-21.333-21.333-21.333H21.333C9.551,42.667,0,52.218,0,64v213.333
			c0,11.782,9.551,21.333,21.333,21.333h149.333V448c0,11.782,9.551,21.333,21.333,21.333h298.667
			c11.782,0,21.333-9.551,21.333-21.333V234.667C512,222.885,502.449,213.333,490.667,213.333z M42.667,256V85.333h256v128H192
			c-11.782,0-21.333,9.551-21.333,21.333V256H42.667z M469.333,426.667h-256V277.333V256H320h149.333V426.667z"/>
	</g>
</g>
<g>
</g>
<g>
</g>
<g>
</g>
<g>
</g>
<g>
</g>
<g>
</g>
<g>
</g>
<g>
</g>
<g>
</g>
<g>
</g>
<g>
</g>
<g>
</g>
<g>
</g>
<g>
</g>
<g>
</g>
</svg>
