<?xml version="1.0" encoding="iso-8859-1"?>
<!-- Generator: Adobe Illustrator 19.0.0, SVG Export Plug-In . SVG Version: 6.00 Build 0)  -->
<svg version="1.1" id="Layer_1" xmlns="http://www.w3.org/2000/svg" xmlns:xlink="http://www.w3.org/1999/xlink" x="0px" y="0px"
	 viewBox="0 0 512 512" style="enable-background:new 0 0 512 512;" xml:space="preserve">
<g>
	<g>
		<g>
			<path d="M490.667,42.667H380.346C371.562,17.808,347.872,0,320,0s-51.562,17.808-60.346,42.667h-49.974
				C200.895,17.808,177.206,0,149.333,0S97.772,17.808,88.987,42.667H21.333C9.551,42.667,0,52.218,0,64v106.667v320
				C0,502.449,9.551,512,21.333,512h469.333c11.782,0,21.333-9.551,21.333-21.333v-320V64C512,52.218,502.449,42.667,490.667,42.667
				z M42.667,85.333h64C118.449,85.333,128,75.782,128,64c0-11.791,9.542-21.333,21.333-21.333S170.667,52.209,170.667,64
				s-9.542,21.333-21.333,21.333c-11.782,0-21.333,9.551-21.333,21.333c0,11.782,9.551,21.333,21.333,21.333
				c27.872,0,51.562-17.808,60.346-42.667h67.654c11.782,0,21.333-9.551,21.333-21.333c0-11.791,9.542-21.333,21.333-21.333
				S341.333,52.209,341.333,64S331.791,85.333,320,85.333c-11.782,0-21.333,9.551-21.333,21.333
				c0,11.782,9.551,21.333,21.333,21.333c27.872,0,51.562-17.808,60.346-42.667h88.987v64H42.667V85.333z M469.333,469.333H42.667
				V192h426.667V469.333z"/>
			<path d="M128,298.667c23.573,0,42.667-19.093,42.667-42.667S151.573,213.333,128,213.333c-23.573,0-42.667,19.093-42.667,42.667
				S104.427,298.667,128,298.667z"/>
			<path d="M256,298.667c23.573,0,42.667-19.093,42.667-42.667S279.573,213.333,256,213.333S213.333,232.427,213.333,256
				S232.427,298.667,256,298.667z"/>
			<path d="M384,298.667c23.573,0,42.667-19.093,42.667-42.667S407.573,213.333,384,213.333c-23.573,0-42.667,19.093-42.667,42.667
				S360.427,298.667,384,298.667z"/>
			<path d="M128,426.667c23.573,0,42.667-19.093,42.667-42.667c0-23.573-19.093-42.667-42.667-42.667
				c-23.573,0-42.667,19.093-42.667,42.667C85.333,407.573,104.427,426.667,128,426.667z"/>
			<path d="M256,426.667c23.573,0,42.667-19.093,42.667-42.667c0-23.573-19.093-42.667-42.667-42.667S213.333,360.427,213.333,384
				C213.333,407.573,232.427,426.667,256,426.667z"/>
			<path d="M384,448c35.355,0,64-28.645,64-64c0-35.355-28.645-64-64-64c-35.355,0-64,28.645-64,64C320,419.355,348.645,448,384,448
				z M384,362.667c11.791,0,21.333,9.542,21.333,21.333s-9.542,21.333-21.333,21.333s-21.333-9.542-21.333-21.333
				S372.209,362.667,384,362.667z"/>
		</g>
	</g>
</g>
<g>
</g>
<g>
</g>
<g>
</g>
<g>
</g>
<g>
</g>
<g>
</g>
<g>
</g>
<g>
</g>
<g>
</g>
<g>
</g>
<g>
</g>
<g>
</g>
<g>
</g>
<g>
</g>
<g>
</g>
</svg>
