<?xml version="1.0" encoding="iso-8859-1"?>
<!-- Generator: Adobe Illustrator 19.0.0, SVG Export Plug-In . SVG Version: 6.00 Build 0)  -->
<svg version="1.1" id="Layer_1" xmlns="http://www.w3.org/2000/svg" xmlns:xlink="http://www.w3.org/1999/xlink" x="0px" y="0px"
	 viewBox="0 0 512 512" style="enable-background:new 0 0 512 512;" xml:space="preserve">
<g>
	<g>
		<g>
			<path d="M490.667,0H21.333C9.551,0,0,9.551,0,21.333v469.333C0,502.449,9.551,512,21.333,512h469.333
				c11.782,0,21.333-9.551,21.333-21.333V21.333C512,9.551,502.449,0,490.667,0z M469.333,469.333H42.667V42.667h426.667V469.333z"
				/>
			<path d="M106.667,384H128v21.333c0,11.782,9.551,21.333,21.333,21.333c11.782,0,21.333-9.551,21.333-21.333V384H192
				c11.782,0,21.333-9.551,21.333-21.333v-128c0-11.782-9.551-21.333-21.333-21.333h-21.333V106.667
				c0-11.782-9.551-21.333-21.333-21.333c-11.782,0-21.333,9.551-21.333,21.333v106.667h-21.333
				c-11.782,0-21.333,9.551-21.333,21.333v128C85.333,374.449,94.885,384,106.667,384z M128,256h42.667v85.333H128V256z"/>
			<path d="M320,298.667h21.333v106.667c0,11.782,9.551,21.333,21.333,21.333S384,417.115,384,405.333V298.667h21.333
				c11.782,0,21.333-9.551,21.333-21.333v-128c0-11.782-9.551-21.333-21.333-21.333H384v-21.333
				c0-11.782-9.551-21.333-21.333-21.333s-21.333,9.551-21.333,21.333V128H320c-11.782,0-21.333,9.551-21.333,21.333v128
				C298.667,289.115,308.218,298.667,320,298.667z M341.333,170.667H384V256h-42.667V170.667z"/>
		</g>
	</g>
</g>
<g>
</g>
<g>
</g>
<g>
</g>
<g>
</g>
<g>
</g>
<g>
</g>
<g>
</g>
<g>
</g>
<g>
</g>
<g>
</g>
<g>
</g>
<g>
</g>
<g>
</g>
<g>
</g>
<g>
</g>
</svg>
