<?xml version="1.0" encoding="iso-8859-1"?>
<!-- Generator: Adobe Illustrator 19.0.0, SVG Export Plug-In . SVG Version: 6.00 Build 0)  -->
<svg version="1.1" id="Layer_1" xmlns="http://www.w3.org/2000/svg" xmlns:xlink="http://www.w3.org/1999/xlink" x="0px" y="0px"
	 viewBox="0 0 512 512" style="enable-background:new 0 0 512 512;" xml:space="preserve">
<g>
	<g>
		<g>
			<path d="M448,64H64C28.645,64,0,92.645,0,128v42.667v64V384c0,35.355,28.645,64,64,64h384c35.355,0,64-28.645,64-64V234.667v-64
				V128C512,92.645,483.355,64,448,64z M64,106.667h384c11.791,0,21.333,9.542,21.333,21.333v21.333H42.667V128
				C42.667,116.209,52.209,106.667,64,106.667z M469.333,213.333H42.667V192h426.667V213.333z M448,405.333H64
				c-11.791,0-21.333-9.542-21.333-21.333V256h426.667v128C469.333,395.791,459.791,405.333,448,405.333z"/>
			<path d="M426.667,277.333h-128c-11.782,0-21.333,9.551-21.333,21.333c0,11.782,9.551,21.333,21.333,21.333h128
				c11.782,0,21.333-9.551,21.333-21.333C448,286.885,438.449,277.333,426.667,277.333z"/>
			<path d="M214.291,328.657c-10.987-0.576-38.229,16.832-43.883,6.741c-5.547-9.877-19.477-13.611-29.184-7.637
				c-11.541,7.083-28.437,20.608-40.811,7.168c-18.624-20.267-48.747,9.984-30.165,30.165c22.142,24.067,50.774,20.365,76.725,8.105
				c5.942,4.846,12.967,8.261,21.088,9.708c6.699,1.173,48.171-3.029,39.488-14.933c16.021,21.952,53.056,0.704,36.843-21.525
				C236.414,335.526,228.457,329.425,214.291,328.657z"/>
		</g>
	</g>
</g>
<g>
</g>
<g>
</g>
<g>
</g>
<g>
</g>
<g>
</g>
<g>
</g>
<g>
</g>
<g>
</g>
<g>
</g>
<g>
</g>
<g>
</g>
<g>
</g>
<g>
</g>
<g>
</g>
<g>
</g>
</svg>
