<?xml version="1.0" encoding="iso-8859-1"?>
<!-- Generator: Adobe Illustrator 19.0.0, SVG Export Plug-In . SVG Version: 6.00 Build 0)  -->
<svg version="1.1" id="Layer_1" xmlns="http://www.w3.org/2000/svg" xmlns:xlink="http://www.w3.org/1999/xlink" x="0px" y="0px"
	 viewBox="0 0 512.026 512.026" style="enable-background:new 0 0 512.026 512.026;" xml:space="preserve">
<g transform="translate(0 -1)">
	<g>
		<g>
			<path d="M484.819,1.834L340.978,42.931L176.328,1.769c-1.737-0.48-3.549-0.744-5.404-0.762c-0.149-0.002-0.297,0.003-0.446,0.004
				c-0.23,0.003-0.46,0.003-0.692,0.013c-1.835,0.074-3.622,0.39-5.329,0.913L15.486,44.5C6.327,47.117,0.013,55.488,0.013,65.013
				V491.68c0,14.173,13.566,24.406,27.194,20.513l143.841-41.097l164.651,41.163c1.737,0.48,3.549,0.744,5.404,0.762
				c0.149,0.002,0.297-0.003,0.446-0.004c0.23-0.003,0.46-0.003,0.692-0.013c1.835-0.074,3.621-0.39,5.328-0.913l148.972-42.564
				c9.158-2.617,15.473-10.988,15.473-20.513V22.346C512.013,8.173,498.447-2.06,484.819,1.834z M42.68,81.105l106.667-30.476
				v281.27c-7.166,5.593-10.209,15.401-6.829,24.363c1.441,3.793,3.847,6.937,6.829,9.264v67.395L42.68,463.397V81.105z
				 M192.013,360.825c12.031-4.063,24.417-7.877,37.033-11.389c11.349-3.157,17.984-14.912,14.827-26.283
				c-3.179-11.349-14.912-17.984-26.283-14.805c-8.634,2.397-17.168,4.934-25.577,7.589V49.67l128,32v204.456
				c-11.825,2.978-24.514,5.436-38.125,7.95c-11.584,2.176-19.221,13.291-17.067,24.875c1.92,10.261,10.859,17.429,20.949,17.429
				c1.301,0,2.603-0.085,3.925-0.341c10.278-1.906,20.42-3.853,30.317-6.074v134.393l-128-32V360.825z M469.346,432.921
				L362.68,463.397V315.451c5.916-5.639,8.302-14.426,5.374-22.613c-1.161-3.245-3.034-6.035-5.374-8.264V81.105l106.667-30.476
				V432.921z"/>
			<path d="M94.112,355.601c-13.547,7.019-20.416,11.541-20.416,11.541c-9.813,6.443-12.587,19.627-6.165,29.483
				c4.075,6.293,10.901,9.707,17.877,9.707c3.968,0,7.979-1.109,11.541-3.413c0.469-0.299,6.144-3.904,16.811-9.451
				c10.453-5.44,14.549-18.304,9.109-28.757C117.451,354.278,104.587,350.182,94.112,355.601z"/>
			<path d="M421.046,204.113c1.003,0.149,2.027,0.213,3.029,0.213c10.453,0,19.563-7.68,21.099-18.325
				c1.877-13.291,2.837-25.28,2.837-35.648c0-11.797-9.557-21.333-21.333-21.333s-21.333,9.536-21.333,21.333
				c0,8.235-0.832,18.496-2.432,29.632C401.27,191.654,409.376,202.449,421.046,204.113z"/>
			<path d="M387.552,281.766c3.691,2.539,7.915,3.776,12.096,3.776c6.784,0,13.44-3.243,17.579-9.237
				c3.136-4.544,5.909-9.408,8.149-14.315c1.28-2.795,2.581-5.931,3.861-9.387c4.075-11.072-1.579-23.317-12.629-27.413
				c-11.029-4.075-23.296,1.579-27.392,12.608c-0.853,2.304-1.707,4.395-2.603,6.357c-1.301,2.859-2.816,5.483-4.501,7.936
				C375.414,261.777,377.845,275.067,387.552,281.766z"/>
			<path d="M292.527,250.664c8.331-8.331,8.331-21.839,0-30.17l-6.408-6.408l6.298-6.358c8.292-8.371,8.228-21.878-0.143-30.17
				c-8.371-8.292-21.878-8.228-30.17,0.143l-6.156,6.215l-6.152-6.152c-8.331-8.331-21.839-8.331-30.17,0s-8.331,21.839,0,30.17
				l6.295,6.295l-6.377,6.438c-8.292,8.371-8.228,21.878,0.143,30.17c8.371,8.292,21.878,8.228,30.169-0.143l6.235-6.294
				l6.265,6.265C270.689,258.996,284.196,258.996,292.527,250.664z"/>
		</g>
	</g>
</g>
<g>
</g>
<g>
</g>
<g>
</g>
<g>
</g>
<g>
</g>
<g>
</g>
<g>
</g>
<g>
</g>
<g>
</g>
<g>
</g>
<g>
</g>
<g>
</g>
<g>
</g>
<g>
</g>
<g>
</g>
</svg>
