<?xml version="1.0" encoding="iso-8859-1"?>
<!-- Generator: Adobe Illustrator 19.0.0, SVG Export Plug-In . SVG Version: 6.00 Build 0)  -->
<svg version="1.1" id="Layer_1" xmlns="http://www.w3.org/2000/svg" xmlns:xlink="http://www.w3.org/1999/xlink" x="0px" y="0px"
	 viewBox="0 0 512 512" style="enable-background:new 0 0 512 512;" xml:space="preserve">
<g transform="translate(0 -1)">
	<g>
		<path d="M504.176,240.489l-234.667-192C255.58,37.092,234.667,47.003,234.667,65v146.981L34.842,48.489
			C20.913,37.092,0,47.003,0,65v384c0,17.997,20.913,27.908,34.842,16.511l199.824-163.493V449
			c0,17.997,20.913,27.908,34.842,16.511l234.667-192C514.608,264.976,514.608,249.024,504.176,240.489z M42.667,403.982V110.018
			L222.311,257L42.667,403.982z M277.333,403.982V110.018L456.977,257L277.333,403.982z"/>
	</g>
</g>
<g>
</g>
<g>
</g>
<g>
</g>
<g>
</g>
<g>
</g>
<g>
</g>
<g>
</g>
<g>
</g>
<g>
</g>
<g>
</g>
<g>
</g>
<g>
</g>
<g>
</g>
<g>
</g>
<g>
</g>
</svg>
