<?xml version="1.0" encoding="iso-8859-1"?>
<!-- Generator: Adobe Illustrator 19.0.0, SVG Export Plug-In . SVG Version: 6.00 Build 0)  -->
<svg version="1.1" id="Layer_1" xmlns="http://www.w3.org/2000/svg" xmlns:xlink="http://www.w3.org/1999/xlink" x="0px" y="0px"
	 viewBox="0 0 512 512" style="enable-background:new 0 0 512 512;" xml:space="preserve">
<g>
	<g>
		<g>
			<path d="M256,128c-70.683,0-128,57.317-128,128s57.317,128,128,128s128-57.317,128-128S326.683,128,256,128z M256,341.333
				c-47.119,0-85.333-38.214-85.333-85.333s38.214-85.333,85.333-85.333s85.333,38.214,85.333,85.333S303.119,341.333,256,341.333z"
				/>
			<path d="M490.667,192h-31.319c-3.759-11.897-8.567-23.427-14.363-34.485l22.196-22.196c8.331-8.331,8.331-21.839,0-30.17
				L406.85,44.819c-8.331-8.331-21.839-8.331-30.17,0l-22.192,22.192C343.436,61.215,331.904,56.407,320,52.649V21.333
				C320,9.551,310.449,0,298.667,0h-85.333C201.551,0,192,9.551,192,21.333v31.315c-11.904,3.758-23.436,8.567-34.489,14.362
				L135.32,44.819c-8.331-8.331-21.839-8.331-30.17,0L44.819,105.15c-8.331,8.331-8.331,21.839,0,30.17l22.196,22.196
				C61.22,168.573,56.411,180.103,52.652,192H21.333C9.551,192,0,201.551,0,213.333v85.333C0,310.449,9.551,320,21.333,320h31.315
				c3.758,11.904,8.567,23.436,14.362,34.489L44.819,376.68c-8.331,8.331-8.331,21.839,0,30.17l60.331,60.331
				c8.331,8.331,21.839,8.331,30.17,0l22.192-22.192c11.053,5.795,22.584,10.604,34.489,14.362v31.315
				c0,11.782,9.551,21.333,21.333,21.333h85.333c11.782,0,21.333-9.551,21.333-21.333v-31.315
				c11.904-3.758,23.436-8.567,34.489-14.362l22.192,22.192c8.331,8.331,21.839,8.331,30.17,0l60.331-60.331
				c8.331-8.331,8.331-21.839,0-30.17l-22.192-22.192c5.795-11.053,10.604-22.584,14.362-34.489h31.315
				c11.782,0,21.333-9.551,21.333-21.333v-85.333C512,201.551,502.449,192,490.667,192z M469.333,277.333h-26.283
				c-9.958,0-18.592,6.89-20.802,16.6c-4.252,18.688-11.677,36.44-21.94,52.692c-5.324,8.431-4.098,19.425,2.953,26.476
				l18.664,18.664l-30.161,30.161l-18.664-18.664c-7.051-7.051-18.045-8.277-26.476-2.953
				c-16.251,10.263-34.004,17.688-52.692,21.94c-9.71,2.21-16.6,10.843-16.6,20.802v26.283h-42.667v-26.283
				c0-9.958-6.89-18.592-16.6-20.802c-18.688-4.252-36.44-11.677-52.692-21.94c-8.431-5.324-19.425-4.098-26.476,2.953
				l-18.664,18.664l-30.161-30.161l18.664-18.664c7.051-7.051,8.277-18.045,2.953-26.476c-10.263-16.251-17.688-34.004-21.94-52.692
				c-2.21-9.71-10.843-16.6-20.802-16.6H42.667v-42.667h26.283c9.957,0,18.589-6.888,20.801-16.596
				c4.253-18.67,11.679-36.427,21.947-52.706c5.317-8.43,4.089-19.419-2.959-26.466l-18.664-18.664l30.161-30.161l18.664,18.664
				c7.051,7.051,18.045,8.277,26.476,2.953c16.251-10.263,34.004-17.688,52.692-21.94c9.71-2.21,16.6-10.843,16.6-20.802V42.667
				h42.667v26.283c0,9.958,6.89,18.592,16.6,20.802c18.688,4.252,36.44,11.677,52.692,21.94c8.431,5.324,19.425,4.098,26.476-2.953
				l18.664-18.664l30.161,30.161l-18.664,18.664c-7.048,7.048-8.276,18.036-2.959,26.466c10.268,16.278,17.695,34.035,21.947,52.706
				c2.211,9.708,10.844,16.596,20.801,16.596h26.283V277.333z"/>
			<path d="M256,192c-35.355,0-64,28.645-64,64s28.645,64,64,64s64-28.645,64-64S291.355,192,256,192z M256,277.333
				c-11.791,0-21.333-9.542-21.333-21.333s9.542-21.333,21.333-21.333s21.333,9.542,21.333,21.333S267.791,277.333,256,277.333z"/>
		</g>
	</g>
</g>
<g>
</g>
<g>
</g>
<g>
</g>
<g>
</g>
<g>
</g>
<g>
</g>
<g>
</g>
<g>
</g>
<g>
</g>
<g>
</g>
<g>
</g>
<g>
</g>
<g>
</g>
<g>
</g>
<g>
</g>
</svg>
