<?xml version="1.0" encoding="iso-8859-1"?>
<!-- Generator: Adobe Illustrator 19.0.0, SVG Export Plug-In . SVG Version: 6.00 Build 0)  -->
<svg version="1.1" id="Layer_1" xmlns="http://www.w3.org/2000/svg" xmlns:xlink="http://www.w3.org/1999/xlink" x="0px" y="0px"
	 viewBox="0 0 512.009 512.009" style="enable-background:new 0 0 512.009 512.009;" xml:space="preserve">
<g>
	<g>
		<path d="M437.238,75.221c-0.075-0.077-0.138-0.16-0.214-0.236c-99.979-99.979-262.075-99.979-362.033,0.002
			c-99.902,99.902-99.974,261.825-0.221,361.801c0.075,0.077,0.138,0.161,0.214,0.237c99.979,99.979,262.075,99.979,362.033-0.002
			C536.919,337.12,536.992,175.197,437.238,75.221z M105.163,105.154c78.207-78.225,202.06-83.005,285.862-14.34L90.821,391.018
			C22.157,307.233,26.938,183.38,105.163,105.154z M406.846,406.854c-78.207,78.225-202.06,83.005-285.862,14.34l300.204-300.204
			C489.851,204.775,485.071,328.629,406.846,406.854z"/>
	</g>
</g>
<g>
</g>
<g>
</g>
<g>
</g>
<g>
</g>
<g>
</g>
<g>
</g>
<g>
</g>
<g>
</g>
<g>
</g>
<g>
</g>
<g>
</g>
<g>
</g>
<g>
</g>
<g>
</g>
<g>
</g>
</svg>
