<?xml version="1.0" encoding="iso-8859-1"?>
<!-- Generator: Adobe Illustrator 19.0.0, SVG Export Plug-In . SVG Version: 6.00 Build 0)  -->
<svg version="1.1" id="Layer_1" xmlns="http://www.w3.org/2000/svg" xmlns:xlink="http://www.w3.org/1999/xlink" x="0px" y="0px"
	 viewBox="0 0 512 512" style="enable-background:new 0 0 512 512;" xml:space="preserve">
<g>
	<g>
		<g>
			<path d="M192,128c0-35.355-28.645-64-64-64s-64,28.645-64,64s28.645,64,64,64S192,163.355,192,128z M106.667,128
				c0-11.791,9.542-21.333,21.333-21.333s21.333,9.542,21.333,21.333s-9.542,21.333-21.333,21.333S106.667,139.791,106.667,128z"/>
			<path d="M490.667,0H21.333C9.551,0,0,9.551,0,21.333v384v85.333C0,502.449,9.551,512,21.333,512h469.333
				c11.782,0,21.333-9.551,21.333-21.333v-85.333v-384C512,9.551,502.449,0,490.667,0z M42.667,42.667h426.667V384H42.667V42.667z
				 M469.333,469.333H42.667v-42.667h426.667V469.333z"/>
			<path d="M335.085,134.248c-9.814-9.814-26.238-7.792-33.378,4.109l-49.942,83.237l-23.346-23.346
				c-8.331-8.331-21.839-8.331-30.17,0L91.582,304.915c-8.331,8.331-8.331,21.839,0,30.17s21.839,8.331,30.17,0l91.582-91.582
				l48.915,48.915c8.331,8.331,21.839,8.331,30.17,0s8.331-21.839,0-30.17l-9.555-9.555l41.373-68.954l66.013,66.013
				c8.331,8.331,21.839,8.331,30.17,0c8.331-8.331,8.331-21.839,0-30.17L335.085,134.248z"/>
		</g>
	</g>
</g>
<g>
</g>
<g>
</g>
<g>
</g>
<g>
</g>
<g>
</g>
<g>
</g>
<g>
</g>
<g>
</g>
<g>
</g>
<g>
</g>
<g>
</g>
<g>
</g>
<g>
</g>
<g>
</g>
<g>
</g>
</svg>
