<?xml version="1.0" encoding="iso-8859-1"?>
<!-- Generator: Adobe Illustrator 19.0.0, SVG Export Plug-In . SVG Version: 6.00 Build 0)  -->
<svg version="1.1" id="Layer_1" xmlns="http://www.w3.org/2000/svg" xmlns:xlink="http://www.w3.org/1999/xlink" x="0px" y="0px"
	 viewBox="0 0 512 512" style="enable-background:new 0 0 512 512;" xml:space="preserve">
<g>
	<g>
		<g>
			<path d="M469.333,0H42.667C19.109,0,0,19.109,0,42.667v106.667c0,11.782,9.551,21.333,21.333,21.333h21.333v320
				C42.667,502.449,52.218,512,64,512h384c11.782,0,21.333-9.551,21.333-21.333v-320h21.333c11.782,0,21.333-9.551,21.333-21.333
				V42.667C512,19.109,492.891,0,469.333,0z M426.667,469.333H85.333V170.667h341.333V469.333z M469.333,128H448H64H42.667V42.667
				h426.667V128z"/>
			<path d="M149.333,405.333h213.333c11.782,0,21.333-9.551,21.333-21.333V277.333c0-11.782-9.551-21.333-21.333-21.333H149.333
				C137.551,256,128,265.551,128,277.333V384C128,395.782,137.551,405.333,149.333,405.333z M170.667,298.667h170.667v64H170.667
				V298.667z"/>
			<path d="M192,106.667h128c11.782,0,21.333-9.551,21.333-21.333C341.333,73.551,331.782,64,320,64H192
				c-11.782,0-21.333,9.551-21.333,21.333C170.667,97.115,180.218,106.667,192,106.667z"/>
		</g>
	</g>
</g>
<g>
</g>
<g>
</g>
<g>
</g>
<g>
</g>
<g>
</g>
<g>
</g>
<g>
</g>
<g>
</g>
<g>
</g>
<g>
</g>
<g>
</g>
<g>
</g>
<g>
</g>
<g>
</g>
<g>
</g>
</svg>
