<?xml version="1.0" encoding="iso-8859-1"?>
<!-- Generator: Adobe Illustrator 19.0.0, SVG Export Plug-In . SVG Version: 6.00 Build 0)  -->
<svg version="1.1" id="Layer_1" xmlns="http://www.w3.org/2000/svg" xmlns:xlink="http://www.w3.org/1999/xlink" x="0px" y="0px"
	 viewBox="0 0 512 512" style="enable-background:new 0 0 512 512;" xml:space="preserve">
<g>
	<g>
		<path d="M490.667,42.667H448V21.333C448,9.551,438.449,0,426.667,0H85.333C73.551,0,64,9.551,64,21.333v21.333H21.333
			C9.551,42.667,0,52.218,0,64v384c0,11.782,9.551,21.333,21.333,21.333H64v21.333C64,502.449,73.551,512,85.333,512h341.333
			c11.782,0,21.333-9.551,21.333-21.333v-21.333h42.667c11.782,0,21.333-9.551,21.333-21.333V64
			C512,52.218,502.449,42.667,490.667,42.667z M42.667,426.667V85.333H64v341.333H42.667z M405.333,469.333H106.667V448V64V42.667
			h298.667V64v384V469.333z M469.333,426.667H448V85.333h21.333V426.667z"/>
	</g>
</g>
<g>
</g>
<g>
</g>
<g>
</g>
<g>
</g>
<g>
</g>
<g>
</g>
<g>
</g>
<g>
</g>
<g>
</g>
<g>
</g>
<g>
</g>
<g>
</g>
<g>
</g>
<g>
</g>
<g>
</g>
</svg>
