<?xml version="1.0" encoding="iso-8859-1"?>
<!-- Generator: Adobe Illustrator 19.0.0, SVG Export Plug-In . SVG Version: 6.00 Build 0)  -->
<svg version="1.1" id="Layer_1" xmlns="http://www.w3.org/2000/svg" xmlns:xlink="http://www.w3.org/1999/xlink" x="0px" y="0px"
	 viewBox="0 0 512.009 512.009" style="enable-background:new 0 0 512.009 512.009;" xml:space="preserve">
<g>
	<g>
		<path d="M490.671,181.338h-21.333V74.671c0-11.782-9.551-21.333-21.333-21.333H226.457l-15.414-30.489
			c-3.618-7.156-10.942-11.679-18.96-11.708l-128-0.469c-11.813-0.043-21.412,9.521-21.412,21.333v149.333H21.338
			c-13.075,0-23.073,11.654-21.085,24.577l42.667,277.333c1.601,10.407,10.556,18.089,21.085,18.089h384
			c10.53,0,19.484-7.682,21.085-18.089l42.667-277.333C513.745,192.992,503.746,181.338,490.671,181.338z M85.338,53.416
			l93.523,0.343l15.438,30.537c3.63,7.181,10.992,11.708,19.039,11.708h213.333v85.333H85.338V53.416z M429.702,458.671H82.307
			L46.204,224.005h17.8h384h17.8L429.702,458.671z"/>
	</g>
</g>
<g>
</g>
<g>
</g>
<g>
</g>
<g>
</g>
<g>
</g>
<g>
</g>
<g>
</g>
<g>
</g>
<g>
</g>
<g>
</g>
<g>
</g>
<g>
</g>
<g>
</g>
<g>
</g>
<g>
</g>
</svg>
