<?xml version="1.0" encoding="iso-8859-1"?>
<!-- Generator: Adobe Illustrator 19.0.0, SVG Export Plug-In . SVG Version: 6.00 Build 0)  -->
<svg version="1.1" id="Layer_1" xmlns="http://www.w3.org/2000/svg" xmlns:xlink="http://www.w3.org/1999/xlink" x="0px" y="0px"
	 viewBox="0 0 492.79 492.79" style="enable-background:new 0 0 492.79 492.79;" xml:space="preserve">
<g>
	<g>
		<path d="M448.542,372.506l-36.269-24.166l0,0c10.429,0.463,22.089-0.259,33.658-3.131c2.998-0.744,5.913-1.624,8.734-2.653
			c23.325-8.54,31.031-37.319,17.058-57.223c-1.521-2.164-3.133-4.403-5.485-7.628c-2.894-3.962-4.437-6.075-5.905-8.104
			c-4.916-6.792-8.743-12.298-12.43-17.983c-19.498-30.059-30.191-58.493-30.813-90.574c-0.387-15.447-4.497-37.028-15.956-59.016
			c-9.74-18.689-23.557-34.174-41.989-44.971c-21.111-10.327-40.078-15.93-60.418-16.079c-0.415,0.012-0.744,0.022-1.011,0.03
			c-0.255-0.008-0.593-0.018-1.085-0.031c-4.693,0.035-9.284,0.392-13.911,1.047C261.99,16.396,230.294,0,194.767,0h-19.62
			c-62.443,0-113.07,50.635-113.07,113.07v91.73c0,35.327,15.208,68.049,40.96,91.114v43.078l-51.593,16.236l-1.922,0.712
			c-29.648,12.71-48.885,41.884-48.885,74.14v42.23c0,11.342,9.218,20.524,20.559,20.48l327.261-1.268
			c0.113,0.002,0.222,0.017,0.335,0.017h122.88c11.311,0,20.48-9.169,20.48-20.48v-24.084
			C492.153,415.257,475.976,386.806,448.542,372.506z M296.254,41.089c-0.045,0.005-0.091,0.01-0.143,0.015
			C296.155,41.098,296.188,41.094,296.254,41.089z M41.597,430.08c0-15.564,9.111-29.681,23.223-36.121l64.845-20.406
			c8.53-2.684,14.332-10.593,14.332-19.536v-67.748c0-6.42-3.01-12.468-8.131-16.338c-20.58-15.554-32.828-39.297-32.828-65.131
			v-91.73c0-39.815,32.29-72.11,72.11-72.11h19.62c24.904,0,46.862,12.633,59.819,31.837c0.394,0.918,0.852,1.823,1.394,2.706
			c6.142,9.99,9.803,20.916,10.681,32.253c0.015,0.21,0.034,0.419,0.048,0.629c0.039,0.579,0.069,1.16,0.094,1.742
			c0.031,0.78,0.053,1.562,0.059,2.348c0.002,0.205,0.011,0.409,0.011,0.615v91.73c0,25.816-12.251,49.558-32.828,65.111
			c-5.121,3.871-8.132,9.919-8.132,16.338v67.748c0,7.942,4.574,15.055,11.549,18.431c0.997,0.483,2.044,0.89,3.133,1.212
			l64.647,19.099c10.332,4.766,17.947,13.662,21.25,24.213c1.179,3.772,1.821,7.752,1.821,11.838v21.831L41.597,451.75V430.08z"/>
	</g>
</g>
<g>
</g>
<g>
</g>
<g>
</g>
<g>
</g>
<g>
</g>
<g>
</g>
<g>
</g>
<g>
</g>
<g>
</g>
<g>
</g>
<g>
</g>
<g>
</g>
<g>
</g>
<g>
</g>
<g>
</g>
</svg>
