<?xml version="1.0" encoding="iso-8859-1"?>
<!-- Generator: Adobe Illustrator 19.0.0, SVG Export Plug-In . SVG Version: 6.00 Build 0)  -->
<svg version="1.1" id="Layer_1" xmlns="http://www.w3.org/2000/svg" xmlns:xlink="http://www.w3.org/1999/xlink" x="0px" y="0px"
	 viewBox="0 0 512 512" style="enable-background:new 0 0 512 512;" xml:space="preserve">
<g>
	<g>
		<path d="M490.667,42.667H192c-11.782,0-21.333,9.551-21.333,21.333v64h-64c-11.782,0-21.333,9.551-21.333,21.333v64h-64
			C9.551,213.333,0,222.885,0,234.667V448c0,11.782,9.551,21.333,21.333,21.333H320c11.782,0,21.333-9.551,21.333-21.333v-64h64
			c11.782,0,21.333-9.551,21.333-21.333v-64h64c11.782,0,21.333-9.551,21.333-21.333V64C512,52.218,502.449,42.667,490.667,42.667z
			 M298.667,426.667h-256V256h42.667v106.667c0,11.782,9.551,21.333,21.333,21.333h192V426.667z M384,341.333h-64H128V234.667v-64
			h42.667v106.667c0,11.782,9.551,21.333,21.333,21.333h192V341.333z M469.333,256h-64h-192V149.333v-64h256V256z"/>
	</g>
</g>
<g>
</g>
<g>
</g>
<g>
</g>
<g>
</g>
<g>
</g>
<g>
</g>
<g>
</g>
<g>
</g>
<g>
</g>
<g>
</g>
<g>
</g>
<g>
</g>
<g>
</g>
<g>
</g>
<g>
</g>
</svg>
