<?xml version="1.0" encoding="iso-8859-1"?>
<!-- Generator: Adobe Illustrator 19.0.0, SVG Export Plug-In . SVG Version: 6.00 Build 0)  -->
<svg version="1.1" id="Layer_1" xmlns="http://www.w3.org/2000/svg" xmlns:xlink="http://www.w3.org/1999/xlink" x="0px" y="0px"
	 viewBox="0 0 512 512" style="enable-background:new 0 0 512 512;" xml:space="preserve">
<g>
	<g>
		<g>
			<path d="M256,106.667c11.782,0,21.333-9.551,21.333-21.333v-64C277.333,9.551,267.782,0,256,0
				c-11.782,0-21.333,9.551-21.333,21.333v64C234.667,97.115,244.218,106.667,256,106.667z"/>
			<path d="M437.013,74.987c-8.331-8.331-21.839-8.331-30.17,0l-45.248,45.248c-8.331,8.331-8.331,21.839,0,30.17
				s21.839,8.331,30.17,0l45.248-45.248C445.345,96.825,445.345,83.318,437.013,74.987z"/>
			<path d="M150.404,150.404c8.331-8.331,8.331-21.839,0-30.17l-45.248-45.248c-8.331-8.331-21.839-8.331-30.17,0
				s-8.331,21.839,0,30.17l45.248,45.248C128.566,158.736,142.073,158.736,150.404,150.404z"/>
			<path d="M376.685,220.648c-0.047-0.047-0.098-0.085-0.145-0.131c-30.874-30.803-73.482-49.85-120.539-49.85
				c-94.257,0-170.667,76.41-170.667,170.667S161.743,512,256,512s170.667-76.41,170.667-170.667
				c0-47.058-19.047-89.666-49.85-120.539C376.77,220.747,376.732,220.695,376.685,220.648z M256,469.333
				c-70.693,0-128-57.307-128-128s57.307-128,128-128c27.644,0,53.241,8.764,74.165,23.665l-89.25,89.25
				c-8.331,8.331-8.331,21.839,0,30.17c8.331,8.331,21.839,8.331,30.17,0l89.25-89.25c14.9,20.924,23.665,46.521,23.665,74.165
				C384,412.026,326.693,469.333,256,469.333z"/>
		</g>
	</g>
</g>
<g>
</g>
<g>
</g>
<g>
</g>
<g>
</g>
<g>
</g>
<g>
</g>
<g>
</g>
<g>
</g>
<g>
</g>
<g>
</g>
<g>
</g>
<g>
</g>
<g>
</g>
<g>
</g>
<g>
</g>
</svg>
