<?xml version="1.0" encoding="iso-8859-1"?>
<!-- Generator: Adobe Illustrator 19.0.0, SVG Export Plug-In . SVG Version: 6.00 Build 0)  -->
<svg version="1.1" id="Layer_1" xmlns="http://www.w3.org/2000/svg" xmlns:xlink="http://www.w3.org/1999/xlink" x="0px" y="0px"
	 viewBox="0 0 512.004 512.004" style="enable-background:new 0 0 512.004 512.004;" xml:space="preserve">
<g>
	<g>
		<path d="M487.652,0.218L188.985,42.885c-10.51,1.501-18.316,10.502-18.316,21.119v85.333v208.892
			c-17.972-10.687-40.23-16.892-64-16.892c-57.794,0-106.667,36.652-106.667,85.333s48.872,85.333,106.667,85.333
			c57.794,0,106.667-36.652,106.667-85.333V167.84l256-36.571v162.961c-17.972-10.687-40.229-16.892-64-16.892
			c-57.794,0-106.667,36.652-106.667,85.333c0,48.681,48.872,85.333,106.667,85.333s106.667-36.652,106.667-85.333v-256V21.337
			C512.002,8.355,500.504-1.618,487.652,0.218z M106.669,469.337c-36.461,0-64-20.653-64-42.667s27.539-42.667,64-42.667
			c36.461,0,64,20.653,64,42.667S143.13,469.337,106.669,469.337z M213.335,82.506l256-36.571v42.234l-256,36.571V82.506z
			 M405.335,405.337c-36.461,0-64-20.653-64-42.667s27.539-42.667,64-42.667s64,20.653,64,42.667S441.797,405.337,405.335,405.337z"
			/>
	</g>
</g>
<g>
</g>
<g>
</g>
<g>
</g>
<g>
</g>
<g>
</g>
<g>
</g>
<g>
</g>
<g>
</g>
<g>
</g>
<g>
</g>
<g>
</g>
<g>
</g>
<g>
</g>
<g>
</g>
<g>
</g>
</svg>
