<?xml version="1.0" encoding="iso-8859-1"?>
<!-- Generator: Adobe Illustrator 19.0.0, SVG Export Plug-In . SVG Version: 6.00 Build 0)  -->
<svg version="1.1" id="Layer_1" xmlns="http://www.w3.org/2000/svg" xmlns:xlink="http://www.w3.org/1999/xlink" x="0px" y="0px"
	 viewBox="0 0 512.026 512.026" style="enable-background:new 0 0 512.026 512.026;" xml:space="preserve">
<g transform="translate(0 -1)">
	<g>
		<path d="M484.819,1.834L340.978,42.931L176.328,1.769c-1.737-0.48-3.549-0.744-5.404-0.762c-0.149-0.002-0.297,0.003-0.446,0.004
			c-0.23,0.003-0.46,0.003-0.692,0.013c-1.835,0.074-3.622,0.39-5.329,0.913L15.486,44.5C6.327,47.117,0.013,55.488,0.013,65.013
			V491.68c0,14.173,13.566,24.406,27.194,20.513l143.841-41.097l164.651,41.163c1.737,0.48,3.549,0.744,5.404,0.762
			c0.149,0.002,0.297-0.003,0.446-0.004c0.23-0.003,0.46-0.003,0.692-0.013c1.835-0.074,3.621-0.39,5.328-0.913l148.972-42.564
			c9.158-2.617,15.473-10.988,15.473-20.513V22.346C512.013,8.173,498.447-2.06,484.819,1.834z M42.68,81.105l106.667-30.476
			v382.293L42.68,463.397V81.105z M192.013,49.67l128,32v382.687l-128-32V49.67z M469.346,432.921L362.68,463.397V81.105
			l106.667-30.476V432.921z"/>
	</g>
</g>
<g>
</g>
<g>
</g>
<g>
</g>
<g>
</g>
<g>
</g>
<g>
</g>
<g>
</g>
<g>
</g>
<g>
</g>
<g>
</g>
<g>
</g>
<g>
</g>
<g>
</g>
<g>
</g>
<g>
</g>
</svg>
