<?xml version="1.0" encoding="iso-8859-1"?>
<!-- Generator: Adobe Illustrator 19.0.0, SVG Export Plug-In . SVG Version: 6.00 Build 0)  -->
<svg version="1.1" id="Layer_1" xmlns="http://www.w3.org/2000/svg" xmlns:xlink="http://www.w3.org/1999/xlink" x="0px" y="0px"
	 viewBox="0 0 512 512" style="enable-background:new 0 0 512 512;" xml:space="preserve">
<g>
	<g>
		<g>
			<path d="M362.667,64h-21.333V21.333C341.333,9.551,331.782,0,320,0H192c-11.782,0-21.333,9.551-21.333,21.333V64h-21.333
				C137.551,64,128,73.551,128,85.333v405.333c0,11.782,9.551,21.333,21.333,21.333h213.333c11.782,0,21.333-9.551,21.333-21.333
				V85.333C384,73.551,374.449,64,362.667,64z M213.333,42.667h85.333V64h-85.333V42.667z M341.333,469.333H170.667V106.667H192h128
				h21.333V469.333z"/>
			<path d="M303.841,256.637l-54.163-13.541l44.722-59.63c7.069-9.426,5.159-22.797-4.267-29.867
				c-9.426-7.069-22.797-5.159-29.867,4.267l-64,85.333c-9.154,12.206-2.909,29.796,11.893,33.496l54.163,13.541l-44.722,59.63
				c-7.069,9.426-5.159,22.797,4.267,29.867c9.426,7.069,22.797,5.159,29.867-4.267l64-85.333
				C324.888,277.928,318.642,260.337,303.841,256.637z"/>
		</g>
	</g>
</g>
<g>
</g>
<g>
</g>
<g>
</g>
<g>
</g>
<g>
</g>
<g>
</g>
<g>
</g>
<g>
</g>
<g>
</g>
<g>
</g>
<g>
</g>
<g>
</g>
<g>
</g>
<g>
</g>
<g>
</g>
</svg>
