<?xml version="1.0" encoding="iso-8859-1"?>
<!-- Generator: Adobe Illustrator 19.0.0, SVG Export Plug-In . SVG Version: 6.00 Build 0)  -->
<svg version="1.1" id="Layer_1" xmlns="http://www.w3.org/2000/svg" xmlns:xlink="http://www.w3.org/1999/xlink" x="0px" y="0px"
	 viewBox="0 0 512.787 512.787" style="enable-background:new 0 0 512.787 512.787;" xml:space="preserve">
<g>
	<g>
		<g>
			<path d="M320.39,42.667h-64V21.333C256.39,9.551,246.839,0,235.056,0h-128C95.274,0,85.723,9.551,85.723,21.333v21.333h-64
				C9.941,42.667,0.39,52.218,0.39,64v426.667C0.39,502.449,9.941,512,21.723,512H320.39c11.782,0,21.333-9.551,21.333-21.333V64
				C341.723,52.218,332.172,42.667,320.39,42.667z M128.39,42.667h85.333V64v21.333H128.39V64V42.667z M299.056,469.333h-256v-384
				h42.667v21.333c0,11.782,9.551,21.333,21.333,21.333h128c11.782,0,21.333-9.551,21.333-21.333V85.333h42.667V469.333z"/>
			<path d="M171.056,192c-11.782,0-21.333,9.551-21.333,21.333c0,11.782,9.551,21.333,21.333,21.333h85.333
				c11.782,0,21.333-9.551,21.333-21.333c0-11.782-9.551-21.333-21.333-21.333H171.056z"/>
			<path d="M85.723,234.667h21.333c11.782,0,21.333-9.551,21.333-21.333c0-11.782-9.551-21.333-21.333-21.333H85.723
				c-11.782,0-21.333,9.551-21.333,21.333C64.39,225.115,73.941,234.667,85.723,234.667z"/>
			<path d="M256.39,277.333h-21.333c-11.782,0-21.333,9.551-21.333,21.333c0,11.782,9.551,21.333,21.333,21.333h21.333
				c11.782,0,21.333-9.551,21.333-21.333C277.723,286.885,268.172,277.333,256.39,277.333z"/>
			<path d="M85.723,320h85.333c11.782,0,21.333-9.551,21.333-21.333c0-11.782-9.551-21.333-21.333-21.333H85.723
				c-11.782,0-21.333,9.551-21.333,21.333C64.39,310.449,73.941,320,85.723,320z"/>
			<path d="M256.39,362.667h-64c-11.782,0-21.333,9.551-21.333,21.333c0,11.782,9.551,21.333,21.333,21.333h64
				c11.782,0,21.333-9.551,21.333-21.333C277.723,372.218,268.172,362.667,256.39,362.667z"/>
			<path d="M128.39,362.667H85.723c-11.782,0-21.333,9.551-21.333,21.333c0,11.782,9.551,21.333,21.333,21.333h42.667
				c11.782,0,21.333-9.551,21.333-21.333C149.723,372.218,140.172,362.667,128.39,362.667z"/>
			<path d="M511.577,411.107c0.087-0.309,0.165-0.617,0.238-0.926c0.057-0.246,0.121-0.488,0.17-0.737
				c0.116-0.579,0.198-1.156,0.264-1.732c0.013-0.119,0.027-0.237,0.038-0.356c0.069-0.703,0.104-1.403,0.102-2.097V64
				c0-35.355-28.645-64-64-64c-35.355,0-64,28.645-64,64v340.307c-0.111,2.355,0.181,4.782,0.916,7.201
				c0.028,0.093,0.054,0.186,0.083,0.279c0.031,0.098,0.055,0.195,0.088,0.293l24.299,72.875
				c12.371,37.112,64.863,37.112,77.234-0.002l24.279-72.878c0.004-0.011,0.006-0.022,0.01-0.033
				C511.4,411.733,511.489,411.421,511.577,411.107z M461.454,426.667l-13.063,39.212c-3.998-11.989-13.051-39.141-13.075-39.212
				H461.454z M448.39,42.667c11.791,0,21.333,9.542,21.333,21.333v319.998h-42.667V64C427.056,52.209,436.599,42.667,448.39,42.667z
				"/>
		</g>
	</g>
</g>
<g>
</g>
<g>
</g>
<g>
</g>
<g>
</g>
<g>
</g>
<g>
</g>
<g>
</g>
<g>
</g>
<g>
</g>
<g>
</g>
<g>
</g>
<g>
</g>
<g>
</g>
<g>
</g>
<g>
</g>
</svg>
