<?xml version="1.0" encoding="iso-8859-1"?>
<!-- Generator: Adobe Illustrator 19.0.0, SVG Export Plug-In . SVG Version: 6.00 Build 0)  -->
<svg version="1.1" id="Layer_1" xmlns="http://www.w3.org/2000/svg" xmlns:xlink="http://www.w3.org/1999/xlink" x="0px" y="0px"
	 viewBox="0 0 512 512" style="enable-background:new 0 0 512 512;" xml:space="preserve">
<g>
	<g>
		<path d="M256,0C114.618,0,0,114.618,0,256s114.618,256,256,256s256-114.618,256-256S397.382,0,256,0z M213.329,341.325H161.19
			c0.544-0.044-2.348-0.422-6.039-1.089c-6.327-1.147-7.025-2.728-3.585-8.277c24.857-40.171,39.654-77.811,40.425-118.227
			c0.593-14.195,1.064-19.917,2.592-27.128c5.217-24.631,20.369-36.931,61.593-37.28c40.865,0.349,56.026,12.654,61.241,37.279
			c1.53,7.223,2,12.966,2.574,27.052c0.801,40.519,15.626,78.232,40.451,118.298c3.431,5.544,2.727,7.136-3.612,8.285
			c-3.686,0.667-6.571,1.044-8.031,1.183l-50.137-0.096c-11.782,0-21.333,9.551-21.333,21.333v42.667
			c0,9.744,6.602,18.249,16.041,20.666l61.606,15.778c-28.48,17.233-61.112,26.865-95.263,27.518
			c-0.542,0.009-1.085,0.015-1.629,0.021c-0.696,0.007-1.391,0.018-2.088,0.018c-0.688,0-1.374-0.01-2.061-0.018
			c-0.555-0.005-1.109-0.012-1.663-0.021c-34.148-0.654-66.778-10.286-95.255-27.517l61.606-15.778
			c9.439-2.417,16.041-10.923,16.041-20.666v-42.667C234.662,350.876,225.111,341.325,213.329,341.325z M398.774,414.502
			c-3.962-3.23-8.233-6.037-12.831-8.343l-4.271-1.597l-61.677-15.796v-4.775h30.827c4.594-0.341,8.633-0.87,13.609-1.77
			c36.002-6.526,51.525-41.645,32.286-72.732c-21.159-34.151-33.448-65.411-34.059-96.583c-0.708-17.491-1.305-24.778-3.5-35.143
			c-9.375-44.275-41.797-70.587-102.982-71.105c-61.545,0.518-93.955,26.827-103.333,71.104
			c-2.191,10.343-2.788,17.602-3.471,34.091c-0.634,32.211-12.898,63.41-34.077,97.637c-19.264,31.068-3.746,66.203,32.256,72.729
			c4.991,0.902,9.042,1.431,11.628,1.676l32.817,0.058v4.813l-61.677,15.796l-4.271,1.597c-4.596,2.305-8.866,5.111-12.827,8.339
			C69.904,375.452,42.667,318.909,42.667,256c0-117.818,95.515-213.333,213.333-213.333S469.333,138.182,469.333,256
			C469.333,318.91,442.094,375.456,398.774,414.502z"/>
	</g>
</g>
<g>
</g>
<g>
</g>
<g>
</g>
<g>
</g>
<g>
</g>
<g>
</g>
<g>
</g>
<g>
</g>
<g>
</g>
<g>
</g>
<g>
</g>
<g>
</g>
<g>
</g>
<g>
</g>
<g>
</g>
</svg>
