<?xml version="1.0" encoding="iso-8859-1"?>
<!-- Generator: Adobe Illustrator 19.0.0, SVG Export Plug-In . SVG Version: 6.00 Build 0)  -->
<svg version="1.1" id="Layer_1" xmlns="http://www.w3.org/2000/svg" xmlns:xlink="http://www.w3.org/1999/xlink" x="0px" y="0px"
	 viewBox="0 0 512 512" style="enable-background:new 0 0 512 512;" xml:space="preserve">
<g>
	<g>
		<g>
			<path d="M256,213.333h234.667c11.782,0,21.333-9.551,21.333-21.333V21.333C512,9.551,502.449,0,490.667,0H256
				C114.618,0,0,114.618,0,256s114.618,256,256,256h234.667c11.782,0,21.333-9.551,21.333-21.333V320
				c0-11.782-9.551-21.333-21.333-21.333H256c-23.567,0-42.667-19.099-42.667-42.667S232.433,213.333,256,213.333z M256,341.333
				h213.333v64v64H256c-117.818,0-213.333-95.515-213.333-213.333S138.182,42.667,256,42.667h149.333h64v64v64h-64H256
				c-47.131,0-85.333,38.202-85.333,85.333S208.869,341.333,256,341.333z"/>
			<path d="M448,384h-85.333c-11.782,0-21.333,9.551-21.333,21.333c0,11.782,9.551,21.333,21.333,21.333H448
				c11.782,0,21.333-9.551,21.333-21.333C469.333,393.551,459.782,384,448,384z"/>
			<path d="M384,64v21.333h-21.333c-11.782,0-21.333,9.551-21.333,21.333c0,11.782,9.551,21.333,21.333,21.333H384v21.333
				c0,11.782,9.551,21.333,21.333,21.333c11.782,0,21.333-9.551,21.333-21.333V128H448c11.782,0,21.333-9.551,21.333-21.333
				c0-11.782-9.551-21.333-21.333-21.333h-21.333V64c0-11.782-9.551-21.333-21.333-21.333C393.551,42.667,384,52.218,384,64z"/>
		</g>
	</g>
</g>
<g>
</g>
<g>
</g>
<g>
</g>
<g>
</g>
<g>
</g>
<g>
</g>
<g>
</g>
<g>
</g>
<g>
</g>
<g>
</g>
<g>
</g>
<g>
</g>
<g>
</g>
<g>
</g>
<g>
</g>
</svg>
