<?xml version="1.0" encoding="iso-8859-1"?>
<!-- Generator: Adobe Illustrator 19.0.0, SVG Export Plug-In . SVG Version: 6.00 Build 0)  -->
<svg version="1.1" id="Layer_1" xmlns="http://www.w3.org/2000/svg" xmlns:xlink="http://www.w3.org/1999/xlink" x="0px" y="0px"
	 viewBox="0 0 512 512" style="enable-background:new 0 0 512 512;" xml:space="preserve">
<g>
	<g>
		<g>
			<path d="M256,0C114.618,0,0,114.618,0,256s114.618,256,256,256s256-114.618,256-256S397.382,0,256,0z M256,469.333
				c-117.818,0-213.333-95.515-213.333-213.333S138.182,42.667,256,42.667S469.333,138.182,469.333,256S373.818,469.333,256,469.333
				z"/>
			<path d="M267.789,130.253l-78.571,39.296c-1.463,0.732-3.103,1.117-4.772,1.117h-56.448c-23.558,0-42.667,19.109-42.667,42.667
				v85.333c0,23.558,19.109,42.667,42.667,42.667h56.448c1.669,0,3.309,0.386,4.774,1.118l78.569,39.295
				c14.185,7.094,30.876-3.22,30.876-19.08V149.333C298.665,133.474,281.973,123.159,267.789,130.253z M255.998,328.144
				l-47.695-23.854c-7.402-3.701-15.575-5.624-23.857-5.624h-56.448v-85.333h56.448c8.283,0,16.456-1.923,23.855-5.623
				l47.697-23.855V328.144z"/>
			<path d="M414.17,256l30.178-30.178c8.331-8.331,8.331-21.839,0-30.17s-21.839-8.331-30.17,0L384,225.83l-30.169-30.169
				c-8.331-8.331-21.839-8.331-30.17,0s-8.331,21.839,0,30.17L353.83,256l-30.169,30.169c-8.331,8.331-8.331,21.839,0,30.17
				s21.839,8.331,30.17,0L384,286.17l30.178,30.178c8.331,8.331,21.839,8.331,30.17,0s8.331-21.839,0-30.17L414.17,256z"/>
		</g>
	</g>
</g>
<g>
</g>
<g>
</g>
<g>
</g>
<g>
</g>
<g>
</g>
<g>
</g>
<g>
</g>
<g>
</g>
<g>
</g>
<g>
</g>
<g>
</g>
<g>
</g>
<g>
</g>
<g>
</g>
<g>
</g>
</svg>
