<?xml version="1.0" encoding="iso-8859-1"?>
<!-- Generator: Adobe Illustrator 19.0.0, SVG Export Plug-In . SVG Version: 6.00 Build 0)  -->
<svg version="1.1" id="Layer_1" xmlns="http://www.w3.org/2000/svg" xmlns:xlink="http://www.w3.org/1999/xlink" x="0px" y="0px"
	 viewBox="0 0 512 512" style="enable-background:new 0 0 512 512;" xml:space="preserve">
<g>
	<g>
		<g>
			<path d="M128,85.333c-35.355,0-64,28.645-64,64s28.645,64,64,64s64-28.645,64-64S163.355,85.333,128,85.333z M128,170.667
				c-11.791,0-21.333-9.542-21.333-21.333S116.209,128,128,128s21.333,9.542,21.333,21.333S139.791,170.667,128,170.667z"/>
			<path d="M64,362.667c0,35.355,28.645,64,64,64s64-28.645,64-64c0-35.355-28.645-64-64-64S64,327.311,64,362.667z M128,341.333
				c11.791,0,21.333,9.542,21.333,21.333S139.791,384,128,384s-21.333-9.542-21.333-21.333S116.209,341.333,128,341.333z"/>
			<path d="M512,192v-85.333c0-47.131-38.202-85.333-85.333-85.333H85.333C38.202,21.333,0,59.535,0,106.667V192
				c0,25.496,11.193,48.364,28.918,64C11.193,271.636,0,294.504,0,320v85.333c0,47.131,38.202,85.333,85.333,85.333h341.333
				c47.131,0,85.333-38.202,85.333-85.333V320c0-25.496-11.193-48.364-28.918-64C500.807,240.364,512,217.496,512,192z M469.333,320
				v85.333c0,23.567-19.099,42.667-42.667,42.667H85.333c-23.567,0-42.667-19.099-42.667-42.667V320
				c0-23.567,19.099-42.667,42.667-42.667h341.333C450.234,277.333,469.333,296.433,469.333,320z M85.333,234.667
				c-23.567,0-42.667-19.099-42.667-42.667v-85.333C42.667,83.099,61.766,64,85.333,64h341.333
				c23.567,0,42.667,19.099,42.667,42.667V192c0,23.567-19.099,42.667-42.667,42.667H85.333z"/>
			<path d="M405.333,106.667c0-11.782-9.551-21.333-21.333-21.333H256c-11.782,0-21.333,9.551-21.333,21.333
				c0,11.782,9.551,21.333,21.333,21.333h128C395.782,128,405.333,118.449,405.333,106.667z"/>
			<path d="M426.667,170.667h-128c-11.782,0-21.333,9.551-21.333,21.333s9.551,21.333,21.333,21.333h128
				c11.782,0,21.333-9.551,21.333-21.333S438.449,170.667,426.667,170.667z"/>
			<path d="M256,341.333h128c11.782,0,21.333-9.551,21.333-21.333s-9.551-21.333-21.333-21.333H256
				c-11.782,0-21.333,9.551-21.333,21.333S244.218,341.333,256,341.333z"/>
			<path d="M277.333,405.333c0,11.782,9.551,21.333,21.333,21.333h128c11.782,0,21.333-9.551,21.333-21.333
				c0-11.782-9.551-21.333-21.333-21.333h-128C286.885,384,277.333,393.551,277.333,405.333z"/>
		</g>
	</g>
</g>
<g>
</g>
<g>
</g>
<g>
</g>
<g>
</g>
<g>
</g>
<g>
</g>
<g>
</g>
<g>
</g>
<g>
</g>
<g>
</g>
<g>
</g>
<g>
</g>
<g>
</g>
<g>
</g>
<g>
</g>
</svg>
