<?xml version="1.0" encoding="iso-8859-1"?>
<!-- Generator: Adobe Illustrator 19.0.0, SVG Export Plug-In . SVG Version: 6.00 Build 0)  -->
<svg version="1.1" id="Layer_1" xmlns="http://www.w3.org/2000/svg" xmlns:xlink="http://www.w3.org/1999/xlink" x="0px" y="0px"
	 viewBox="0 0 512.011 512.011" style="enable-background:new 0 0 512.011 512.011;" xml:space="preserve">
<g>
	<g>
		<g>
			<path d="M490.672,298.667c0-0.001,0-0.002,0-0.004c-0.004-62.091-26.536-117.974-68.871-156.955l41.228-41.228
				c8.331-8.331,8.331-21.839,0-30.17s-21.839-8.331-30.17,0l-45.537,45.537c-14.318-8.631-29.73-15.628-45.983-20.732V21.333
				C341.339,9.551,331.787,0,320.005,0h-85.333c-11.782,0-21.333,9.551-21.333,21.333v73.954
				c-10.548,3.35-20.854,7.505-30.836,12.471c-10.549,5.248-14.846,18.054-9.598,28.603s18.054,14.846,28.603,9.598
				c11.702-5.822,23.922-10.278,36.5-13.296c0.47-0.075,0.94-0.162,1.412-0.27c5.544-1.265,11.071-2.246,16.586-2.968v19.908
				c0,11.782,9.551,21.333,21.333,21.333c11.782,0,21.333-9.551,21.333-21.333v-19.908c5.515,0.722,11.042,1.703,16.586,2.968
				c0.76,0.173,1.516,0.299,2.27,0.388c23.827,5.751,45.702,16.494,64.456,31.07l-14.136,14.136c-8.331,8.331-8.331,21.839,0,30.17
				s21.839,8.331,30.17,0l14.138-14.138c18.349,23.604,30.637,52.151,34.524,83.313h-20.007c-11.782,0-21.333,9.551-21.333,21.333
				c0,11.782,9.551,21.333,21.333,21.333h20.009c-3.884,31.162-16.172,59.711-34.521,83.319l-14.143-14.143
				c-8.331-8.331-21.839-8.331-30.17,0c-8.331,8.331-8.331,21.839,0,30.17l14.145,14.145c-23.606,18.352-52.156,30.643-83.32,34.529
				V448c0-11.782-9.551-21.333-21.333-21.333c-11.782,0-21.333,9.551-21.333,21.333v19.973
				c-18.934-2.419-37.269-8.027-54.497-16.598c-10.549-5.248-23.354-0.951-28.603,9.598s-0.951,23.354,9.598,28.603
				c29.456,14.655,61.657,22.436,94.836,22.436c117.823,0,213.333-95.518,213.333-213.333c0-0.003,0-0.006,0-0.008
				C490.672,298.668,490.672,298.667,490.672,298.667z M256.005,42.667h42.667v43.736c-4.485-0.445-9.013-0.74-13.575-0.903
				c-2.585-0.099-5.171-0.166-7.759-0.166c-2.026,0-4.051,0.039-6.075,0.099c-0.3,0.009-0.6,0.026-0.9,0.036
				c-1.487,0.051-2.974,0.112-4.46,0.196c-1.223,0.066-2.443,0.153-3.664,0.24c-0.43,0.032-0.861,0.06-1.291,0.095
				c-1.651,0.128-3.299,0.277-4.943,0.444V42.667z"/>
			<path d="M292.424,313.752l64-64c8.331-8.331,8.331-21.839,0-30.17s-21.839-8.331-30.17,0l-64,64
				c-8.331,8.331-8.331,21.839,0,30.17C270.585,322.083,284.092,322.083,292.424,313.752z"/>
			<path d="M149.339,277.333H42.672c-11.782,0-21.333,9.551-21.333,21.333c0,11.782,9.551,21.333,21.333,21.333h106.667
				c11.782,0,21.333-9.551,21.333-21.333C170.672,286.885,161.121,277.333,149.339,277.333z"/>
			<path d="M149.339,170.667h-64c-11.782,0-21.333,9.551-21.333,21.333s9.551,21.333,21.333,21.333h64
				c11.782,0,21.333-9.551,21.333-21.333S161.121,170.667,149.339,170.667z"/>
			<path d="M149.339,384h-64c-11.782,0-21.333,9.551-21.333,21.333c0,11.782,9.551,21.333,21.333,21.333h64
				c11.782,0,21.333-9.551,21.333-21.333C170.672,393.551,161.121,384,149.339,384z"/>
		</g>
	</g>
</g>
<g>
</g>
<g>
</g>
<g>
</g>
<g>
</g>
<g>
</g>
<g>
</g>
<g>
</g>
<g>
</g>
<g>
</g>
<g>
</g>
<g>
</g>
<g>
</g>
<g>
</g>
<g>
</g>
<g>
</g>
</svg>
