<?xml version="1.0" encoding="iso-8859-1"?>
<!-- Generator: Adobe Illustrator 19.0.0, SVG Export Plug-In . SVG Version: 6.00 Build 0)  -->
<svg version="1.1" id="Layer_1" xmlns="http://www.w3.org/2000/svg" xmlns:xlink="http://www.w3.org/1999/xlink" x="0px" y="0px"
	 viewBox="0 0 512.033 512.033" style="enable-background:new 0 0 512.033 512.033;" xml:space="preserve">
<g transform="translate(-1)">
	<g>
		<g>
			<path d="M491.683,213.34H470.35v-64c0-11.782-9.551-21.333-21.333-21.333H406.35V21.34c0-11.782-9.551-21.333-21.333-21.333
				H107.683c-11.782,0-21.333,9.551-21.333,21.333v42.667h-64c-11.782,0-21.333,9.551-21.333,21.333v404.74
				c-0.028,0.943,0.001,1.878,0.097,2.8c0,0.004,0.001,0.008,0.001,0.012c0.045,0.426,0.102,0.849,0.172,1.269
				c1.206,8.272,6.649,13.9,13.286,16.394c0.103,0.04,0.208,0.078,0.312,0.117c0.26,0.093,0.517,0.189,0.78,0.273
				c1.035,0.339,2.109,0.598,3.215,0.777c0.043,0.007,0.086,0.013,0.13,0.02c0.451,0.07,0.908,0.126,1.37,0.168
				c0.179,0.017,0.357,0.036,0.536,0.049c0.129,0.008,0.26,0.011,0.389,0.017c0.586,0.033,1.172,0.044,1.758,0.032H406.35
				c9.182,0,17.335-5.876,20.239-14.587l85.333-256C516.526,227.605,506.244,213.34,491.683,213.34z M427.683,170.673v42.667H406.35
				v-42.667H427.683z M129.016,42.673h234.667V149.34v64H129.016v-128V42.673z M43.683,106.673H86.35v124.538l-42.667,128V106.673z
				 M390.974,469.34H51.948l34.533-103.6l36.578-109.733h261.957h64h13.068L390.974,469.34z"/>
			<path d="M193.016,128.006h106.667c11.782,0,21.333-9.551,21.333-21.333c0-11.782-9.551-21.333-21.333-21.333H193.016
				c-11.782,0-21.333,9.551-21.333,21.333C171.683,118.455,181.234,128.006,193.016,128.006z"/>
			<path d="M193.016,192.006h106.667c11.782,0,21.333-9.551,21.333-21.333c0-11.782-9.551-21.333-21.333-21.333H193.016
				c-11.782,0-21.333,9.551-21.333,21.333C171.683,182.455,181.234,192.006,193.016,192.006z"/>
		</g>
	</g>
</g>
<g>
</g>
<g>
</g>
<g>
</g>
<g>
</g>
<g>
</g>
<g>
</g>
<g>
</g>
<g>
</g>
<g>
</g>
<g>
</g>
<g>
</g>
<g>
</g>
<g>
</g>
<g>
</g>
<g>
</g>
</svg>
