<?xml version="1.0" encoding="iso-8859-1"?>
<!-- Generator: Adobe Illustrator 19.0.0, SVG Export Plug-In . SVG Version: 6.00 Build 0)  -->
<svg version="1.1" id="Layer_1" xmlns="http://www.w3.org/2000/svg" xmlns:xlink="http://www.w3.org/1999/xlink" x="0px" y="0px"
	 viewBox="0 0 512 512" style="enable-background:new 0 0 512 512;" xml:space="preserve">
<g>
	<g>
		<g>
			<path d="M181.333,405.333c-11.776,0-21.333,9.557-21.333,21.333S169.557,448,181.333,448s21.333-9.557,21.333-21.333
				S193.109,405.333,181.333,405.333z"/>
			<path d="M458.667,128h-128V42.667C330.667,19.109,311.558,0,288,0H74.667C51.109,0,32,19.109,32,42.667v426.667
				C32,492.891,51.109,512,74.667,512H288c23.558,0,42.667-19.109,42.667-42.667v-192h128c11.782,0,21.333-9.551,21.333-21.333
				V149.333C480,137.551,470.449,128,458.667,128z M288,42.667V64H74.667V42.667H288z M74.667,469.333V384H288v85.333H74.667z
				 M288,341.333H74.667V106.667H288V128H160c-11.782,0-21.333,9.551-21.333,21.333V256c0,11.782,9.551,21.333,21.333,21.333h21.333
				v21.333c0,17.039,18.99,27.202,33.167,17.75l58.626-39.084H288V341.333z M437.333,234.667h-128h-42.667
				c-4.212,0-8.329,1.247-11.834,3.583L224,258.805V256c0-11.782-9.551-21.333-21.333-21.333h-21.333v-64h128h128V234.667z"/>
		</g>
	</g>
</g>
<g>
</g>
<g>
</g>
<g>
</g>
<g>
</g>
<g>
</g>
<g>
</g>
<g>
</g>
<g>
</g>
<g>
</g>
<g>
</g>
<g>
</g>
<g>
</g>
<g>
</g>
<g>
</g>
<g>
</g>
</svg>
