<?xml version="1.0" encoding="iso-8859-1"?>
<!-- Generator: Adobe Illustrator 19.0.0, SVG Export Plug-In . SVG Version: 6.00 Build 0)  -->
<svg version="1.1" id="Layer_1" xmlns="http://www.w3.org/2000/svg" xmlns:xlink="http://www.w3.org/1999/xlink" x="0px" y="0px"
	 viewBox="0 0 512 512" style="enable-background:new 0 0 512 512;" xml:space="preserve">
<g>
	<g>
		<g>
			<path d="M490.667,53.333h-24.987c-8.784-24.858-32.474-42.667-60.346-42.667c-27.872,0-51.562,17.808-60.346,42.667h-28.641
				C307.562,28.475,283.872,10.667,256,10.667s-51.562,17.808-60.346,42.667h-28.641c-8.784-24.858-32.474-42.667-60.346-42.667
				S55.105,28.475,46.321,53.333H21.333C9.551,53.333,0,62.885,0,74.667v106.667V480c0,11.782,9.551,21.333,21.333,21.333h469.333
				c11.782,0,21.333-9.551,21.333-21.333V181.333V74.667C512,62.885,502.449,53.333,490.667,53.333z M42.667,96H64
				c11.782,0,21.333-9.551,21.333-21.333c0-11.791,9.542-21.333,21.333-21.333S128,62.875,128,74.667S118.458,96,106.667,96
				c-11.782,0-21.333,9.551-21.333,21.333c0,11.782,9.551,21.333,21.333,21.333c27.872,0,51.562-17.808,60.346-42.667h46.32
				c11.782,0,21.333-9.551,21.333-21.333c0-11.791,9.542-21.333,21.333-21.333s21.333,9.542,21.333,21.333S267.791,96,256,96
				c-11.782,0-21.333,9.551-21.333,21.333c0,11.782,9.551,21.333,21.333,21.333c27.872,0,51.562-17.808,60.346-42.667h46.321
				C374.449,96,384,86.449,384,74.667c0-11.791,9.542-21.333,21.333-21.333s21.333,9.542,21.333,21.333S417.125,96,405.333,96
				C393.551,96,384,105.551,384,117.333c0,11.782,9.551,21.333,21.333,21.333c27.872,0,51.562-17.808,60.346-42.667h3.654v64H42.667
				V96z M42.667,458.667v-256h426.667v256H42.667z"/>
			<path d="M128,266.667c-11.776,0-21.333,9.557-21.333,21.333s9.557,21.333,21.333,21.333s21.333-9.557,21.333-21.333
				S139.776,266.667,128,266.667z"/>
			<path d="M256,266.667c-11.776,0-21.333,9.557-21.333,21.333s9.557,21.333,21.333,21.333s21.333-9.557,21.333-21.333
				S267.776,266.667,256,266.667z"/>
			<path d="M384,266.667c-11.776,0-21.333,9.557-21.333,21.333s9.557,21.333,21.333,21.333s21.333-9.557,21.333-21.333
				S395.776,266.667,384,266.667z"/>
			<path d="M128,373.333c-11.776,0-21.333,9.557-21.333,21.333S116.224,416,128,416s21.333-9.557,21.333-21.333
				S139.776,373.333,128,373.333z"/>
			<path d="M256,373.333c-11.776,0-21.333,9.557-21.333,21.333S244.224,416,256,416s21.333-9.557,21.333-21.333
				S267.776,373.333,256,373.333z"/>
			<path d="M384,373.333c-11.776,0-21.333,9.557-21.333,21.333S372.224,416,384,416s21.333-9.557,21.333-21.333
				S395.776,373.333,384,373.333z"/>
		</g>
	</g>
</g>
<g>
</g>
<g>
</g>
<g>
</g>
<g>
</g>
<g>
</g>
<g>
</g>
<g>
</g>
<g>
</g>
<g>
</g>
<g>
</g>
<g>
</g>
<g>
</g>
<g>
</g>
<g>
</g>
<g>
</g>
</svg>
