<?xml version="1.0" encoding="iso-8859-1"?>
<!-- Generator: Adobe Illustrator 19.0.0, SVG Export Plug-In . SVG Version: 6.00 Build 0)  -->
<svg version="1.1" id="Layer_1" xmlns="http://www.w3.org/2000/svg" xmlns:xlink="http://www.w3.org/1999/xlink" x="0px" y="0px"
	 viewBox="0 0 512 512" style="enable-background:new 0 0 512 512;" xml:space="preserve">
<g>
	<g>
		<g>
			<path d="M128,64c-35.355,0-64,28.645-64,64s28.645,64,64,64s64-28.645,64-64S163.355,64,128,64z M128,149.333
				c-11.791,0-21.333-9.542-21.333-21.333s9.542-21.333,21.333-21.333s21.333,9.542,21.333,21.333S139.791,149.333,128,149.333z"/>
			<path d="M256,341.333c-47.131,0-85.333,38.202-85.333,85.333S208.869,512,256,512s85.333-38.202,85.333-85.333
				S303.131,341.333,256,341.333z M256,469.333c-23.567,0-42.667-19.099-42.667-42.667S232.433,384,256,384
				s42.667,19.099,42.667,42.667S279.567,469.333,256,469.333z"/>
			<path d="M426.667,0H85.333C38.202,0,0,38.202,0,85.333v85.333C0,217.798,38.202,256,85.333,256h341.333
				C473.798,256,512,217.798,512,170.667V85.333C512,38.202,473.798,0,426.667,0z M469.333,170.667
				c0,23.567-19.099,42.667-42.667,42.667H85.333c-23.567,0-42.667-19.099-42.667-42.667V85.333
				c0-23.567,19.099-42.667,42.667-42.667h341.333c23.567,0,42.667,19.099,42.667,42.667V170.667z"/>
			<path d="M405.333,85.333C405.333,73.551,395.782,64,384,64H256c-11.782,0-21.333,9.551-21.333,21.333
				c0,11.782,9.551,21.333,21.333,21.333h128C395.782,106.667,405.333,97.115,405.333,85.333z"/>
			<path d="M426.667,149.333h-128c-11.782,0-21.333,9.551-21.333,21.333c0,11.782,9.551,21.333,21.333,21.333h128
				c11.782,0,21.333-9.551,21.333-21.333C448,158.885,438.449,149.333,426.667,149.333z"/>
		</g>
	</g>
</g>
<g>
</g>
<g>
</g>
<g>
</g>
<g>
</g>
<g>
</g>
<g>
</g>
<g>
</g>
<g>
</g>
<g>
</g>
<g>
</g>
<g>
</g>
<g>
</g>
<g>
</g>
<g>
</g>
<g>
</g>
</svg>
