<?xml version="1.0" encoding="iso-8859-1"?>
<!-- Generator: Adobe Illustrator 19.0.0, SVG Export Plug-In . SVG Version: 6.00 Build 0)  -->
<svg version="1.1" id="Layer_1" xmlns="http://www.w3.org/2000/svg" xmlns:xlink="http://www.w3.org/1999/xlink" x="0px" y="0px"
	 viewBox="0 0 512.087 512.087" style="enable-background:new 0 0 512.087 512.087;" xml:space="preserve">
<g transform="translate(0 -1)">
	<g>
		<g>
			<path d="M465.498,280.316c-12.853,0-23.273,10.42-23.273,23.273c0,38.603-31.215,69.818-69.818,69.818H186.226v-69.818
				c0-19.514-22.573-30.363-37.811-18.173L32.051,378.507c-11.646,9.317-11.646,27.029,0,36.346l116.364,93.091
				c15.238,12.191,37.811,1.341,37.811-18.173v-69.818h186.182c64.309,0,116.364-52.055,116.364-116.364
				C488.771,290.736,478.351,280.316,465.498,280.316z M139.68,441.349L83.844,396.68l55.836-44.669V441.349z"/>
			<path d="M46.589,233.771c12.853,0,23.273-10.42,23.273-23.273c0-38.603,31.215-69.818,69.818-69.818h186.182v69.818
				c0,19.514,22.573,30.363,37.811,18.173l116.364-93.091c11.646-9.317,11.646-27.029,0-36.346L363.673,6.143
				c-15.238-12.19-37.811-1.341-37.811,18.173v69.818H139.68c-64.309,0-116.364,52.054-116.364,116.364
				C23.316,223.351,33.736,233.771,46.589,233.771z M372.407,72.738l55.836,44.669l-55.836,44.669V72.738z"/>
		</g>
	</g>
</g>
<g>
</g>
<g>
</g>
<g>
</g>
<g>
</g>
<g>
</g>
<g>
</g>
<g>
</g>
<g>
</g>
<g>
</g>
<g>
</g>
<g>
</g>
<g>
</g>
<g>
</g>
<g>
</g>
<g>
</g>
</svg>
