<?xml version="1.0" encoding="iso-8859-1"?>
<!-- Generator: Adobe Illustrator 19.0.0, SVG Export Plug-In . SVG Version: 6.00 Build 0)  -->
<svg version="1.1" id="Layer_1" xmlns="http://www.w3.org/2000/svg" xmlns:xlink="http://www.w3.org/1999/xlink" x="0px" y="0px"
	 viewBox="0 0 512 512" style="enable-background:new 0 0 512 512;" xml:space="preserve">
<g>
	<g>
		<g>
			<path d="M490.667,0H21.333C9.551,0,0,9.551,0,21.333v469.333C0,502.449,9.551,512,21.333,512h469.333
				c11.782,0,21.333-9.551,21.333-21.333V21.333C512,9.551,502.449,0,490.667,0z M469.333,469.333H42.667V42.667h426.667V469.333z"
				/>
			<path d="M128,448c35.355,0,64-28.645,64-64c0-27.872-17.808-51.562-42.667-60.346V85.333C149.333,73.551,139.782,64,128,64
				c-11.782,0-21.333,9.551-21.333,21.333v238.321C81.808,332.438,64,356.128,64,384C64,419.355,92.645,448,128,448z M128,362.667
				c11.791,0,21.333,9.542,21.333,21.333s-9.542,21.333-21.333,21.333s-21.333-9.542-21.333-21.333S116.209,362.667,128,362.667z"/>
			<path d="M362.667,188.346v238.321c0,11.782,9.551,21.333,21.333,21.333c11.782,0,21.333-9.551,21.333-21.333V188.346
				C430.192,179.562,448,155.872,448,128c0-35.355-28.645-64-64-64c-35.355,0-64,28.645-64,64
				C320,155.872,337.808,179.562,362.667,188.346z M384,106.667c11.791,0,21.333,9.542,21.333,21.333s-9.542,21.333-21.333,21.333
				s-21.333-9.542-21.333-21.333S372.209,106.667,384,106.667z"/>
			<path d="M234.667,316.346v110.321c0,11.782,9.551,21.333,21.333,21.333s21.333-9.551,21.333-21.333V316.346
				C302.192,307.562,320,283.872,320,256s-17.808-51.562-42.667-60.346V85.333C277.333,73.551,267.782,64,256,64
				s-21.333,9.551-21.333,21.333v110.321C209.808,204.438,192,228.128,192,256S209.808,307.562,234.667,316.346z M256,234.667
				c11.791,0,21.333,9.542,21.333,21.333s-9.542,21.333-21.333,21.333s-21.333-9.542-21.333-21.333S244.209,234.667,256,234.667z"/>
		</g>
	</g>
</g>
<g>
</g>
<g>
</g>
<g>
</g>
<g>
</g>
<g>
</g>
<g>
</g>
<g>
</g>
<g>
</g>
<g>
</g>
<g>
</g>
<g>
</g>
<g>
</g>
<g>
</g>
<g>
</g>
<g>
</g>
</svg>
