<?xml version="1.0" encoding="iso-8859-1"?>
<!-- Generator: Adobe Illustrator 19.0.0, SVG Export Plug-In . SVG Version: 6.00 Build 0)  -->
<svg version="1.1" id="Layer_1" xmlns="http://www.w3.org/2000/svg" xmlns:xlink="http://www.w3.org/1999/xlink" x="0px" y="0px"
	 viewBox="0 0 512 512" style="enable-background:new 0 0 512 512;" xml:space="preserve">
<g>
	<g>
		<g>
			<path d="M268.574,511.69c1.342-0.065,2.678-0.154,4.015-0.239c0.697-0.045,1.396-0.082,2.091-0.133
				c1.627-0.117,3.247-0.259,4.865-0.406c0.37-0.034,0.741-0.063,1.111-0.099c1.895-0.181,3.783-0.387,5.665-0.609
				c0.056-0.007,0.111-0.012,0.167-0.019C413.497,495.109,512,387.063,512,256C512,114.618,397.382,0,256,0S0,114.618,0,256
				c0,131.063,98.503,239.109,225.511,254.185c0.056,0.007,0.111,0.013,0.167,0.019c1.883,0.222,3.77,0.428,5.665,0.609
				c0.37,0.036,0.741,0.065,1.111,0.099c1.618,0.148,3.239,0.289,4.865,0.406c0.696,0.051,1.394,0.087,2.091,0.133
				c1.337,0.086,2.673,0.174,4.015,0.239c1.098,0.054,2.201,0.086,3.301,0.125c0.976,0.035,1.95,0.081,2.929,0.105
				c2.111,0.052,4.225,0.08,6.344,0.08s4.234-0.028,6.344-0.08c0.979-0.024,1.952-0.07,2.929-0.105
				C266.374,511.776,267.476,511.743,268.574,511.69z M273.523,468.613c-0.921,0.076-1.844,0.14-2.767,0.204
				c-0.814,0.056-1.629,0.109-2.446,0.155c-0.776,0.045-1.553,0.086-2.331,0.122c-1.037,0.048-2.077,0.086-3.118,0.118
				c-0.608,0.019-1.215,0.043-1.823,0.057c-1.675,0.039-3.353,0.064-5.037,0.064s-3.362-0.025-5.037-0.064
				c-0.609-0.014-1.216-0.038-1.823-0.057c-1.041-0.033-2.081-0.071-3.118-0.118c-0.778-0.036-1.555-0.078-2.331-0.122
				c-0.817-0.046-1.632-0.099-2.446-0.155c-0.923-0.064-1.846-0.128-2.767-0.204c-0.52-0.042-1.037-0.092-1.555-0.138
				c-41.142-3.68-79.759-19.195-111.96-44.412c32.024-38.424,79.557-61.396,131.038-61.396s99.015,22.972,131.038,61.396
				c-32.201,25.218-70.819,40.732-111.96,44.412C274.56,468.521,274.042,468.571,273.523,468.613z M43.726,277.333h41.608
				c11.782,0,21.333-9.551,21.333-21.333s-9.551-21.333-21.333-21.333H43.726c4.26-42.904,21.234-82.066,47.099-113.672l29.41,29.41
				c8.331,8.331,21.839,8.331,30.17,0s8.331-21.839,0-30.17l-29.41-29.41c31.607-25.865,70.768-42.838,113.672-47.099v41.608
				c0,11.782,9.551,21.333,21.333,21.333s21.333-9.551,21.333-21.333V43.726c42.904,4.26,82.066,21.234,113.672,47.099l-29.41,29.41
				c-8.331,8.331-8.331,21.839,0,30.17s21.839,8.331,30.17,0l29.41-29.41c25.865,31.607,42.838,70.768,47.099,113.672h-41.608
				c-11.782,0-21.333,9.551-21.333,21.333s9.551,21.333,21.333,21.333h41.608c-4.428,44.592-22.591,85.14-50.194,117.366
				C378.101,347.932,319.426,320,256,320s-122.101,27.932-162.08,74.7C66.317,362.474,48.154,321.926,43.726,277.333z"/>
			<path d="M248.077,275.807c10.939,4.376,23.355-0.945,27.73-11.885l42.667-106.667c4.376-10.939-0.945-23.355-11.885-27.731
				c-10.939-4.376-23.355,0.945-27.73,11.885l-42.667,106.667C231.817,259.016,237.138,271.432,248.077,275.807z"/>
		</g>
	</g>
</g>
<g>
</g>
<g>
</g>
<g>
</g>
<g>
</g>
<g>
</g>
<g>
</g>
<g>
</g>
<g>
</g>
<g>
</g>
<g>
</g>
<g>
</g>
<g>
</g>
<g>
</g>
<g>
</g>
<g>
</g>
</svg>
