<?xml version="1.0" encoding="iso-8859-1"?>
<!-- Generator: Adobe Illustrator 19.0.0, SVG Export Plug-In . SVG Version: 6.00 Build 0)  -->
<svg version="1.1" id="Layer_1" xmlns="http://www.w3.org/2000/svg" xmlns:xlink="http://www.w3.org/1999/xlink" x="0px" y="0px"
	 viewBox="0 0 512.006 512.006" style="enable-background:new 0 0 512.006 512.006;" xml:space="preserve">
<g>
	<g>
		<g>
			<path d="M332.533,280.626c-4.273-10.98-16.637-16.418-27.617-12.145l-3.174,1.235c-12.546-22.914-30.925-42.176-53.141-55.793
				l2.624-5.902c4.786-10.766-0.061-23.374-10.828-28.16c-10.766-4.786-23.374,0.061-28.16,10.828l-2.841,6.391
				c-12.351-3.307-25.329-5.08-38.723-5.08c-13.261,0-26.114,1.737-38.354,4.98l-2.085-5.362
				c-4.27-10.981-16.633-16.422-27.614-12.152c-10.981,4.27-16.422,16.633-12.152,27.614l2.586,6.651
				c-21.137,12.884-38.814,30.875-51.332,52.255l-11.72-5.207c-10.767-4.784-23.374,0.067-28.157,10.834s0.067,23.374,10.834,28.158
				l12.989,5.771c-2.821,11.468-4.327,23.453-4.327,35.791c0,12.325,1.503,24.297,4.318,35.753l-12.055,4.693
				c-10.979,4.274-16.415,16.64-12.141,27.619c4.274,10.979,16.64,16.415,27.619,12.141l12.611-4.909
				c11.519,19.691,27.416,36.505,46.359,49.11l-6.04,18.21c-3.709,11.183,2.349,23.255,13.532,26.965
				c11.183,3.709,23.256-2.349,26.965-13.532l4.392-13.24c13.844,4.238,28.541,6.524,43.774,6.524c9.917,0,19.605-0.976,28.981-2.82
				l4.11,10.557c4.274,10.979,16.64,16.415,27.619,12.141c10.979-4.274,16.415-16.64,12.141-27.619l-3.604-9.259
				c21.937-11.502,40.665-28.29,54.479-48.684l9.591,4.261c10.767,4.784,23.374-0.067,28.157-10.835s-0.067-23.374-10.835-28.157
				l-8.287-3.682c4.53-14.27,6.982-29.466,6.982-45.236c0-10.854-1.169-21.434-3.367-31.63l3.75-1.459
				C331.368,303.971,336.806,291.606,332.533,280.626z M192.162,236.832l-37.65,88.034L65.798,360.88
				c-1.173-6.337-1.793-12.869-1.793-19.547c0-58.917,47.75-106.667,106.667-106.667
				C178.034,234.667,185.221,235.412,192.162,236.832z M123.592,437.069c-0.132-0.068-0.266-0.133-0.399-0.198
				c-16.767-8.348-31.025-20.976-41.343-36.459l76.089-30.889l27.136,77.506c-4.711,0.636-9.518,0.971-14.403,0.971
				C153.771,448,137.792,444.064,123.592,437.069z M225.347,432.936l-31.802-90.833l37.84-88.478
				c27.768,19.256,45.954,51.353,45.954,87.708C277.339,380.262,256.488,414.311,225.347,432.936z"/>
			<path d="M490.672,128h-23.469c-2.765-13.617-8.128-26.289-15.543-37.485l16.602-16.602c8.331-8.331,8.331-21.839,0-30.17
				c-8.331-8.331-21.839-8.331-30.17,0L421.49,60.345c-11.195-7.415-23.867-12.778-37.485-15.543V21.333
				C384.006,9.551,374.454,0,362.672,0s-21.333,9.551-21.333,21.333v23.469c-13.617,2.765-26.289,8.128-37.485,15.543L287.248,43.74
				c-8.331-8.331-21.839-8.331-30.17,0c-8.331,8.331-8.331,21.839,0,30.17l16.606,16.606c-7.415,11.195-12.778,23.867-15.543,37.485
				h-23.469c-11.782,0-21.333,9.551-21.333,21.333c0,11.782,9.551,21.333,21.333,21.333h23.469
				c8.485,41.792,41.405,74.713,83.197,83.197v23.469c0,11.782,9.551,21.333,21.333,21.333s21.333-9.551,21.333-21.333v-23.469
				c13.617-2.765,26.289-8.128,37.485-15.543l16.602,16.602c8.331,8.331,21.839,8.331,30.17,0s8.331-21.839,0-30.17l-16.602-16.602
				c7.415-11.195,12.778-23.867,15.543-37.485h23.469c11.782,0,21.333-9.551,21.333-21.333C512.006,137.551,502.454,128,490.672,128
				z M298.672,149.333c0-35.343,28.657-64,64-64s64,28.657,64,64s-28.657,64-64,64S298.672,184.677,298.672,149.333z"/>
			<path d="M384.006,149.333c0-11.776-9.557-21.333-21.333-21.333s-21.333,9.557-21.333,21.333s9.557,21.333,21.333,21.333
				S384.006,161.109,384.006,149.333z"/>
		</g>
	</g>
</g>
<g>
</g>
<g>
</g>
<g>
</g>
<g>
</g>
<g>
</g>
<g>
</g>
<g>
</g>
<g>
</g>
<g>
</g>
<g>
</g>
<g>
</g>
<g>
</g>
<g>
</g>
<g>
</g>
<g>
</g>
</svg>
