<?xml version="1.0" encoding="iso-8859-1"?>
<!-- Generator: Adobe Illustrator 19.0.0, SVG Export Plug-In . SVG Version: 6.00 Build 0)  -->
<svg version="1.1" id="Layer_1" xmlns="http://www.w3.org/2000/svg" xmlns:xlink="http://www.w3.org/1999/xlink" x="0px" y="0px"
	 viewBox="0 0 512 512" style="enable-background:new 0 0 512 512;" xml:space="preserve">
<g>
	<g>
		<g>
			<path d="M313.024,93.052C317.474,84.332,320,74.465,320,64c0-35.355-28.645-64-64-64s-64,28.645-64,64
				c0,10.465,2.526,20.332,6.976,29.052C108.84,117.992,42.667,200.589,42.667,298.667C42.667,416.497,138.17,512,256,512
				s213.333-95.503,213.333-213.333C469.333,200.589,403.16,117.992,313.024,93.052z M234.667,64
				c0-11.791,9.542-21.333,21.333-21.333c11.791,0,21.333,9.542,21.333,21.333S267.791,85.333,256,85.333
				C244.209,85.333,234.667,75.791,234.667,64z M256,469.333c-94.266,0-170.667-76.401-170.667-170.667S161.734,128,256,128
				s170.667,76.401,170.667,170.667S350.266,469.333,256,469.333z"/>
			<path d="M339.766,187.925L204,233.173c-0.083,0.028-0.16,0.061-0.242,0.09c-0.299,0.103-0.596,0.213-0.891,0.33
				c-0.143,0.057-0.286,0.113-0.427,0.172c-0.281,0.118-0.558,0.243-0.833,0.373c-0.154,0.072-0.309,0.143-0.46,0.219
				c-0.24,0.12-0.476,0.248-0.712,0.377c-0.175,0.096-0.352,0.19-0.524,0.29c-0.195,0.114-0.386,0.237-0.578,0.357
				c-0.198,0.124-0.397,0.246-0.589,0.375c-0.159,0.107-0.313,0.223-0.469,0.334c-0.211,0.151-0.425,0.3-0.629,0.458
				c-0.142,0.11-0.279,0.228-0.419,0.342c-0.206,0.168-0.415,0.334-0.613,0.509c-0.151,0.133-0.295,0.275-0.443,0.412
				c-0.177,0.165-0.357,0.327-0.527,0.498c-0.17,0.17-0.333,0.351-0.498,0.527c-0.137,0.148-0.279,0.292-0.412,0.443
				c-0.175,0.199-0.341,0.407-0.509,0.613c-0.114,0.14-0.232,0.276-0.342,0.419c-0.158,0.204-0.307,0.418-0.458,0.629
				c-0.112,0.156-0.227,0.31-0.334,0.469c-0.13,0.192-0.251,0.392-0.375,0.589c-0.121,0.192-0.243,0.383-0.357,0.578
				c-0.1,0.172-0.194,0.348-0.29,0.524c-0.129,0.236-0.257,0.472-0.377,0.712c-0.075,0.151-0.146,0.306-0.219,0.46
				c-0.13,0.276-0.255,0.553-0.373,0.833c-0.059,0.141-0.116,0.284-0.172,0.427c-0.116,0.295-0.227,0.591-0.33,0.891
				c-0.028,0.082-0.062,0.16-0.09,0.242l-45.248,135.765c-5.558,16.677,10.307,32.542,26.984,26.984l135.765-45.248
				c0.083-0.028,0.161-0.061,0.243-0.09c0.299-0.103,0.596-0.213,0.89-0.33c0.143-0.057,0.286-0.113,0.428-0.172
				c0.281-0.118,0.557-0.243,0.833-0.373c0.154-0.072,0.309-0.143,0.46-0.219c0.24-0.12,0.476-0.248,0.712-0.377
				c0.175-0.096,0.352-0.19,0.524-0.29c0.196-0.114,0.386-0.237,0.578-0.357c0.198-0.124,0.397-0.246,0.589-0.375
				c0.159-0.107,0.313-0.223,0.469-0.334c0.211-0.151,0.425-0.3,0.629-0.458c0.142-0.11,0.279-0.228,0.419-0.342
				c0.206-0.168,0.415-0.334,0.613-0.509c0.151-0.133,0.295-0.275,0.443-0.413c0.177-0.165,0.357-0.327,0.527-0.497
				c0.171-0.171,0.334-0.352,0.5-0.529c0.137-0.147,0.278-0.29,0.41-0.44c0.176-0.2,0.343-0.41,0.513-0.618
				c0.113-0.138,0.23-0.273,0.338-0.414c0.159-0.205,0.309-0.42,0.461-0.633c0.111-0.155,0.226-0.308,0.332-0.466
				c0.13-0.193,0.252-0.393,0.377-0.592c0.12-0.191,0.242-0.381,0.356-0.576c0.1-0.172,0.195-0.35,0.291-0.526
				c0.129-0.235,0.257-0.471,0.376-0.71c0.076-0.152,0.147-0.307,0.219-0.461c0.129-0.275,0.255-0.552,0.372-0.832
				c0.059-0.141,0.116-0.285,0.173-0.429c0.116-0.294,0.226-0.591,0.329-0.89c0.028-0.082,0.062-0.16,0.09-0.243l45.248-135.765
				C372.308,198.233,356.443,182.367,339.766,187.925z M312.783,241.892l-20.844,62.543l-41.699-41.699L312.783,241.892z
				 M199.225,355.45l20.844-62.543l41.699,41.699L199.225,355.45z"/>
		</g>
	</g>
</g>
<g>
</g>
<g>
</g>
<g>
</g>
<g>
</g>
<g>
</g>
<g>
</g>
<g>
</g>
<g>
</g>
<g>
</g>
<g>
</g>
<g>
</g>
<g>
</g>
<g>
</g>
<g>
</g>
<g>
</g>
</svg>
