<?xml version="1.0" encoding="iso-8859-1"?>
<!-- Generator: Adobe Illustrator 19.0.0, SVG Export Plug-In . SVG Version: 6.00 Build 0)  -->
<svg version="1.1" id="Layer_1" xmlns="http://www.w3.org/2000/svg" xmlns:xlink="http://www.w3.org/1999/xlink" x="0px" y="0px"
	 viewBox="0 0 512 512" style="enable-background:new 0 0 512 512;" xml:space="preserve">
<g>
	<g>
		<g>
			<path d="M256,394.667c58.829,0,106.667-47.83,106.667-106.667S314.829,181.333,256,181.333S149.333,229.163,149.333,288
				S197.171,394.667,256,394.667z M256,224c35.266,0,64,28.729,64,64s-28.734,64-64,64s-64-28.729-64-64S220.734,224,256,224z"/>
			<path d="M469.333,117.333H42.667C19.109,117.333,0,136.442,0,160v256c0,23.558,19.109,42.667,42.667,42.667h426.667
				C492.891,458.667,512,439.558,512,416V160C512,136.442,492.891,117.333,469.333,117.333z M469.333,416H42.667V160h426.667V416z"
				/>
			<path d="M128,96h256c11.782,0,21.333-9.551,21.333-21.333c0-11.782-9.551-21.333-21.333-21.333H128
				c-11.782,0-21.333,9.551-21.333,21.333C106.667,86.449,116.218,96,128,96z"/>
		</g>
	</g>
</g>
<g>
</g>
<g>
</g>
<g>
</g>
<g>
</g>
<g>
</g>
<g>
</g>
<g>
</g>
<g>
</g>
<g>
</g>
<g>
</g>
<g>
</g>
<g>
</g>
<g>
</g>
<g>
</g>
<g>
</g>
</svg>
