<?xml version="1.0" encoding="iso-8859-1"?>
<!-- Generator: Adobe Illustrator 19.0.0, SVG Export Plug-In . SVG Version: 6.00 Build 0)  -->
<svg version="1.1" id="Layer_1" xmlns="http://www.w3.org/2000/svg" xmlns:xlink="http://www.w3.org/1999/xlink" x="0px" y="0px"
	 viewBox="0 0 511.987 511.987" style="enable-background:new 0 0 511.987 511.987;" xml:space="preserve">
<g>
	<g>
		<g>
			<path d="M275.248,234.672c-3.289-11.314-15.126-17.819-26.44-14.531c-11.314,3.289-17.819,15.126-14.531,26.44
				c0.301,1.036,0.977,3.783,1.909,8.353c1.638,8.032,3.297,18.109,4.859,30.343c6.36,49.799,9.09,117.34,6.051,204.633
				c-0.41,11.775,8.803,21.653,20.578,22.063s21.653-8.803,22.063-20.578c3.117-89.519,0.294-159.353-6.368-211.523
				C280.439,256.94,277.426,242.166,275.248,234.672z"/>
			<path d="M502.985,280.719c-5.49-56.159-13.915-103.886-26.612-133.861C438.647,57.669,351.632,0,254.766,0
				c-31.935,0-63.143,6.253-92.65,18.562c-16.201,6.764-31.421,14.744-45.509,23.907c-9.877,6.424-12.676,19.638-6.252,29.515
				c6.424,9.877,19.638,12.676,29.515,6.252c11.888-7.732,24.822-14.513,38.678-20.298c24.299-10.136,49.924-15.27,76.218-15.27
				c79.725,0,151.263,47.412,182.315,120.823c10.461,24.698,18.365,69.467,23.44,121.381c1.146,11.726,11.582,20.303,23.308,19.156
				C495.555,302.88,504.132,292.445,502.985,280.719z"/>
			<path d="M89.926,90.027c-9.181-7.384-22.61-5.927-29.994,3.255C7.239,158.803-5.799,248.957,26.202,356.37
				c3.364,11.292,15.245,17.718,26.536,14.354c11.292-3.364,17.718-15.245,14.354-26.536
				C38.891,249.53,49.824,173.933,93.181,120.021C100.564,110.84,99.107,97.411,89.926,90.027z"/>
			<path d="M254.773,101.216c-10.086,0-20.061,1.078-29.877,3.222c-11.51,2.515-18.803,13.885-16.287,25.396
				c2.515,11.51,13.885,18.803,25.396,16.288c6.825-1.491,13.746-2.239,20.769-2.239c38.974,0,73.911,23.153,89.113,59.05
				c23.598,55.813,35.275,139.631,31.199,256.258c-0.412,11.775,8.8,21.654,20.575,22.066s21.654-8.8,22.066-20.575
				c4.277-122.352-8.232-212.14-34.546-274.376C361.292,134.622,310.885,101.216,254.773,101.216z"/>
			<path d="M174.301,151.686c-9.523-6.938-22.867-4.843-29.805,4.68c-26.138,35.875-33.787,84.189-21.485,129.702
				c0.498,1.782,1.366,5.234,2.519,10.438c1.97,8.891,3.951,19.328,5.808,31.21c5.342,34.178,8.555,72.902,8.555,115.346
				c0,11.782,9.551,21.333,21.333,21.333c11.782,0,21.333-9.551,21.333-21.333c0-44.73-3.395-85.646-9.067-121.934
				c-1.998-12.782-4.146-24.099-6.306-33.85c-1.325-5.981-2.384-10.191-3.038-12.528c-8.978-33.219-3.444-68.175,14.832-93.259
				C185.919,171.968,183.823,158.624,174.301,151.686z"/>
		</g>
	</g>
</g>
<g>
</g>
<g>
</g>
<g>
</g>
<g>
</g>
<g>
</g>
<g>
</g>
<g>
</g>
<g>
</g>
<g>
</g>
<g>
</g>
<g>
</g>
<g>
</g>
<g>
</g>
<g>
</g>
<g>
</g>
</svg>
