<?xml version="1.0" encoding="iso-8859-1"?>
<!-- Generator: Adobe Illustrator 19.0.0, SVG Export Plug-In . SVG Version: 6.00 Build 0)  -->
<svg version="1.1" id="Layer_1" xmlns="http://www.w3.org/2000/svg" xmlns:xlink="http://www.w3.org/1999/xlink" x="0px" y="0px"
	 viewBox="0 0 512.028 512.028" style="enable-background:new 0 0 512.028 512.028;" xml:space="preserve">
<g>
	<g>
		<g>
			<path d="M490.694,106.681h-0.028h-42.639h-15.243L267.307,3.257c-6.918-4.324-15.695-4.324-22.613,0L79.215,106.681H64.028
				H21.361h-0.028C9.551,106.681,0,116.232,0,128.014v85.333c0,0.185,0.023,0.365,0.028,0.549v276.785
				c0,11.782,9.551,21.333,21.333,21.333h469.312c11.781,0,21.332-9.55,21.333-21.332l0.021-256V128.014
				C512.028,116.232,502.477,106.681,490.694,106.681z M256,46.504l96.282,60.176H159.718L256,46.504z M64.028,149.347h21.306
				h341.333h21.361h21.306v42.667H42.694v-42.667H64.028z M469.342,469.347H42.694V234.681h426.667L469.342,469.347z"/>
			<path d="M128.028,320.014c11.776,0,21.333-9.557,21.333-21.333s-9.557-21.333-21.333-21.333s-21.333,9.557-21.333,21.333
				S116.252,320.014,128.028,320.014z"/>
			<path d="M256.028,320.014c11.776,0,21.333-9.557,21.333-21.333s-9.557-21.333-21.333-21.333s-21.333,9.557-21.333,21.333
				S244.252,320.014,256.028,320.014z"/>
			<path d="M384.028,320.014c11.776,0,21.333-9.557,21.333-21.333s-9.557-21.333-21.333-21.333s-21.333,9.557-21.333,21.333
				S372.252,320.014,384.028,320.014z"/>
			<path d="M128.028,384.014c-11.776,0-21.333,9.557-21.333,21.333s9.557,21.333,21.333,21.333s21.333-9.557,21.333-21.333
				S139.804,384.014,128.028,384.014z"/>
			<path d="M256.028,426.681c11.776,0,21.333-9.557,21.333-21.333s-9.557-21.333-21.333-21.333s-21.333,9.557-21.333,21.333
				S244.252,426.681,256.028,426.681z"/>
			<path d="M384.028,426.681c11.776,0,21.333-9.557,21.333-21.333s-9.557-21.333-21.333-21.333s-21.333,9.557-21.333,21.333
				S372.252,426.681,384.028,426.681z"/>
		</g>
	</g>
</g>
<g>
</g>
<g>
</g>
<g>
</g>
<g>
</g>
<g>
</g>
<g>
</g>
<g>
</g>
<g>
</g>
<g>
</g>
<g>
</g>
<g>
</g>
<g>
</g>
<g>
</g>
<g>
</g>
<g>
</g>
</svg>
