<svg xmlns="http://www.w3.org/2000/svg" xmlns:xlink="http://www.w3.org/1999/xlink" width="36" height="36" viewBox="0 0 36 36">
  <path id="Icon" class="cls-1" d="M35.751,15.037a17.9,17.9,0,0,0-2.987-7.315.606.606,0,0,0-.049-.068A17.988,17.988,0,0,0,18.566.014h-.013C18.369.008,18.185,0,18,0A17.93,17.93,0,0,0,5.627,4.945a.54.54,0,0,0-.078.074A17.894,17.894,0,0,0,.127,20.1a.1.1,0,0,0,0,.036A18.041,18.041,0,0,0,10.593,34.4c.014.007.028.014.043.019a17.95,17.95,0,0,0,20.338-3.962.62.62,0,0,0,.089-.093,17.926,17.926,0,0,0,4.69-15.317Zm-8.784-4.56a2.987,2.987,0,0,0-.1-.5,23.55,23.55,0,0,1,5.083-1.32,16.724,16.724,0,0,1,2.3,5.1,24.6,24.6,0,0,0-7.289-3.277ZM24,16.8a23.873,23.873,0,0,1-1.569,8.532A2.95,2.95,0,0,0,21.6,25.2a2.994,2.994,0,0,0-2.454,1.285,24.415,24.415,0,0,1-3.773-2.549,2.958,2.958,0,0,0-.826-3.4A24.186,24.186,0,0,1,21.7,12.7a2.977,2.977,0,0,0,2.094,1.076A23.7,23.7,0,0,1,24,16.8ZM16,34.677a16.65,16.65,0,0,1-4.574-1.218c-.015-.332-.025-.676-.025-1.058a23.912,23.912,0,0,1,.943-6.626c.086.007.169.026.257.026a2.988,2.988,0,0,0,2.1-.865,25.638,25.638,0,0,0,3.96,2.653A2.961,2.961,0,0,0,19.689,30.5,23.771,23.771,0,0,1,16,34.677ZM6,13.8a1.8,1.8,0,1,1,1.8,1.8A1.8,1.8,0,0,1,6,13.8Zm.608-8.134A16.734,16.734,0,0,1,18,1.2c.079,0,.157,0,.236.006a23.751,23.751,0,0,1,4.189,7.053A3.007,3.007,0,0,0,21.24,9.624c-.28-.01-.559-.024-.84-.024a24.944,24.944,0,0,0-10.355,2.231,2.932,2.932,0,0,0-2.808-.974,23.91,23.91,0,0,1-.629-5.191ZM10.8,13.8a2.964,2.964,0,0,0-.16-.92A23.751,23.751,0,0,1,20.4,10.8c.2,0,.4.011.6.017a2.956,2.956,0,0,0,.131.818A25.392,25.392,0,0,0,13.5,19.953,2.783,2.783,0,0,0,11.565,20a23.922,23.922,0,0,1-2.29-3.6A2.99,2.99,0,0,0,10.8,13.8ZM12.6,21a1.8,1.8,0,1,1-1.8,1.8A1.8,1.8,0,0,1,12.6,21Zm7.2,7.2a1.8,1.8,0,1,1,3.6,0,1.779,1.779,0,0,1-.12.623v0A1.8,1.8,0,0,1,19.8,28.2ZM24,12.6a1.8,1.8,0,1,1,1.8-1.8A1.8,1.8,0,0,1,24,12.6Zm7.157-5.029a24.765,24.765,0,0,0-4.847,1.337A2.983,2.983,0,0,0,24,7.8a2.916,2.916,0,0,0-.449.046,24.9,24.9,0,0,0-3.681-6.54A16.791,16.791,0,0,1,31.156,7.572Zm-25.71-.72a24.956,24.956,0,0,0,.667,4.469,2.963,2.963,0,0,0-1.108,3.545A25.088,25.088,0,0,0,1.212,18.48c0-.16-.012-.319-.012-.48A16.727,16.727,0,0,1,5.446,6.853ZM1.35,20.215a24.021,24.021,0,0,1,4.3-4.328A2.987,2.987,0,0,0,7.8,16.8a2.846,2.846,0,0,0,.314-.032,25.168,25.168,0,0,0,2.425,3.862,2.974,2.974,0,0,0,.643,4.8A25.133,25.133,0,0,0,10.2,32.4c0,.167,0,.319.007.476A16.833,16.833,0,0,1,1.35,20.215ZM17.634,34.791a24.912,24.912,0,0,0,3.126-3.725,2.958,2.958,0,0,0,.84.135,2.992,2.992,0,0,0,2.553-1.445,25.118,25.118,0,0,0,5,.8A16.728,16.728,0,0,1,18,34.8C17.88,34.8,17.756,34.794,17.634,34.791Zm12.7-5.4a23.987,23.987,0,0,1-5.777-.77,2.922,2.922,0,0,0,.043-.42,2.983,2.983,0,0,0-1.1-2.3,25.073,25.073,0,0,0,1.7-9.1,24.914,24.914,0,0,0-.206-3.18,2.993,2.993,0,0,0,1.856-1.927,23.46,23.46,0,0,1,7.76,3.78,16.78,16.78,0,0,1-4.275,13.92Z" transform="translate(0 0)"/>
</svg>
