<svg id="icon" xmlns="http://www.w3.org/2000/svg" width="36" height="36" viewBox="0 0 36 36">
  <g id="Grupo_17" data-name="Grupo 17">
    <g id="Grupo_16" data-name="Grupo 16">
      <circle id="Elipse_1" data-name="Elipse 1" class="cls-1" cx="1.758" cy="1.758" r="1.758" transform="translate(16.242 24.855)"/>
      <path id="Caminho_27" data-name="Caminho 27" class="cls-1" d="M18,0A18,18,0,1,0,36,18,17.99,17.99,0,0,0,18,0Zm0,33.188A15.188,15.188,0,1,1,33.188,18,15.179,15.179,0,0,1,18,33.188Z"/>
      <path id="Caminho_28" data-name="Caminho 28" class="cls-1" d="M181.625,128.5A5.631,5.631,0,0,0,176,134.125a1.406,1.406,0,0,0,2.813,0,2.813,2.813,0,1,1,2.813,2.813,1.406,1.406,0,0,0-1.406,1.406v3.516a1.406,1.406,0,0,0,2.813,0v-2.287a5.625,5.625,0,0,0-1.406-11.072Z" transform="translate(-163.625 -119.465)"/>
    </g>
  </g>
</svg>
