<svg xmlns="http://www.w3.org/2000/svg" width="36" height="36" viewBox="0 0 36 36">
  <g id="icon" transform="translate(0 0)">
    <path id="Caminho_10" data-name="Caminho 10" class="cls-1" d="M19.13,36H16.87a3.318,3.318,0,0,1-3.314-3.314v-.764a14.534,14.534,0,0,1-2.257-.937l-.542.542a3.314,3.314,0,0,1-4.687,0l-1.6-1.6a3.314,3.314,0,0,1,0-4.687l.541-.541a14.534,14.534,0,0,1-.937-2.257H3.314A3.318,3.318,0,0,1,0,19.13V16.87a3.318,3.318,0,0,1,3.314-3.314h.764A14.537,14.537,0,0,1,5.015,11.3l-.542-.542a3.314,3.314,0,0,1,0-4.687l1.6-1.6a3.314,3.314,0,0,1,4.687,0l.541.541a14.547,14.547,0,0,1,2.257-.937V3.314A3.318,3.318,0,0,1,16.87,0H19.13a3.318,3.318,0,0,1,3.314,3.314v.764a14.533,14.533,0,0,1,2.257.937l.542-.542a3.314,3.314,0,0,1,4.687,0l1.6,1.6a3.314,3.314,0,0,1,0,4.687l-.541.541a14.535,14.535,0,0,1,.937,2.257h.764A3.318,3.318,0,0,1,36,16.87V19.13a3.318,3.318,0,0,1-3.314,3.314h-.764a14.538,14.538,0,0,1-.937,2.257l.542.542a3.314,3.314,0,0,1,0,4.687l-1.6,1.6a3.314,3.314,0,0,1-4.687,0l-.541-.541a14.547,14.547,0,0,1-2.257.937v.764A3.318,3.318,0,0,1,19.13,36Zm-7.478-7.23a12.432,12.432,0,0,0,3.222,1.338,1.055,1.055,0,0,1,.791,1.021v1.557a1.206,1.206,0,0,0,1.2,1.2H19.13a1.206,1.206,0,0,0,1.2-1.2V31.129a1.055,1.055,0,0,1,.791-1.021,12.432,12.432,0,0,0,3.222-1.338,1.055,1.055,0,0,1,1.283.162l1.1,1.1a1.2,1.2,0,0,0,1.7,0l1.6-1.6a1.2,1.2,0,0,0,0-1.7l-1.1-1.1a1.055,1.055,0,0,1-.162-1.283,12.43,12.43,0,0,0,1.338-3.222,1.055,1.055,0,0,1,1.021-.791h1.557a1.206,1.206,0,0,0,1.2-1.2V16.87a1.206,1.206,0,0,0-1.2-1.2H31.129a1.055,1.055,0,0,1-1.021-.791,12.432,12.432,0,0,0-1.338-3.222,1.055,1.055,0,0,1,.162-1.283l1.1-1.1a1.2,1.2,0,0,0,0-1.7l-1.6-1.6a1.2,1.2,0,0,0-1.7,0l-1.1,1.1a1.055,1.055,0,0,1-1.283.162,12.432,12.432,0,0,0-3.222-1.338,1.055,1.055,0,0,1-.791-1.021V3.314a1.206,1.206,0,0,0-1.2-1.2H16.87a1.206,1.206,0,0,0-1.2,1.2V4.871a1.055,1.055,0,0,1-.791,1.021A12.432,12.432,0,0,0,11.652,7.23a1.055,1.055,0,0,1-1.283-.162l-1.1-1.1a1.2,1.2,0,0,0-1.7,0l-1.6,1.6a1.2,1.2,0,0,0,0,1.7l1.1,1.1a1.055,1.055,0,0,1,.162,1.283,12.43,12.43,0,0,0-1.338,3.222,1.055,1.055,0,0,1-1.021.791H3.314a1.206,1.206,0,0,0-1.2,1.2V19.13a1.206,1.206,0,0,0,1.2,1.2H4.871a1.055,1.055,0,0,1,1.021.791A12.432,12.432,0,0,0,7.23,24.348a1.055,1.055,0,0,1-.162,1.283l-1.1,1.1a1.2,1.2,0,0,0,0,1.7l1.6,1.6a1.2,1.2,0,0,0,1.7,0l1.1-1.1a1.06,1.06,0,0,1,1.283-.162Z"/>
    <path id="Caminho_11" data-name="Caminho 11" class="cls-1" d="M152.433,160.266a7.833,7.833,0,1,1,7.833-7.833A7.842,7.842,0,0,1,152.433,160.266Zm0-13.556a5.723,5.723,0,1,0,5.723,5.723A5.73,5.73,0,0,0,152.433,146.709Z" transform="translate(-134.433 -134.433)"/>
  </g>
</svg>
